<svg id="Gradient" xmlns="http://www.w3.org/2000/svg" viewBox="0 0 1919.78 1080"><defs><style>.cls-1{fill:#f6a928;}.cls-2{fill:#f39b2b;}.cls-3{fill:#ee8d30;}.cls-4{fill:#e97e35;}.cls-5{fill:#e27037;}.cls-6{fill:#da633b;}.cls-7{fill:#d0553e;}.cls-8{fill:#c64a41;}.cls-9{fill:#bd3e43;}.cls-10{fill:#b03344;}.cls-11{fill:#a32845;}.cls-12{fill:#971e45;}.cls-13{fill:#891544;}.cls-14{fill:#7b0b44;}.cls-15{fill:#6d0442;}.cls-16{fill:#5e003f;}.cls-17{fill:#51003b;}.cls-18{fill:#420036;}.cls-19{fill:#350031;}.cls-20{fill:#28002b;}.cls-21{fill:#1f0021;}.cls-22{fill:#f7b924;}</style></defs><path class="cls-1" d="M1920.22.14H173.15C123,46.4,63.6,104.18.43,171.69v908.45H1920.22Z" transform="translate(-0.43 -0.14)"/><path class="cls-2" d="M1920.22.14H409.57C293.65,107.22,140.88,267.16,17,462Q8.61,475.23.43,488.24v591.9H1920.22Z" transform="translate(-0.43 -0.14)"/><path class="cls-3" d="M1920.22.14H578.63C455.36,126.29,285.43,320.94,172.48,534.9c-83,157.2-137.16,270-172,347.68v197.56H1920.22Z" transform="translate(-0.43 -0.14)"/><path class="cls-4" d="M1920.22,1080.14V.14H690.51C618.05,88.35,469.4,278.37,362.34,475.74c-120.24,221.69-199.7,533.58-222,604.4Z" transform="translate(-0.43 -0.14)"/><path class="cls-5" d="M1920.22,1080.14V.14H768.85C699,99,572,288.92,478.67,488c-116.44,248.26-161.23,536.46-171.5,592.18Z" transform="translate(-0.43 -0.14)"/><path class="cls-6" d="M1920.22,1080.14V.14H806.56c-91.17,166.07-206.66,394-261.37,573.28-79.48,260.48-105,465.9-111.78,506.72Z" transform="translate(-0.43 -0.14)"/><path class="cls-7" d="M1920.22.14h-1096c-67,132.53-154.89,330-204.7,537.51-71.22,296.74-75.26,502.19-74.19,542.49h1374.9Z" transform="translate(-0.43 -0.14)"/><path class="cls-8" d="M1920.22.14H827.43c-52.21,112.92-113.22,273.44-150,466.22-62,324.79-51.39,566.55-46.18,613.78h1289Z" transform="translate(-0.43 -0.14)"/><path class="cls-9" d="M1920.22.14H829.91C792,88.49,726.78,269.24,695.74,525.67c-30.28,250.22-6,504.31,2.14,554.47H1920.22Z" transform="translate(-0.43 -0.14)"/><path class="cls-10" d="M1920.22.14H832.58c-50,107.45-110,275.75-119.41,477.89C698.78,787.39,738,1039.1,748.36,1080.14H1920.22Z" transform="translate(-0.43 -0.14)"/><path class="cls-11" d="M1920.22.14H856C797.57,99.82,720.32,275.28,720.28,506.47c0,288.8,52.37,533.49,66.08,573.67H1920.22Z" transform="translate(-0.43 -0.14)"/><path class="cls-12" d="M1920.22.14H932.85C840.87,105.19,750.41,256.35,737,452.49c-20.64,302.33,60.6,582.72,80.05,627.65H1920.22Z" transform="translate(-0.43 -0.14)"/><path class="cls-13" d="M1920.22.14H1139.35C1020.48,52.81,889,147.13,814.06,315.69c-131.94,296.6-6.35,694.07,24,764.45H1920.22Z" transform="translate(-0.43 -0.14)"/><path class="cls-14" d="M1920.22,147.76c-69.71-25.19-175.69-53.64-319-65.5-282.73-23.39-595,52.28-742.93,335.7-133.13,255.13-18.58,608.57,5.6,662.18h1056.3Z" transform="translate(-0.43 -0.14)"/><path class="cls-15" d="M1920.22,242.94c-62.06-14.26-153.71-32.24-233-35.48-134.83-5.5-500.79-19.26-718.17,253.15-189.2,237.09-99.6,558.8-73.2,619.53H1920.22Z" transform="translate(-0.43 -0.14)"/><path class="cls-16" d="M1920.22,322.71c-183.33-24.59-545.19-40.88-783.3,158.53-285.49,239.1-209.32,541-183.46,598.9h966.76Z" transform="translate(-0.43 -0.14)"/><path class="cls-17" d="M1920.22,389.18C1762.28,382.52,1454.09,394.37,1247,561,992.36,766,1016.7,1036,1026.07,1080.14h894.15Z" transform="translate(-0.43 -0.14)"/><path class="cls-18" d="M1920.22,452.81c-84.68-3.15-355.84,13.78-571.43,178.4-216.35,165.19-221.88,419-221.23,448.93h792.66Z" transform="translate(-0.43 -0.14)"/><path class="cls-19" d="M1920.22,1080.14V504.54c-140.57,6-332.18,61.76-484.76,194.08-150.19,130.25-181.5,344.69-187.28,381.52Z" transform="translate(-0.43 -0.14)"/><path class="cls-20" d="M1920.22,1080.14V559c-87.21,10.89-252.16,48.53-386.39,174-142.43,133.18-165.47,315.55-169.19,347.13Z" transform="translate(-0.43 -0.14)"/><path class="cls-21" d="M1920.22,1080.14v-465c-68.6,9.63-169.13,36.94-261.19,112.32-144,117.89-177.65,327-182.87,352.66Z" transform="translate(-0.43 -0.14)"/><path class="cls-22" d="M173.15.14H.43V171.69C63.6,104.18,123,46.4,173.15.14Z" transform="translate(-0.43 -0.14)"/></svg>