<svg xmlns="http://www.w3.org/2000/svg" viewBox="0 0 100.25 100.25"><defs><style>.cls-1{opacity:0.8;}.cls-2{fill:#fff;}.cls-3{fill:#fff;stroke:#fff;stroke-miterlimit:10;stroke-width:0.25px;opacity:0.01;}</style></defs><g id="Layer_2" data-name="Layer 2"><g class="cls-1"><rect class="cls-2" x="45.52" y="41.15" width="1.58" height="5.29"/><rect class="cls-2" x="48.95" y="58.96" width="1.58" height="5.29"/><path class="cls-2" d="M49.12,49.93h-.3v5.29h1.59V50.8Z" transform="translate(0.13 0.13)"/><rect class="cls-2" x="45.52" y="32.25" width="1.58" height="5.29"/><rect class="cls-2" x="42.1" y="32.25" width="1.58" height="5.29"/><path class="cls-2" d="M43.56,41H42v3.15l1.58,1Z" transform="translate(0.13 0.13)"/><rect class="cls-2" x="42.1" y="23.34" width="1.58" height="5.29"/><path class="cls-2" d="M43.56,58.84H42v2.69l1.58,1.19Z" transform="translate(0.13 0.13)"/><path class="cls-2" d="M47,58.84H45.4v5.24l.07,0H47Z" transform="translate(0.13 0.13)"/><rect class="cls-2" x="45.52" y="23.34" width="1.58" height="5.29"/><rect class="cls-2" x="42.1" y="50.06" width="1.58" height="5.29"/><path class="cls-2" d="M42,46.32h1.56l-1.56-1Z" transform="translate(0.13 0.13)"/><rect class="cls-2" x="45.52" y="50.06" width="1.58" height="5.29"/><path class="cls-2" d="M18,35.65v2.76A14.86,14.86,0,0,0,19.61,41V35.23A2.52,2.52,0,0,0,18,35.65Z" transform="translate(0.13 0.13)"/><path class="cls-2" d="M56.71,55.22l-1.37-1c-1-.75-2.07-1.47-3.1-2.18v3.16Z" transform="translate(0.13 0.13)"/><rect class="cls-2" x="48.95" y="41.15" width="1.58" height="5.29"/><path class="cls-2" d="M52.24,64.13h16c-2.08-1.73-4.31-3.5-6.66-5.29H52.24Z" transform="translate(0.13 0.13)"/><path class="cls-2" d="M52.24,68.89C68.72,80.08,82.83,86.64,84.85,83.82c1.44-2-3.63-8.3-12.41-16.08H52.24Z" transform="translate(0.13 0.13)"/><rect class="cls-2" x="48.95" y="32.25" width="1.58" height="5.29"/><rect class="cls-2" x="48.95" y="23.34" width="1.58" height="5.29"/><path class="cls-2" d="M21.44,35.45v7.84c.49.56,1,1.15,1.59,1.76V35.86C22.46,35.69,21.93,35.56,21.44,35.45Z" transform="translate(0.13 0.13)"/><path class="cls-2" d="M8.54,8.54V91.46H91.46V8.54Zm2.64,81.54H9.34V9.81h1.84ZM90.84,23.22H52.24v5.29h38.6v3.61H52.24v5.29h38.6V41H52.24v5.29h38.6v3.61H52.24v1c1.21.84,2.43,1.69,3.65,2.57.83.59,1.64,1.17,2.44,1.76H90.84v3.62H63.15c2.33,1.79,4.55,3.56,6.64,5.29h21v3.61H74c10.22,9,16.14,16.32,14.46,18.68-2.29,3.21-18-4-36.24-16.36v20H50.41V68.8l-1.53-1.06h-.06V90.08H47V67.74H45.4V90.08H43.56V67.74H42V90.08H40.14V61.35l-1.58-1.22V90.08H36.72V58.69l-1.59-1.27V90.08H33.3V55.92L31.71,54.6V90.08H29.87V53l-1.58-1.38V90.08H26.45V50l-1.58-1.46V90.08H23V46.78q-.83-.81-1.59-1.59V90.08H19.61V43.25C19,42.64,18.51,42,18,41.46V90.08H16.18V39.13A18.94,18.94,0,0,1,14.6,36.6V90.08H12.76V9.81H14.6V32.9a3,3,0,0,1,1.58-.38V9.81H18V32.7c.49.09,1,.22,1.59.37V9.81h1.83V33.65c.51.17,1,.36,1.59.58V9.81h1.84V35l1.58.7V9.81h1.84V36.54l1.58.79V9.81h1.84V38.28l1.59.84V9.81h1.83V40.14l1.59.9V9.81h1.84v32.3l1.58.94V9.81H42v9.8h1.58V9.81H45.4v9.8H47V9.81h1.84v9.8h1.59V9.81h1.83v9.8h38.6Z" transform="translate(0.13 0.13)"/><path class="cls-2" d="M28.29,37.91V50.22l1.58,1.43v-13Z" transform="translate(0.13 0.13)"/><path class="cls-2" d="M31.71,39.55V53.26l1.59,1.35V40.37Z" transform="translate(0.13 0.13)"/><path class="cls-2" d="M24.87,36.49V47c.5.5,1,1,1.58,1.54V37.11C25.9,36.88,25.37,36.67,24.87,36.49Z" transform="translate(0.13 0.13)"/><path class="cls-2" d="M42,62.74v1.39h1.58v-.22Z" transform="translate(0.13 0.13)"/><path class="cls-2" d="M38.56,43.3V58.89l1.58,1.24V44.24Z" transform="translate(0.13 0.13)"/><path class="cls-2" d="M35.13,41.36V56.14l1.59,1.29V42.25Z" transform="translate(0.13 0.13)"/></g><rect class="cls-3" x="0.13" y="0.13" width="100" height="100"/></g></svg>