<?xml version="1.0" encoding="utf-8"?>
<!-- Generator: Adobe Illustrator 25.4.1, SVG Export Plug-In . SVG Version: 6.00 Build 0)  -->
<svg version="1.1" id="Layer_1" xmlns="http://www.w3.org/2000/svg" xmlns:xlink="http://www.w3.org/1999/xlink" x="0px" y="0px"
	 viewBox="0 0 100.2 100.2" style="enable-background:new 0 0 100.2 100.2;" xml:space="preserve">
<style type="text/css">
	.st0{fill:#FFFFFF;}
	.st1{opacity:0.8;}
	.st2{fill:#D91400;}
</style>
<rect x="4.5" y="4.7" class="st0" width="91.3" height="91.1"/>
<g id="Layer_2_00000163774542537770369560000014357791518884980360_">
	<g class="st1">
		<rect x="45" y="40.3" class="st2" width="1.8" height="5.8"/>
		<rect x="48.9" y="59.9" class="st2" width="1.8" height="5.8"/>
		<path class="st2" d="M49.1,50.1h-0.2v5.8h1.8v-4.8L49.1,50.1z"/>
		<rect x="45" y="30.4" class="st2" width="1.8" height="5.8"/>
		<rect x="41.3" y="30.4" class="st2" width="1.8" height="5.8"/>
		<path class="st2" d="M43,40.2h-1.8v3.5l1.8,1.1V40.2z"/>
		<rect x="41.3" y="20.6" class="st2" width="1.8" height="5.8"/>
		<path class="st2" d="M43,59.9h-1.8v3l1.8,1.3V59.9z"/>
		<path class="st2" d="M46.8,59.9H45v5.7h0.1h1.7V59.9z"/>
		<rect x="45" y="20.6" class="st2" width="1.8" height="5.8"/>
		<rect x="41.3" y="50.1" class="st2" width="1.8" height="5.8"/>
		<path class="st2" d="M41.3,46.1H43L41.3,45V46.1z"/>
		<rect x="45" y="50.1" class="st2" width="1.8" height="5.8"/>
		<path class="st2" d="M14.8,34.3v3.1c0.4,1,1.1,2,1.8,2.9v-6.4C16.1,33.8,15.4,34,14.8,34.3z"/>
		<path class="st2" d="M57.5,55.9l-1.5-1.1c-1.1-0.9-2.3-1.7-3.4-2.4v3.5H57.5z"/>
		<rect x="48.9" y="40.3" class="st2" width="1.8" height="5.8"/>
		<path class="st2" d="M52.6,65.7h17.6c-2.3-1.9-4.7-3.9-7.4-5.8H52.6V65.7z"/>
		<path class="st2" d="M52.6,70.9c18.1,12.3,33.7,19.6,35.9,16.4c1.5-2.2-4-9.1-13.7-17.7H52.6V70.9z"/>
		<rect x="48.9" y="30.4" class="st2" width="1.8" height="5.8"/>
		<rect x="48.9" y="20.6" class="st2" width="1.8" height="5.8"/>
		<path class="st2" d="M18.7,34.1v8.6c0.6,0.7,1.1,1.3,1.8,2V34.6C19.8,34.3,19.3,34.2,18.7,34.1z"/>
		<path class="st2" d="M4.5,4.5v91.3h91.3V4.5H4.5z M7.4,94.3h-2V5.8h2V94.3z M95.1,20.6H52.6v5.8h42.5v4H52.6v5.8h42.5v4H52.6V46
			h42.5v4H52.6v1.1C54,52,55.3,53,56.7,54c0.9,0.7,1.8,1.3,2.6,2h35.8v4H64.6c2.5,2,5,4,7.3,5.8H95v4H76.5c11.2,9.9,17.7,18,16,20.6
			c-2.5,3.5-19.8-4.4-39.9-18.1v22h-2V70.8l-1.8-1.1l0,0v24.6h-2V69.7h-1.8v24.6h-2V69.7h-1.8v24.6h-2.1V62.7l-1.8-1.3v33h-2V59.7
			l-1.8-1.4v36h-2V56.6L30,55.2v39.1H28V53.4l-1.8-1.5v42.4h-2V50.1l-1.8-1.5v45.7h-2.1V46.6c-0.7-0.6-1.2-1.2-1.8-1.8v49.5h-2V42.7
			c-0.7-0.7-1.2-1.3-1.8-2v53.5h-2V38.2c-0.7-0.9-1.2-1.8-1.8-2.8v58.9h-2V5.8h2v25.4c0.6-0.3,1.1-0.4,1.8-0.4v-25h2V31
			c0.6,0.1,1.1,0.2,1.8,0.4V5.8h2V32c0.6,0.2,1.1,0.4,1.8,0.7V5.8h2.1v27.8l1.8,0.8V5.8h2v29.4l1.8,0.9V5.8h2v31.4l1.8,0.9V5.8h2
			v33.4l1.8,1V5.8h2v35.6l1.8,1V5.8h2.1v10.8H43V5.8h2v10.8h1.8V5.8h2.1v10.8h1.8V5.8h2v10.8h42.5V20.6z"/>
		<path class="st2" d="M26.2,36.8v13.5l1.8,1.5V37.5L26.2,36.8z"/>
		<path class="st2" d="M29.9,38.6v15.1l1.8,1.4V39.5L29.9,38.6z"/>
		<path class="st2" d="M22.4,35.2v11.6c0.6,0.6,1.1,1.1,1.8,1.7V35.9C23.5,35.7,23,35.4,22.4,35.2z"/>
		<path class="st2" d="M41.3,64.2v1.5H43v-0.3L41.3,64.2z"/>
		<path class="st2" d="M37.5,42.7v17.2l1.8,1.3V43.8L37.5,42.7z"/>
		<path class="st2" d="M33.8,40.6v16.3l1.8,1.4V41.6L33.8,40.6z"/>
	</g>
</g>
</svg>
