<?xml version="1.0" encoding="utf-8"?>
<!-- Generator: Adobe Illustrator 25.4.1, SVG Export Plug-In . SVG Version: 6.00 Build 0)  -->
<svg version="1.1" id="Layer_1" xmlns="http://www.w3.org/2000/svg" xmlns:xlink="http://www.w3.org/1999/xlink" x="0px" y="0px"
	 viewBox="0 0 100.2 100.2" style="enable-background:new 0 0 100.2 100.2;" xml:space="preserve">
<style type="text/css">
	.st0{opacity:0.8;}
	.st1{fill:#D91400;}
	.st2{opacity:1.000000e-02;fill:#D91400;stroke:#FFFFFF;stroke-width:0.25;stroke-miterlimit:10;enable-background:new    ;}
</style>
<g id="Layer_2_00000163774542537770369560000014357791518884980360_">
	<g class="st0">
		<rect x="45.5" y="41.2" class="st1" width="1.6" height="5.3"/>
		<rect x="49" y="59" class="st1" width="1.6" height="5.3"/>
		<path class="st1" d="M49.2,50.1H49v5.3h1.6v-4.4L49.2,50.1z"/>
		<rect x="45.5" y="32.2" class="st1" width="1.6" height="5.3"/>
		<rect x="42.1" y="32.2" class="st1" width="1.6" height="5.3"/>
		<path class="st1" d="M43.7,41.1h-1.6v3.2l1.6,1L43.7,41.1z"/>
		<rect x="42.1" y="23.3" class="st1" width="1.6" height="5.3"/>
		<path class="st1" d="M43.7,59h-1.6v2.7l1.6,1.2L43.7,59z"/>
		<path class="st1" d="M47.1,59h-1.6v5.2h0.1h1.5V59z"/>
		<rect x="45.5" y="23.3" class="st1" width="1.6" height="5.3"/>
		<rect x="42.1" y="50.1" class="st1" width="1.6" height="5.3"/>
		<path class="st1" d="M42.1,46.5h1.6l-1.6-1V46.5z"/>
		<rect x="45.5" y="50.1" class="st1" width="1.6" height="5.3"/>
		<path class="st1" d="M18.1,35.8v2.8c0.4,0.9,1,1.8,1.6,2.6v-5.8C19.2,35.3,18.6,35.5,18.1,35.8z"/>
		<path class="st1" d="M56.8,55.4l-1.4-1c-1-0.8-2.1-1.5-3.1-2.2v3.2L56.8,55.4z"/>
		<rect x="49" y="41.2" class="st1" width="1.6" height="5.3"/>
		<path class="st1" d="M52.4,64.3h16c-2.1-1.7-4.3-3.5-6.7-5.3h-9.3V64.3z"/>
		<path class="st1" d="M52.4,69C68.8,80.2,83,86.8,85,83.9c1.4-2-3.6-8.3-12.4-16.1H52.4V69z"/>
		<rect x="49" y="32.2" class="st1" width="1.6" height="5.3"/>
		<rect x="49" y="23.3" class="st1" width="1.6" height="5.3"/>
		<path class="st1" d="M21.6,35.6v7.8c0.5,0.6,1,1.2,1.6,1.8V36C22.6,35.8,22.1,35.7,21.6,35.6z"/>
		<path class="st1" d="M8.7,8.7v82.9h82.9V8.7H8.7z M11.3,90.2H9.5V9.9h1.8V90.2z M91,23.3H52.4v5.3H91v3.6H52.4v5.3H91v3.6H52.4
			v5.3H91V50H52.4v1c1.2,0.8,2.4,1.7,3.7,2.6c0.8,0.6,1.6,1.2,2.4,1.8H91V59H63.3c2.3,1.8,4.5,3.6,6.6,5.3h21v3.6H74.1
			c10.2,9,16.1,16.3,14.5,18.7c-2.3,3.2-18-4-36.2-16.4v20h-1.8V68.9L49,67.9H49v22.3h-1.8V67.9h-1.6v22.3h-1.8V67.9h-1.6v22.3h-1.9
			V61.5l-1.6-1.2v30h-1.8V58.8l-1.6-1.3v32.7h-1.8V56l-1.6-1.3v35.5H30V53.1l-1.6-1.4v38.5h-1.8V50.1L25,48.7v41.5h-1.9V46.9
			c-0.6-0.5-1.1-1.1-1.6-1.6v44.9h-1.8V43.4c-0.6-0.6-1.1-1.2-1.6-1.8v48.6h-1.8V39.3c-0.6-0.8-1.1-1.6-1.6-2.5v53.5h-1.8V9.9h1.8
			V33c0.5-0.3,1-0.4,1.6-0.4V9.9h1.8v22.9c0.5,0.1,1,0.2,1.6,0.4V9.9h1.8v23.8c0.5,0.2,1,0.4,1.6,0.6V9.9H25v25.2l1.6,0.7V9.9h1.8
			v26.7l1.6,0.8V9.9h1.8v28.5l1.6,0.8V9.9h1.8v30.3l1.6,0.9V9.9h1.8v32.3l1.6,0.9V9.9h1.9v9.8h1.6V9.9h1.8v9.8h1.6V9.9H49v9.8h1.6
			V9.9h1.8v9.8H91L91,23.3z"/>
		<path class="st1" d="M28.4,38v12.3l1.6,1.4v-13L28.4,38z"/>
		<path class="st1" d="M31.8,39.7v13.7l1.6,1.3V40.5L31.8,39.7z"/>
		<path class="st1" d="M25,36.6v10.5c0.5,0.5,1,1,1.6,1.5V37.2C26,37,25.5,36.8,25,36.6z"/>
		<path class="st1" d="M42.1,62.9v1.4h1.6V64L42.1,62.9z"/>
		<path class="st1" d="M38.7,43.4V59l1.6,1.2V44.4L38.7,43.4z"/>
		<path class="st1" d="M35.3,41.5v14.8l1.6,1.3V42.4L35.3,41.5z"/>
	</g>
	<rect x="0.1" y="0.1" class="st2" width="100" height="100"/>
</g>
</svg>
