<svg xmlns="http://www.w3.org/2000/svg" xmlns:xlink="http://www.w3.org/1999/xlink" viewBox="0 0 25.17 25.63"><defs><style>.cls-1{fill:none;}.cls-2{isolation:isolate;}.cls-3{mix-blend-mode:multiply;}.cls-4{clip-path:url(#clip-path);}.cls-5{fill:#0f5c5c;}.cls-6{fill:#eb4552;}.cls-7{fill:#0f1a1c;}</style><clipPath id="clip-path" transform="translate(-2.67 -2.16)"><rect class="cls-1" x="2.67" y="2.16" width="25.17" height="25.63"/></clipPath></defs><g class="cls-2"><g id="icon"><g class="cls-3"><g class="cls-4"><path class="cls-5" d="M21.44,26.47a2.93,2.93,0,0,1-2.74-1.93h3.17a.66.66,0,0,0,.56-1l-1.75-2.79a3.23,3.23,0,0,1,.76-.1,2.92,2.92,0,1,1,0,5.84m-.77-3.26H18.55a2.88,2.88,0,0,1,1-1.84ZM13,18.64h4.83l1,1.59a4.24,4.24,0,0,0-1.59,3H15.83Zm-1.75,4.91a2.91,2.91,0,1,1-2-2.77L7.72,23.2a.66.66,0,0,0,.22.91.61.61,0,0,0,.34.1.67.67,0,0,0,.57-.31l1.5-2.42a2.92,2.92,0,0,1,.86,2.07M21.44,19.3a4.37,4.37,0,0,0-1.49.27l-1.2-1.92h2a.67.67,0,1,0,0-1.33H17.64A.67.67,0,0,0,17,17a.72.72,0,0,0,.08.32H12.93l.64-1h1.74a.67.67,0,0,0,0-1.33H13.2a.68.68,0,0,0-.57.31l-2.7,4.37a4.24,4.24,0,1,0,1.13.7l.69-1.12,3.15,5a.66.66,0,0,0,.56.31h1.85a4.25,4.25,0,1,0,4.13-5.24" transform="translate(-2.67 -2.16)"/><path class="cls-5" d="M27.8,19.6a11.62,11.62,0,0,0-2.26-3.76,4.77,4.77,0,0,0,0-3.58,5.88,5.88,0,0,0-4.64-3.37C17,8.16,16.21,6.53,16.2,6.52a.64.64,0,0,0-.59-.4A.66.66,0,0,0,15,6.5a10.82,10.82,0,0,0-.61,7.26.67.67,0,0,0,.84.43.69.69,0,0,0,.42-.85,8.81,8.81,0,0,1,.17-5.24,9.58,9.58,0,0,0,4.84,2.09,4.63,4.63,0,0,1,3.65,2.58,3.4,3.4,0,0,1,.17,2l-.1-.09a8.14,8.14,0,0,0-4.92-2,.67.67,0,0,0,0,1.33h0a7,7,0,0,1,4.06,1.74l.38.33a3.73,3.73,0,0,1-.85.83.66.66,0,0,0-.17.92.67.67,0,0,0,.55.29.68.68,0,0,0,.38-.12,5.32,5.32,0,0,0,1-.94,10.44,10.44,0,0,1,1.71,3,.65.65,0,0,0,.63.45.76.76,0,0,0,.21,0,.66.66,0,0,0,.42-.84" transform="translate(-2.67 -2.16)"/><path class="cls-6" d="M13.23,2.16h0a10.56,10.56,0,0,0-7.5,18,4.22,4.22,0,0,1,2.56-.86,4.29,4.29,0,0,1,1.64.33l2.7-4.37A.69.69,0,0,1,13.2,15h2.11a.67.67,0,0,1,0,1.33H13.57l-.64,1h4.13A.72.72,0,0,1,17,17a.67.67,0,0,1,.66-.67h3.07a.67.67,0,1,1,0,1.33h-2L20,19.57a4.37,4.37,0,0,1,1.49-.27h0a10.44,10.44,0,0,0,1.9-3.67A7,7,0,0,0,19.47,14h0a.67.67,0,0,1,0-1.33h0a7.9,7.9,0,0,1,4.21,1.53,10.46,10.46,0,0,0,.1-1.49c0-.29,0-.58,0-.86a5.17,5.17,0,0,0-3.11-1.67A9.58,9.58,0,0,1,15.81,8.1a8.81,8.81,0,0,0-.17,5.24.68.68,0,0,1-.42.85.76.76,0,0,1-.21,0,.66.66,0,0,1-.63-.46A10.82,10.82,0,0,1,15,6.5a.66.66,0,0,1,.6-.38h0a.64.64,0,0,1,.59.4S17,8.16,20.9,8.89a7.39,7.39,0,0,1,2.48.92A10.56,10.56,0,0,0,13.23,2.16m4.56,16.48H13L15.69,23a11.37,11.37,0,0,0,1.65-.54,4.29,4.29,0,0,1,1.46-2.23Zm-6,.58-.69,1.11a4.22,4.22,0,0,1,1.46,2.93c.24,0,.47,0,.71,0a8.94,8.94,0,0,0,1-.05ZM8.29,20.63a3,3,0,0,0-1.54.43,10.39,10.39,0,0,0,1.64,1.05l.83-1.33a2.92,2.92,0,0,0-.93-.15m2.06.85-.73,1.17a10.15,10.15,0,0,0,1.55.43,3,3,0,0,0-.82-1.6" transform="translate(-2.67 -2.16)"/><path class="cls-7" d="M15.31,15H13.2a.68.68,0,0,0-.57.31l-2.7,4.37a4.29,4.29,0,0,0-1.64-.33,4.22,4.22,0,0,0-2.56.86,10.94,10.94,0,0,0,1,.9,3,3,0,0,1,1.54-.43,2.92,2.92,0,0,1,.93.15l-.83,1.33a9.56,9.56,0,0,0,1.23.54l.73-1.17a3,3,0,0,1,.82,1.6,10,10,0,0,0,1.35.18,4.22,4.22,0,0,0-1.46-2.93l.69-1.12,2.52,4A9.35,9.35,0,0,0,15.69,23L13,18.64h4.84l1,1.59a4.29,4.29,0,0,0-1.46,2.23,10.63,10.63,0,0,0,4.15-3.16h0a4.37,4.37,0,0,0-1.49.27l-1.2-1.92h2a.67.67,0,1,0,0-1.33H17.64A.67.67,0,0,0,17,17a.72.72,0,0,0,.08.32H12.93l.64-1h1.74a.67.67,0,0,0,.66-.67.66.66,0,0,0-.66-.66" transform="translate(-2.67 -2.16)"/><path class="cls-7" d="M15.59,6.12a.66.66,0,0,0-.6.38,10.86,10.86,0,0,0-.61,7.27.67.67,0,0,0,.63.45.76.76,0,0,0,.21,0,.68.68,0,0,0,.42-.84,8.84,8.84,0,0,1,.17-5.25,9.58,9.58,0,0,0,4.84,2.09,5.17,5.17,0,0,1,3.11,1.67,10.61,10.61,0,0,0-.38-2,7.36,7.36,0,0,0-2.49-.92C17,8.16,16.21,6.53,16.2,6.52a.64.64,0,0,0-.59-.4h0m3.89,6.56h0a.67.67,0,0,0,0,1.33h0a7,7,0,0,1,3.92,1.62,11,11,0,0,0,.3-1.43,7.94,7.94,0,0,0-4.21-1.52" transform="translate(-2.67 -2.16)"/></g></g></g></g></svg>