<?xml version="1.0" encoding="UTF-8"?><svg id="Layer_1" xmlns="http://www.w3.org/2000/svg" viewBox="0 0 50 50"><defs><style>.cls-1{fill:#ea4651;}.cls-2{fill:none;}</style></defs><path class="cls-1" d="M17.89,31.23c7.12,0,12.89-5.87,12.89-13.11s-5.78-13.12-12.89-13.12S5,10.87,5,18.11s5.77,13.11,12.89,13.11"/><path d="M19.6,24.52c-.03-.33-.05-.67-.05-1,0-.6,.06-1.19,.16-1.77,.03-.14-.05-.28-.17-.33-.52-.23-.99-.55-1.4-.95-.98-.96-1.51-2.25-1.47-3.63,.03-1.22,.52-2.38,1.38-3.25,.94-.96,2.2-1.49,3.54-1.47,1.21,.01,2.38,.48,3.27,1.31,.3,.28,.56,.59,.78,.93,.08,.12,.22,.17,.35,.12,.67-.23,1.38-.4,2.1-.47,.21-.02,.33-.25,.24-.44-1.24-2.44-3.76-4.13-6.68-4.18-4.21-.06-7.72,3.39-7.72,7.6,0,2.39,1.1,4.52,2.82,5.91-1.21,.56-2.32,1.33-3.29,2.3-1.76,1.76-2.87,3.99-3.22,6.41-.02,.17-.09,.68,.21,1.09,.26,.35,.6,.57,1.06,.57s.81-.18,1.05-.42c.28-.29,.41-.95,.43-1.07,.3-1.75,1.13-3.36,2.41-4.64,1.12-1.12,2.49-1.89,3.98-2.27,.14-.04,.24-.18,.22-.33v-.02Z"/><path d="M36.73,23.51c0-4.16-3.34-7.54-7.49-7.6-4.21-.06-7.72,3.39-7.72,7.6,0,2.39,1.1,4.52,2.82,5.91-1.21,.56-2.32,1.33-3.28,2.3-1.7,1.7-2.8,3.85-3.19,6.18-.02,.11-.14,.84,.07,1.24,.16,.32,.49,.65,1.16,.65s.99-.36,1.09-.45,.33-.6,.39-.96c.29-1.78,1.13-3.42,2.43-4.72,1.64-1.64,3.81-2.54,6.13-2.54,4.2,0,7.6-3.4,7.6-7.6h-.01Zm-4.16,3.43c-.92,.92-2.14,1.43-3.44,1.43s-2.52-.51-3.44-1.43-1.44-2.17-1.43-3.49c.01-1.25,.51-2.45,1.38-3.35,.91-.94,2.13-1.46,3.44-1.47,1.29-.01,2.54,.49,3.46,1.39,.94,.92,1.46,2.16,1.46,3.47s-.51,2.52-1.43,3.44h0Z"/><path d="M29.13,31.12c2.32,0,4.49,.9,6.13,2.54,1.3,1.3,2.14,2.94,2.43,4.72,.06,.37,.29,.87,.39,.96s.41,.45,1.09,.45,1-.33,1.16-.65c.2-.4,.08-1.13,.07-1.24-.38-2.33-1.48-4.47-3.19-6.18-.97-.97-2.08-1.74-3.28-2.3,1.72-1.4,2.82-3.52,2.82-5.91,0-4.21-3.51-7.67-7.72-7.6-4.14,.06-7.49,3.44-7.49,7.6s3.41,7.6,7.6,7.6h-.01Zm-3.44-4.15c-.92-.92-1.43-2.14-1.43-3.44s.52-2.55,1.46-3.47c.92-.9,2.17-1.4,3.46-1.39,1.3,.02,2.52,.54,3.44,1.47,.87,.89,1.37,2.1,1.38,3.35,.01,1.32-.49,2.56-1.43,3.49s-2.14,1.43-3.44,1.43-2.52-.51-3.44-1.43h0Z"/><rect class="cls-2" width="50" height="50"/></svg>