<svg xmlns="http://www.w3.org/2000/svg" xmlns:xlink="http://www.w3.org/1999/xlink" viewBox="0 0 22.33 24.97"><defs><style>.cls-1{fill:none;}.cls-2{isolation:isolate;}.cls-3{mix-blend-mode:multiply;}.cls-4{clip-path:url(#clip-path);}.cls-5{fill:#0f5c5c;}.cls-6{fill:#eb4552;}.cls-7{fill:#0f1a1c;}</style><clipPath id="clip-path" transform="translate(-2.66 -2.3)"><rect class="cls-1" x="2.66" y="2.3" width="22.33" height="24.97"/></clipPath></defs><g class="cls-2"><g id="icon"><g class="cls-3"><g class="cls-4"><path class="cls-5" d="M21.51,11.16H16.19a.66.66,0,1,0,0,1.31h5.32a.66.66,0,1,0,0-1.31" transform="translate(-2.66 -2.3)"/><path class="cls-5" d="M21.39,21.4V20.05h1.36Zm-.65-2.66a.65.65,0,0,0-.66.65v2.94H19V15.06a.66.66,0,0,0-.66-.66h-4v-5h9.36v9.32ZM17.67,26H14.74v0a.56.56,0,0,0,0-.12l-.06-.12-.08-.1a.69.69,0,0,0-.6-.18l-.12,0-.11.06-.1.08a.7.7,0,0,0-.19.37H10.51V15.71h1.18a.66.66,0,0,0,.66.65h3.48a.65.65,0,0,0,.66-.65h1.18ZM25,8.76a.65.65,0,0,0-.65-.65H13.66a.65.65,0,0,0-.65.65V14.4H9.85a.65.65,0,0,0-.65.66V26.61a.65.65,0,0,0,.65.66h8.48a.66.66,0,0,0,.66-.66v-3h1.75a.66.66,0,0,0,.46-.19l3.6-3.6a.66.66,0,0,0,.19-.47h0Z" transform="translate(-2.66 -2.3)"/><path class="cls-6" d="M13.12,2.3h0A10.46,10.46,0,0,0,9.2,22.46v-7.4a.65.65,0,0,1,.65-.66H13V8.76a.65.65,0,0,1,.65-.65H22.5A10.47,10.47,0,0,0,13.12,2.3M23,9.42H14.32v5h4a.66.66,0,0,1,.66.66v6.36a10.91,10.91,0,0,0,1.09-.84V19.39a.66.66,0,0,1,.66-.66h1a10.39,10.39,0,0,0,1.87-6A10.53,10.53,0,0,0,23,9.42m-6.85,3.05a.66.66,0,1,1,0-1.31h5.32a.66.66,0,1,1,0,1.31Zm1.48,3.24H16.49a.65.65,0,0,1-.66.65H12.35a.66.66,0,0,1-.66-.65H10.51v7.18a10.48,10.48,0,0,0,7.16-.71Z" transform="translate(-2.66 -2.3)"/><path class="cls-7" d="M21.51,11.16H16.19a.66.66,0,1,0,0,1.31h5.32a.66.66,0,1,0,0-1.31" transform="translate(-2.66 -2.3)"/><path class="cls-7" d="M22.5,8.1H13.66a.66.66,0,0,0-.65.66V14.4H9.85a.65.65,0,0,0-.65.66v7.4a9.56,9.56,0,0,0,1.31.43V15.71h1.18a.66.66,0,0,0,.66.65h3.48a.65.65,0,0,0,.66-.65h1.18v6.47A9.61,9.61,0,0,0,19,21.42V15.06a.66.66,0,0,0-.66-.66h-4v-5H23A10.76,10.76,0,0,0,22.5,8.1m-.79,10.63h-1a.66.66,0,0,0-.66.66v1.18a10.23,10.23,0,0,0,1.63-1.84" transform="translate(-2.66 -2.3)"/></g></g></g></g></svg>