<?xml version="1.0" encoding="UTF-8"?><svg id="Layer_1" xmlns="http://www.w3.org/2000/svg" viewBox="0 0 50 50"><defs><style>.cls-1{fill:#ea4651;}.cls-2{fill:#231916;}.cls-3{fill:none;}</style></defs><rect class="cls-3" width="50" height="50"/><path class="cls-1" d="M17.89,31.23c7.12,0,12.89-5.87,12.89-13.11s-5.78-13.12-12.89-13.12S5,10.87,5,18.11s5.77,13.11,12.89,13.11"/><path class="cls-2" d="M20.53,13.88h5.76c.61-.61,1.08-1.23,1.38-1.69-.84-.15-2.69-.46-4.22-.46-1.61,0-3.38,.31-4.3,.46,.31,.46,.85,1.15,1.38,1.69m6.68,2.3h-7.6l-.31-.31c-.54-.54-2.38-2.3-2.61-3.76-.08-.84,.38-1.61,1.23-2l.15-.08c.08,0,2.76-.61,5.22-.61h.23c2.46,0,5.07,.61,5.15,.61l.15,.08c.92,.38,1.38,1.15,1.31,2-.15,1.46-2,3.23-2.61,3.76l-.31,.31Z"/><path class="cls-2" d="M26.99,27.86c.54,0,1,.46,1,1s-.46,1-1,1h-2.07v1.23c0,.69-.54,1.23-1.31,1.23-.69,0-1.31-.54-1.31-1.23v-1.23h-2c-.54,0-1-.46-1-1s.46-1,1-1h2v-1h-2c-.54,0-1-.46-1-1s.46-1,1-1h1.84c0-.08,.08-.15,.08-.15l-2.3-2.23c-.31-.31-.23-.84,.23-1.23,.38-.38,.92-.46,1.23-.23l2.23,2.23,2.07-2.23c.31-.38,1-.23,1.38,.15s.61,.77,.23,1.23l-2.38,2.46v.08h2.07c.54,0,1,.46,1,1s-.46,1-1,1h-2.07v1h2.07v-.08h.01Z"/><path class="cls-2" d="M20.23,16.42c-4.84,1.77-8.75,7.14-8.75,12.13,0,4.38,1.38,8.91,11.98,8.91,4.76,0,8.06-.92,9.91-2.76,1.38-1.38,2.07-3.38,2.07-6.14,0-4.99-3.92-10.37-8.75-12.13h-6.46Zm3.23,23.26c-9.6,0-14.28-3.69-14.28-11.21,0-5.99,4.61-12.29,10.44-14.36l.15-.08h7.14l.15,.08c5.91,2,10.44,8.37,10.44,14.36,0,3.38-.84,5.91-2.69,7.76-2.15,2.38-5.91,3.46-11.37,3.46"/></svg>