<?xml version="1.0" encoding="UTF-8"?><svg id="Layer_1" xmlns="http://www.w3.org/2000/svg" viewBox="0 0 50 50"><defs><style>.cls-1{fill:#ea4651;}.cls-2{fill:#231916;}.cls-3{fill:none;}</style></defs><rect class="cls-3" width="50" height="50"/><path class="cls-1" d="M17.89,31.23c7.12,0,12.89-5.87,12.89-13.11s-5.78-13.12-12.89-13.12S5,10.87,5,18.11s5.77,13.11,12.89,13.11"/><path class="cls-2" d="M32.1,38.43h-13.21c-2.99,0-5.4-2.41-5.4-5.4V16.11c0-2.99,2.41-5.4,5.4-5.4h13.64c2.99,0,5.4,2.41,5.4,5.4,0,.58-.51,1.09-1.1,1.09s-1.09-.51-1.09-1.09c0-1.75-1.46-3.21-3.21-3.21h-13.64c-1.75,0-3.21,1.46-3.21,3.21v16.92c0,1.75,1.46,3.21,3.21,3.21h13.28c1.97,0,3.57-1.61,3.57-3.58,0-.58,.51-1.09,1.09-1.09s1.1,.51,1.1,1.09c0,3.21-2.63,5.76-5.84,5.76"/><path class="cls-2" d="M31.59,29.09h-11.82c-.58,0-1.09-.51-1.09-1.09s.51-1.1,1.09-1.1h11.82c.58,0,1.09,.51,1.09,1.1s-.51,1.09-1.09,1.09m-.36-7.3h-11.46c-.58,0-1.09-.51-1.09-1.09s.51-1.09,1.09-1.09h11.45c.58,0,1.09,.51,1.09,1.09s-.51,1.09-1.09,1.09"/><path class="cls-2" d="M36.84,29.97c-.58,0-1.09-.51-1.09-1.09v-9.42c0-.58,.51-1.09,1.09-1.09s1.09,.51,1.09,1.09v9.34c0,.66-.51,1.17-1.09,1.17"/></svg>