<svg id="icon" xmlns="http://www.w3.org/2000/svg" xmlns:xlink="http://www.w3.org/1999/xlink" viewBox="0 0 24.68 25.63"><defs><style>.cls-1{fill:none;}.cls-2{clip-path:url(#clip-path);}.cls-3{fill:#0f5c5c;}.cls-4{fill:#eb4552;}.cls-5{fill:#0f1a1c;}</style><clipPath id="clip-path" transform="translate(-2.66 -2.18)"><rect class="cls-1" x="2.66" y="2.18" width="24.68" height="25.63"/></clipPath></defs><g class="cls-2"><path class="cls-3" d="M26,18.31H23.62V15.24a.67.67,0,0,0-.66-.66H15.9V12h2.28a.66.66,0,0,0,.66-.67v-1l2.54,1.54a.67.67,0,0,0,.34.1H26Zm-3.72,5.57H19.4a.66.66,0,0,0-.66.67V26l-3.28-2a.74.74,0,0,0-.35-.1H9.78v-8H22.29Zm4.39-13.26H21.91L18.52,8.56a.67.67,0,0,0-.67,0,.68.68,0,0,0-.33.58v1.49H15.24a.66.66,0,0,0-.66.66v3.3H9.12a.67.67,0,0,0-.67.66v9.31a.67.67,0,0,0,.67.66h5.81l4.13,2.51a.59.59,0,0,0,.34.1.66.66,0,0,0,.66-.67V25.21H23a.67.67,0,0,0,.66-.66V19.63h3.06a.66.66,0,0,0,.66-.66V11.28a.67.67,0,0,0-.66-.66" transform="translate(-2.66 -2.18)"/><path class="cls-3" d="M12.32,20.3l.12.06.12,0h.13a.67.67,0,0,0,.47-.19.7.7,0,0,0,.19-.47.67.67,0,0,0-.19-.47.63.63,0,0,0-.47-.2.65.65,0,0,0-.47.2.72.72,0,0,0-.14.21.5.5,0,0,0,0,.13.53.53,0,0,0,0,.13.7.7,0,0,0,.19.47l.1.08" transform="translate(-2.66 -2.18)"/><path class="cls-3" d="M16.18,20.41a.67.67,0,0,0,.67-.66.68.68,0,0,0-.67-.67.67.67,0,0,0-.47.2l-.08.1-.06.11a.5.5,0,0,0,0,.13.53.53,0,0,0,0,.13.65.65,0,0,0,.66.66" transform="translate(-2.66 -2.18)"/><path class="cls-3" d="M19.68,20.41a.66.66,0,0,0,.46-.19.67.67,0,0,0-.46-1.14.68.68,0,0,0-.67.67.67.67,0,0,0,.67.66" transform="translate(-2.66 -2.18)"/><path class="cls-4" d="M13.2,2.18h0a10.54,10.54,0,0,0-4.75,20V15.24a.67.67,0,0,1,.67-.66h5.46v-3.3a.66.66,0,0,1,.66-.66h2.28V9.13a.66.66,0,0,1,.33-.58.64.64,0,0,1,.33-.08.67.67,0,0,1,.34.09l3.39,2.06h1.62A10.55,10.55,0,0,0,13.2,2.18m5.64,8.13v1a.67.67,0,0,1-.66.67H15.9v2.63H23a.65.65,0,0,1,.55.3,10.21,10.21,0,0,0,.23-2.16c0-.26,0-.52,0-.77h-2a.67.67,0,0,1-.34-.1Zm3.45,5.6H9.78v6.78a10.54,10.54,0,0,0,12.51-4.64Zm-2.61,4.5a.67.67,0,0,1-.67-.66.68.68,0,0,1,.67-.67.66.66,0,0,1,.46,1.14.66.66,0,0,1-.46.19m-3.5,0a.65.65,0,0,1-.66-.66.53.53,0,0,1,0-.13.5.5,0,0,1,0-.13l.06-.11.08-.1a.67.67,0,0,1,.47-.2.68.68,0,0,1,.67.67.67.67,0,0,1-.67.66m-3.49,0h-.13l-.12,0-.12-.06-.1-.08a.7.7,0,0,1-.19-.47.53.53,0,0,1,0-.13.5.5,0,0,1,0-.13.72.72,0,0,1,.14-.21.65.65,0,0,1,.47-.2.63.63,0,0,1,.47.2.67.67,0,0,1,.19.47.7.7,0,0,1-.19.47.67.67,0,0,1-.47.19" transform="translate(-2.66 -2.18)"/><path class="cls-5" d="M18.18,8.47a.67.67,0,0,0-.33.08.68.68,0,0,0-.33.58v1.49H15.24a.66.66,0,0,0-.66.66v3.3H9.12a.67.67,0,0,0-.67.66v6.89a10.38,10.38,0,0,0,1.33.56V15.91H22.29v2.14a10.23,10.23,0,0,0,1.22-3.17.65.65,0,0,0-.55-.3H15.9V12h2.28a.66.66,0,0,0,.66-.67v-1l2.54,1.54a.67.67,0,0,0,.34.1h2a9.47,9.47,0,0,0-.18-1.33H21.91L18.52,8.56a.67.67,0,0,0-.34-.09" transform="translate(-2.66 -2.18)"/><path class="cls-5" d="M12.69,19.08a.65.65,0,0,0-.47.2.72.72,0,0,0-.14.21.5.5,0,0,0,0,.13.53.53,0,0,0,0,.13.7.7,0,0,0,.19.47l.1.08.12.06.12,0h.13a.67.67,0,0,0,.47-.19.7.7,0,0,0,.19-.47.67.67,0,0,0-.19-.47.63.63,0,0,0-.47-.2" transform="translate(-2.66 -2.18)"/><path class="cls-5" d="M16.18,19.08a.67.67,0,0,0-.47.2l-.08.1-.06.11a.5.5,0,0,0,0,.13.53.53,0,0,0,0,.13.65.65,0,0,0,.66.66.67.67,0,0,0,.67-.66.68.68,0,0,0-.67-.67" transform="translate(-2.66 -2.18)"/><path class="cls-5" d="M19.68,19.08a.68.68,0,0,0-.67.67.67.67,0,0,0,.67.66.66.66,0,0,0,.46-.19.67.67,0,0,0-.46-1.14" transform="translate(-2.66 -2.18)"/></g></svg>