<svg id="Layer_1" data-name="Layer 1" xmlns="http://www.w3.org/2000/svg" viewBox="0 0 86.75 22.85"><defs><style>.cls-1{fill:#707070;}.cls-2{fill:#e8e8e8;}.cls-3{fill:#b7b7b7;}</style></defs><polygon class="cls-1" points="0 0.13 0 22.44 11.85 22.44 11.85 18.62 4.36 18.62 4.36 12.66 11.6 12.66 11.6 8.97 4.26 8.97 4.26 4.04 11.85 4.04 11.85 0.13 0 0.13"/><path class="cls-1" d="M58.8,4V19.16a3.84,3.84,0,1,1-7.68,0V4H46.65V19.22c0,3.78,3.5,7.45,8.31,7.45s8.31-3.67,8.31-7.45V4Z" transform="translate(-7.99 -3.82)"/><path class="cls-2" d="M76.63,4H72.85L64.42,26.31H69l1.83-4.86h7.86l1.66,4.86h4.81ZM72.1,18l2.67-8.14L77.32,18Z" transform="translate(-7.99 -3.82)"/><circle class="cls-3" cx="81.94" cy="17.7" r="4.82"/><path class="cls-2" d="M33.46,22l-.3,0A6.93,6.93,0,1,1,40,15.07a5.12,5.12,0,0,1,0,.56,5.91,5.91,0,0,1,3.95,2A11.24,11.24,0,0,0,33.16,3.82a11.13,11.13,0,0,0-11,11.25,11.13,11.13,0,0,0,11,11.24,10.83,10.83,0,0,0,2.37-.26A5.92,5.92,0,0,1,33.46,22Z" transform="translate(-7.99 -3.82)"/><circle class="cls-3" cx="31.37" cy="17.7" r="4.82"/></svg>