<svg xmlns="http://www.w3.org/2000/svg" viewBox="0 0 161.23 210.29"><defs><style>.cls-1{isolation:isolate;}.cls-2{fill:#ed533e;}.cls-3{fill:#d3331e;}.cls-10,.cls-3{mix-blend-mode:multiply;}.cls-4{fill:#fff;}.cls-5,.cls-6,.cls-7,.cls-8,.cls-9{fill:none;stroke:#fff;stroke-miterlimit:10;}.cls-5{opacity:0.5;}.cls-6{stroke-width:2.5px;}.cls-7{stroke-width:1.75px;}.cls-9{stroke-width:0.5px;}.cls-10{fill:#a51e14;}.cls-11{fill:#9e1500;}</style></defs><g class="cls-1"><g id="logo"><polygon class="cls-2" points="15 0 2 0 0 161.23 15 161.23 15 0"/><rect class="cls-2" x="129.98" width="14.25" height="161.23"/><polygon class="cls-2" points="161.22 161.23 159.22 0 146.22 0 146.22 161.23 161.22 161.23"/><rect class="cls-2" x="97.48" width="15.25" height="161.23"/><rect class="cls-2" x="113.73" width="14.75" height="161.23"/><rect class="cls-2" x="32.75" width="14.75" height="161.23"/><rect class="cls-2" x="17" width="14.25" height="161.23"/><rect class="cls-2" x="48.5" width="15.25" height="161.23"/><polygon class="cls-2" points="96.97 161.23 96.97 0 80.61 0 64.25 0 64.25 161.23 96.97 161.23"/><rect class="cls-3" x="17" width="14.25" height="161.23"/><polyline class="cls-3" points="0 161.23 15 161.23 15 0 2 0"/><rect class="cls-3" x="17" y="11.23" width="14.25" height="150"/><rect class="cls-3" x="32.75" y="11.23" width="14.54" height="150"/><polygon class="cls-4" points="146.47 0 143.97 0 143.97 0 143.97 161.23 143.97 161.23 146.47 161.23 146.47 161.23 146.47 0 146.47 0"/><rect class="cls-3" x="113.73" y="20.87" width="14.75" height="140.36"/><rect class="cls-3" x="97.48" y="20.87" width="15.25" height="140.36"/><rect class="cls-3" x="129.98" y="20.87" width="14" height="140.36"/><path class="cls-5" d="M120.45,163.58" transform="translate(-1.67 -2.35)"/><path class="cls-5" d="M120.45,102.07" transform="translate(-1.67 -2.35)"/><path class="cls-5" d="M29,163.58" transform="translate(-1.67 -2.35)"/><path class="cls-5" d="M29,31.09" transform="translate(-1.67 -2.35)"/><rect class="cls-3" x="113.73" y="111.23" width="14.63" height="50"/><rect class="cls-3" x="97.48" y="111.23" width="15.25" height="50"/><rect class="cls-3" x="93.27" y="111.23" width="3.7" height="50"/><rect class="cls-3" x="129.98" y="51.23" width="14.25" height="110"/><path class="cls-3" d="M161.53,53.58H147.9v110h15S162.37,111.2,161.53,53.58Z" transform="translate(-1.67 -2.35)"/><rect class="cls-3" x="32.75" y="41.04" width="14.75" height="120.18"/><rect class="cls-3" x="64.25" y="41.04" width="11.98" height="120.18"/><rect class="cls-3" x="48.5" y="41.04" width="15.25" height="120.18"/><rect class="cls-3" x="17" y="91.23" width="14.25" height="70"/><rect class="cls-3" x="32.75" y="91.23" width="14.75" height="70"/><rect class="cls-3" x="48.5" y="91.23" width="15.25" height="70"/><polygon class="cls-3" points="161.22 161.23 159.22 0 146.22 0 146.22 161.23 161.22 161.23"/><rect class="cls-3" x="113.73" width="14.75" height="161.23"/><rect class="cls-3" x="129.98" width="14.25" height="161.23"/><line class="cls-6" x1="145.23" y1="161.23" x2="145.23"/><line class="cls-7" x1="129.23" y1="161.23" x2="129.23"/><line class="cls-8" x1="113.23" y1="161.23" x2="113.23"/><line class="cls-9" x1="97.23" y1="161.23" x2="97.23"/><line class="cls-6" x1="16" y1="161.23" x2="16"/><line class="cls-7" x1="32" y1="161.23" x2="32"/><line class="cls-8" x1="48" y1="161.23" x2="48"/><line class="cls-9" x1="64" y1="161.23" x2="64"/><circle class="cls-4" cx="80.61" cy="26.51" r="11.09"/><circle class="cls-4" cx="80.61" cy="98.65" r="30.32"/><rect class="cls-4" x="64" y="120.61" width="33.23" height="40.62"/><rect class="cls-4" x="74.59" y="29.67" width="12.05" height="52.35"/><rect class="cls-4" x="77.53" width="6.16" height="24.15"/><path class="cls-10" d="M99.15,127.12s-3.22-4.65-16.86-5.45c0,0,11.29-.44,18.53,3.43,0,0-1.3.89-1.67,1.07Z" transform="translate(-1.67 -2.35)"/><polygon class="cls-11" points="86.64 142.4 84.7 140.4 76.96 140.4 74.59 142.4 74.59 128.97 86.64 128.97 86.64 142.4"/><rect class="cls-11" x="74.59" y="151.72" width="12.05" height="9.5"/><path class="cls-4" d="M11.18,172.3q4.52,0,6.67,2.69a11.19,11.19,0,0,1,2.14,7.2v1.07H15.81V182a7.05,7.05,0,0,0-1.07-4.18,4,4,0,0,0-3.45-1.47,4,4,0,0,0-3.45,1.47,7,7,0,0,0-1.07,4.13,7.27,7.27,0,0,0,1,3.84,14.29,14.29,0,0,0,2.46,3,39.43,39.43,0,0,0,3.19,2.71,26,26,0,0,1,3.19,2.92A15,15,0,0,1,19.06,198a10.7,10.7,0,0,1,1,4.78,11.1,11.1,0,0,1-2.18,7.2q-2.17,2.68-6.75,2.69T4.4,210a11.15,11.15,0,0,1-2.15-7.2V200.5H6.37V203a6.78,6.78,0,0,0,1.13,4.19A4.16,4.16,0,0,0,11,208.64a4.13,4.13,0,0,0,3.5-1.47A6.72,6.72,0,0,0,15.64,203a7.14,7.14,0,0,0-1-3.81,14.65,14.65,0,0,0-2.46-3c-1-.93-2-1.83-3.16-2.72a26.33,26.33,0,0,1-3.16-2.91A14.83,14.83,0,0,1,3.41,187a10.63,10.63,0,0,1-1-4.77A11.13,11.13,0,0,1,4.57,175Q6.72,172.31,11.18,172.3Z" transform="translate(-1.67 -2.35)"/><path class="cls-4" d="M27.73,194.45v17.8h-4.4V172.7h4.4v17.8h9.72V172.7h4.41v39.55H37.45v-17.8Z" transform="translate(-1.67 -2.35)"/><path class="cls-4" d="M50.28,204.28l-1.53,8H44.69l7.57-39.55h6.38l7.58,39.55H61.81l-1.53-8Zm.57-3.78h8.81L55.2,177.67Z" transform="translate(-1.67 -2.35)"/><path class="cls-4" d="M73,212.25H69V172.7h5.6l9.15,28.59V172.7h3.9v39.55H83.11L73,180.27Z" transform="translate(-1.67 -2.35)"/><path class="cls-4" d="M100.18,172.3q4.57,0,6.75,2.71a11.24,11.24,0,0,1,2.17,7.24v3.39h-4.18V182a7,7,0,0,0-1.1-4.21,4.87,4.87,0,0,0-7,0A6.82,6.82,0,0,0,95.66,182v20.91a6.82,6.82,0,0,0,1.13,4.21,4.87,4.87,0,0,0,7,0,7,7,0,0,0,1.1-4.21V195h-4.07v-4h8.25V202.7a11.24,11.24,0,0,1-2.17,7.24c-1.45,1.8-3.7,2.71-6.75,2.71s-5.25-.91-6.7-2.71a11.24,11.24,0,0,1-2.18-7.24V182.25a14.49,14.49,0,0,1,.54-4.1A8.62,8.62,0,0,1,93.48,175a7.32,7.32,0,0,1,2.77-2A10,10,0,0,1,100.18,172.3Z" transform="translate(-1.67 -2.35)"/><path class="cls-4" d="M117.13,194.45v17.8h-4.41V172.7h4.41v17.8h9.72V172.7h4.41v39.55h-4.41v-17.8Z" transform="translate(-1.67 -2.35)"/><path class="cls-4" d="M139.67,204.28l-1.52,8h-4.07l7.57-39.55H148l7.57,39.55H151.2l-1.52-8Zm.57-3.78h8.82l-4.47-22.83Z" transform="translate(-1.67 -2.35)"/><path class="cls-4" d="M162.9,172.7v39.55h-4.41V172.7Z" transform="translate(-1.67 -2.35)"/></g></g></svg>