<svg id="Layer_1" data-name="Layer 1" xmlns="http://www.w3.org/2000/svg" viewBox="0 0 84.78 24.5"><defs><style>.cls-1{fill:#e8e8e8;}.cls-1,.cls-2{fill-rule:evenodd;}.cls-2,.cls-3{fill:#c4c4c4;}</style></defs><polygon class="cls-1" points="0 0 8.86 0 0 8.2 0 0"/><path class="cls-2" d="M35.24,14.75c0-.1.28-.37.36-.45a2.94,2.94,0,0,0,.34-.47,4.48,4.48,0,0,0,.33-.48,5,5,0,0,0,.25-.52,8,8,0,0,0,.56-2.63v-.15L37,8.77c-.11,0-.17-.32-.22-.44s-.21-.37-.21-.41V7.81c-.12,0-.23-.27-.35-.39l-.37-.36A5,5,0,0,0,35,6.45a7.28,7.28,0,0,0-2.17-.7H25.44c-.12.55-.24,1-.37,1.61A14.91,14.91,0,0,0,24.71,9v.11h-.07v.29h-.08a10.14,10.14,0,0,1-.31,1.59,9.62,9.62,0,0,0-.35,1.53v.11c-.15.06-.22.69-.22.88h-.07v.15c0,.45-.37,1.18-.37,1.69l-.08.1-.19,1h8.46a3.88,3.88,0,0,0,1.18-.2c.35-.12.7-.33,1-.41a4.54,4.54,0,0,0,.89-.5,4.36,4.36,0,0,0,.42-.28c.11-.12.17-.27.37-.29Zm-7.08-1,1.37-5.51h1.38a1.25,1.25,0,0,1,.48.22c.14.11.35.12.37.29h.11c.3,0,.84.93.84,1.29v1a2.87,2.87,0,0,1-.32,1,.94.94,0,0,1-.14.19c-.09.1,0,.1-.1.23a4.5,4.5,0,0,1-.28.37,3.06,3.06,0,0,1-1.77.89Z" transform="translate(-7.42 -2.75)"/><path class="cls-2" d="M91.22,9.53a12.61,12.61,0,0,1,.43-1.87c.1-.31.11-.63.2-.94a3.36,3.36,0,0,0,.25-.89H88.9l-1.53,5.06h-.05l-.14.67L87,11.29l-1.9-5.45H80.28v.29C80.14,6.18,80,7,80,7.23c-.11.37-.18.73-.27,1.12-.19.74-.41,1.51-.58,2.25a19.14,19.14,0,0,1-.56,2.26c-.08.23-.54,2.06-.54,2.25v.11c-.12,0-.18.51-.21.64s-.21.57,0,.57h3a.54.54,0,0,0,.19,0v-.11s.34-1.31.38-1.42a10.75,10.75,0,0,0,.35-1.41h.08v-.18c0-.16.07-.13.07-.29v-.11h.07l.2-.82c0-.19,0-.41.17-.47l.1-.66a1.62,1.62,0,0,1,.27.66v.11c.13.05.3.79.39,1s.34,1,.34,1v.11c.16.06.22.49.28.67a6.84,6.84,0,0,1,.23.68v.11a5.17,5.17,0,0,1,.52,1.25h5.06l1.71-6.82h.06Z" transform="translate(-7.42 -2.75)"/><path class="cls-2" d="M71.57,5.75l0,0h-4.7c-.09,0-1.47,1.41-1.68,1.58A10.43,10.43,0,0,0,63.54,9h-.15V8.76h.08V8.65c0-.3.36-1.18.36-1.5V7h.08V6.86c0-.21.07-.21.07-.44h.07l.13-.66H59.72c-.15,0-.24.73-.29.92s-.15.61-.24.93c-.17.63-.28,1.29-.46,1.89s-.28,1.3-.46,1.93c-.08.29-.45,1.7-.45,1.9v.14h-.08v.11c0,.16-.07.14-.07.3v.18H57.6v.29c-.13.05-.15.32-.15.48v.11h-.08v.29H57.3v.3h-.07v.14c0,.25-.15.46-.15.77h4.37a.48.48,0,0,0,.18,0v-.11c0-.42.3-1,.3-1.54v-.11H62v-.19c0-.16.07-.13.07-.29v-.11h.08v-.11l.1-.7h.12l1,1.37,0,0c.14,0,.3.31.38.42a4.17,4.17,0,0,0,.36.45,5.85,5.85,0,0,1,.66.92h5.06C69.55,16,68,14,68,13.76c-.21,0-.23-.23-.32-.38s-.27-.35-.27-.39v-.11c-.23,0-.53-.75-.7-.92a5,5,0,0,1-.62-1c0-.12,1.6-1.46,1.62-1.65.16,0,.66-.57.82-.72s.61-.54.79-.75l.39-.37c.17-.15.23-.25.38-.39s.65-.7.82-.73Z" transform="translate(-7.42 -2.75)"/><path class="cls-2" d="M40.27,14.45l.18,0h3.71l.4,2h4.67c0-.23-.21-1.34-.27-1.6-.11-.42-.16-1.25-.27-1.57s-.56-2.85-.56-3.14V9.94h-.08V9.79c0-.45-.29-1.26-.29-1.72V7.88h-.07V7.77l-.33-2H42c-.09.24-1,1.71-1,1.73v.11l-.48.79-.16.38h-.1v.11s-.71,1.34-.79,1.46-.33.59-.38.71-.12.19-.2.36-.08.28-.24.3v.11c0,.1-1.1,2-1.24,2.32a11.19,11.19,0,0,1-.61,1.15,8.06,8.06,0,0,0-.61,1.15h2.86a.48.48,0,0,0,.18,0,9,9,0,0,1,.59-1.07v-.11l0,0,.38-.63,0-.17Zm1.52-2.54,1.53-2.43c.06.15.11.14.11.28v.18h.07v.11c0,.45.37,1.4.37,1.8V12l-1.65-.05Z" transform="translate(-7.42 -2.75)"/><path class="cls-2" d="M78.31,5.76H73.67c-.12,0,0,0-.18.08l-.07.3h0v.15c0,.17-.1.68-.22.73v.15a10.47,10.47,0,0,1-.35,1.42A12.05,12.05,0,0,0,72.5,10l-.08.11-.08.51-.07.11L72,11.89c0,.5-.5,1.84-.61,2.39a11.06,11.06,0,0,1-.27,1.2c0,.17-.08.4-.14.59s-.25.28-.29.44c.15,0,.06.07.18.07s.06,0,.08-.11h4.69V16.4h.08v-.15c0-.25.22-.71.22-.92v-.11H76v-.11c0-.16,0-.42.15-.47v-.19c0-.16.22-.76.22-.88v-.11h.07v-.18c0-.2.42-1.67.5-2a14.42,14.42,0,0,0,.45-2h.08L78,7.14Z" transform="translate(-7.42 -2.75)"/><path class="cls-2" d="M57.45,6.31a4.77,4.77,0,0,1,.11-.59H52.75v.14a9.27,9.27,0,0,0-.29,1.29h-.08v.11c0,.06-.69,2.92-.73,3s-.73,3-.73,3v.18h-.08v.11c0,.14-.22.71-.22.88v.19h-.07v.11c0,.1-.39,1.58-.44,1.68H55l0,0,.49-2a1.81,1.81,0,0,0,.12-.52v-.14h.07v-.3h.08v-.14c0-.21.07-.21.07-.44h.07c0-.24.08-.24.08-.45v-.14H56v-.15c0-.21.07-.2.07-.44h.08v-.29h.07v-.3h.07V11a7.15,7.15,0,0,1,.19-.84c0-.16.1-.72.25-.78V9.2c0-.19.27-1.13.33-1.39a9.3,9.3,0,0,0,.33-1.39h.08Z" transform="translate(-7.42 -2.75)"/><polygon class="cls-2" points="8.98 0 17.92 0 0 16.74 0 8.38 8.98 0"/><path class="cls-3" d="M8.87,25.41H10l-.43-1-.08-.21c0-.08,0-.17-.07-.27,0,.09,0,.18-.08.26a1.13,1.13,0,0,1-.08.22l-.42,1Zm1.87,1.67L10.27,26H8.61l-.48,1.09H7.42l2-4.42,2,4.42Z" transform="translate(-7.42 -2.75)"/><rect class="cls-3" x="6.48" y="20.08" width="0.68" height="4.25"/><path class="cls-3" d="M18.26,24.64h.12a1.45,1.45,0,0,0,.72-.12.53.53,0,0,0,.18-.46.59.59,0,0,0-.19-.49,1.23,1.23,0,0,0-.71-.15h-.12v1.22Zm0,.54v1.9h-.64V22.83h1a2.66,2.66,0,0,1,.64.06.87.87,0,0,1,.4.18,1,1,0,0,1,.3.4A1.32,1.32,0,0,1,20,24a1.21,1.21,0,0,1-.24.8,1.08,1.08,0,0,1-.72.35l1.44,1.93h-.77l-1.39-1.9Z" transform="translate(-7.42 -2.75)"/><path class="cls-3" d="M30,23.87a1.85,1.85,0,0,0-1.28-.5,1.48,1.48,0,0,0-1.12.44A1.64,1.64,0,0,0,27.2,25a1.61,1.61,0,0,0,.42,1.14,1.37,1.37,0,0,0,1.06.44,1.85,1.85,0,0,0,.7-.13A2.24,2.24,0,0,0,30,26v.78a2.41,2.41,0,0,1-.6.3,2.63,2.63,0,0,1-.7.1,2.56,2.56,0,0,1-.89-.16,2.11,2.11,0,0,1-1.18-1.19,2.38,2.38,0,0,1-.17-.88,2.3,2.3,0,0,1,.17-.88,2.09,2.09,0,0,1,.47-.72,2.16,2.16,0,0,1,.72-.48,2.28,2.28,0,0,1,.87-.16,2.3,2.3,0,0,1,1.35.44Z" transform="translate(-7.42 -2.75)"/><path class="cls-3" d="M36.48,25a1.63,1.63,0,0,0-.12-.62,1.4,1.4,0,0,0-.33-.51,1.42,1.42,0,0,0-.49-.35,1.48,1.48,0,0,0-.59-.12,1.43,1.43,0,0,0-.58.12,1.56,1.56,0,0,0-.5.35,1.72,1.72,0,0,0-.33.51,1.8,1.8,0,0,0-.11.62,1.83,1.83,0,0,0,.11.61,1.72,1.72,0,0,0,.33.51,1.56,1.56,0,0,0,.5.35,1.43,1.43,0,0,0,.58.11,1.47,1.47,0,0,0,.59-.11,1.64,1.64,0,0,0,.49-.35,1.36,1.36,0,0,0,.33-.52,1.53,1.53,0,0,0,.12-.6Zm.71,0a2.22,2.22,0,0,1-.17.85,2.05,2.05,0,0,1-.49.72,2.19,2.19,0,0,1-.72.49,2.27,2.27,0,0,1-.86.17,2.31,2.31,0,0,1-.86-.17,2.36,2.36,0,0,1-.72-.49,2.23,2.23,0,0,1-.48-.71,2.27,2.27,0,0,1-.17-.86,2.24,2.24,0,0,1,.17-.86,2.31,2.31,0,0,1,.48-.73A2.21,2.21,0,0,1,35,22.74a2.23,2.23,0,0,1,.86.16A2.24,2.24,0,0,1,37,24.11,2.27,2.27,0,0,1,37.19,25Z" transform="translate(-7.42 -2.75)"/><path class="cls-3" d="M40,27.08V22.66l2.66,2.6.22.24c.07.08.15.17.23.28v-3h.63v4.42L41,24.6l-.21-.22-.19-.25v2.95Z" transform="translate(-7.42 -2.75)"/><path class="cls-3" d="M47.4,26.46H48a3.16,3.16,0,0,0,.71-.06,1.25,1.25,0,0,0,.41-.22,1.41,1.41,0,0,0,.35-.51,2.19,2.19,0,0,0,0-1.43,1.41,1.41,0,0,0-.35-.51,1.17,1.17,0,0,0-.43-.22,3.53,3.53,0,0,0-.77-.06H47.4v3Zm-.68.62V22.83h.91a6,6,0,0,1,1.26.09,1.66,1.66,0,0,1,.64.31,1.78,1.78,0,0,1,.55.72,2.67,2.67,0,0,1,.19,1,2.58,2.58,0,0,1-.19,1,1.75,1.75,0,0,1-.55.73,1.7,1.7,0,0,1-.62.3,4.84,4.84,0,0,1-1.09.09h-1.1Z" transform="translate(-7.42 -2.75)"/><rect class="cls-3" x="45.67" y="20.08" width="0.68" height="4.25"/><polygon class="cls-3" points="50.71 20.67 50.71 24.33 50.03 24.33 50.03 20.67 48.92 20.67 48.92 20.08 51.81 20.08 51.81 20.67 50.71 20.67"/><rect class="cls-3" x="54.37" y="20.08" width="0.68" height="4.25"/><path class="cls-3" d="M69.05,25a1.63,1.63,0,0,0-.12-.62,1.72,1.72,0,0,0-.33-.51,1.42,1.42,0,0,0-.49-.35,1.48,1.48,0,0,0-.59-.12,1.43,1.43,0,0,0-.58.12,1.56,1.56,0,0,0-.5.35,1.72,1.72,0,0,0-.33.51A1.8,1.8,0,0,0,66,25a1.83,1.83,0,0,0,.11.61,1.72,1.72,0,0,0,.33.51,1.56,1.56,0,0,0,.5.35,1.43,1.43,0,0,0,.58.11,1.4,1.4,0,0,0,.58-.11,1.56,1.56,0,0,0,.5-.35,1.65,1.65,0,0,0,.33-.52,1.53,1.53,0,0,0,.12-.6Zm.71,0a2.22,2.22,0,0,1-.17.85,2.05,2.05,0,0,1-.49.72,2.23,2.23,0,0,1-1.58.66,2.31,2.31,0,0,1-.86-.17,2.36,2.36,0,0,1-.72-.49A2.08,2.08,0,0,1,65.29,25a2.23,2.23,0,0,1,.16-.86,2.34,2.34,0,0,1,.49-.73,2.16,2.16,0,0,1,.72-.48,2.27,2.27,0,0,1,.86-.16,2.23,2.23,0,0,1,.86.16,2.24,2.24,0,0,1,1.21,1.21A2.27,2.27,0,0,1,69.76,25Z" transform="translate(-7.42 -2.75)"/><path class="cls-3" d="M72.56,27.08V22.66l2.66,2.6.22.24c.07.08.15.17.23.28v-3h.63v4.42L73.59,24.6l-.21-.22c-.07-.08-.13-.17-.19-.25v2.95Z" transform="translate(-7.42 -2.75)"/><polygon class="cls-3" points="71.87 24.33 71.87 20.08 74.2 20.08 74.2 20.67 72.55 20.67 72.55 21.73 74.2 21.73 74.2 22.34 72.55 22.34 72.55 23.71 74.2 23.71 74.2 24.33 71.87 24.33"/><path class="cls-3" d="M85.11,24.64h.12a1.45,1.45,0,0,0,.72-.12.72.72,0,0,0,0-.95,1.17,1.17,0,0,0-.7-.15h-.12v1.22Zm0,.54v1.9h-.63V22.83h.95a2.66,2.66,0,0,1,.64.06.79.79,0,0,1,.39.18,1,1,0,0,1,.3.4,1.32,1.32,0,0,1,.11.53,1.21,1.21,0,0,1-.24.8,1.08,1.08,0,0,1-.72.35l1.44,1.93h-.77l-1.39-1.9Z" transform="translate(-7.42 -2.75)"/><path class="cls-3" d="M89.49,26.23,90,26a.74.74,0,0,0,.29.43.84.84,0,0,0,.52.15.69.69,0,0,0,.48-.17.62.62,0,0,0,.18-.46c0-.25-.2-.47-.61-.67l-.13-.06a3,3,0,0,1-.92-.62,1,1,0,0,1-.23-.68,1.05,1.05,0,0,1,.35-.84,1.24,1.24,0,0,1,.9-.32,1.55,1.55,0,0,1,.78.18.92.92,0,0,1,.43.52l-.53.28a1,1,0,0,0-.28-.3.71.71,0,0,0-.78.06.47.47,0,0,0-.16.39c0,.25.24.49.71.71l.08,0a2.44,2.44,0,0,1,.86.57,1,1,0,0,1,.23.69,1.27,1.27,0,0,1-.38,1,1.39,1.39,0,0,1-1,.36,1.49,1.49,0,0,1-.87-.25A1.18,1.18,0,0,1,89.49,26.23Z" transform="translate(-7.42 -2.75)"/></svg>