<svg xmlns="http://www.w3.org/2000/svg" viewBox="0 0 53.38 87.25"><defs><style>.cls-1{isolation:isolate;}.cls-2{opacity:0.8;}.cls-3{fill:#bfbfbf;}.cls-4{fill:#a0a0a0;}.cls-4,.cls-7{mix-blend-mode:multiply;}.cls-5{fill:#fff;}.cls-6{fill:none;stroke:#fff;stroke-miterlimit:10;opacity:0.5;}.cls-7{fill:#858585;}.cls-8{fill:#484848;}</style></defs><g class="cls-1"><g id="logo"><g class="cls-2"><polygon class="cls-3" points="5.44 0 1.19 0 0.53 52.72 5.44 52.72 5.44 0"/><rect class="cls-3" x="43.03" width="4.66" height="52.72"/><polygon class="cls-3" points="53.25 52.72 52.6 0 48.34 0 48.34 52.72 53.25 52.72"/><rect class="cls-3" x="32.4" width="4.99" height="52.72"/><rect class="cls-3" x="37.72" width="4.82" height="52.72"/><rect class="cls-3" x="11.24" width="4.82" height="52.72"/><rect class="cls-3" x="6.09" width="4.66" height="52.72"/><rect class="cls-3" x="16.39" width="4.99" height="52.72"/><polygon class="cls-3" points="32.24 52.72 32.24 0 26.89 0 21.54 0 21.54 52.72 32.24 52.72"/><rect class="cls-4" x="6.09" width="4.66" height="52.72"/><polyline class="cls-4" points="0.53 52.72 5.44 52.72 5.44 0 1.19 0"/><rect class="cls-4" x="6.09" y="3.67" width="4.66" height="49.05"/><rect class="cls-4" x="11.24" y="3.67" width="4.75" height="49.05"/><polygon class="cls-5" points="48.43 0 47.61 0 47.61 0 47.61 52.72 47.61 52.72 48.43 52.72 48.43 52.72 48.43 0 48.43 0"/><rect class="cls-4" x="37.72" y="6.82" width="4.82" height="45.9"/><rect class="cls-4" x="32.4" y="6.82" width="4.99" height="45.9"/><rect class="cls-4" x="43.03" y="6.82" width="4.58" height="45.9"/><path class="cls-6" d="M62.68,57.44" transform="translate(-23.31 -4.72)"/><path class="cls-6" d="M62.68,37.33" transform="translate(-23.31 -4.72)"/><path class="cls-6" d="M32.79,57.44" transform="translate(-23.31 -4.72)"/><path class="cls-6" d="M32.79,14.12" transform="translate(-23.31 -4.72)"/><rect class="cls-4" x="37.72" y="36.37" width="4.78" height="16.35"/><rect class="cls-4" x="32.4" y="36.37" width="4.99" height="16.35"/><rect class="cls-4" x="31.03" y="36.37" width="1.21" height="16.35"/><rect class="cls-4" x="43.03" y="16.75" width="4.66" height="35.97"/><path class="cls-4" d="M76.34,21.47H71.66v36h4.9S76.61,40.32,76.34,21.47Z" transform="translate(-23.31 -4.72)"/><rect class="cls-4" x="11.24" y="13.42" width="4.82" height="39.3"/><rect class="cls-4" x="21.54" y="13.42" width="3.92" height="39.3"/><rect class="cls-4" x="16.39" y="13.42" width="4.99" height="39.3"/><rect class="cls-4" x="6.09" y="29.83" width="4.66" height="22.89"/><rect class="cls-4" x="11.24" y="29.83" width="4.82" height="22.89"/><rect class="cls-4" x="16.39" y="29.83" width="4.99" height="22.89"/><polygon class="cls-4" points="53.25 52.72 52.6 0 48.34 0 48.34 52.72 53.25 52.72"/><rect class="cls-4" x="37.72" width="4.82" height="52.72"/><rect class="cls-4" x="43.03" width="4.66" height="52.72"/><rect class="cls-5" x="47.61" width="0.82" height="52.72"/><rect class="cls-5" x="42.5" width="0.57" height="52.72"/><rect class="cls-5" x="37.39" width="0.33" height="52.72"/><rect class="cls-5" x="32.24" width="0.16" height="52.72"/><rect class="cls-5" x="5.35" width="0.82" height="52.72"/><rect class="cls-5" x="10.71" width="0.57" height="52.72"/><rect class="cls-5" x="16.06" width="0.33" height="52.72"/><rect class="cls-5" x="21.38" width="0.16" height="52.72"/><circle class="cls-5" cx="26.89" cy="8.67" r="3.63"/><circle class="cls-5" cx="26.89" cy="32.26" r="9.91"/><rect class="cls-5" x="21.46" y="39.44" width="10.86" height="13.28"/><rect class="cls-5" x="24.92" y="9.7" width="3.94" height="17.12"/><rect class="cls-5" x="25.88" width="2.02" height="7.9"/><path class="cls-7" d="M55.72,45.52S54.66,44,50.2,43.74a14.31,14.31,0,0,1,6.06,1.12s-.42.29-.54.35Z" transform="translate(-23.31 -4.72)"/><polygon class="cls-8" points="28.86 46.56 28.23 45.91 25.7 45.91 24.92 46.56 24.92 42.17 28.86 42.17 28.86 46.56"/><rect class="cls-8" x="24.92" y="49.61" width="3.94" height="3.11"/></g><g class="cls-2"><path class="cls-5" d="M24,60h3.9c2.68,0,3.84,1.25,3.84,3.79v.66c0,1.69-.52,2.75-1.67,3.22v0c1.38.47,1.93,1.69,1.93,3.43v1.41c0,2.55-1.35,3.91-3.93,3.91H24Zm3.6,6.7c1,0,1.55-.42,1.55-1.74v-.91c0-1.18-.4-1.7-1.32-1.7H26.57V66.7Zm.47,7.42c.87,0,1.34-.4,1.34-1.63V71.06c0-1.53-.5-2-1.67-2H26.57v5.06Z" transform="translate(-23.31 -4.72)"/><path class="cls-5" d="M32.77,72.56v-.94h2.45v1.13c0,1.18.52,1.6,1.34,1.6s1.34-.42,1.34-1.64-.52-2.24-2.21-3.72c-2.17-1.91-2.87-3.25-2.87-5.13,0-2.59,1.34-4.1,3.86-4.1s3.76,1.51,3.76,4.14v.69H38v-.85c0-1.18-.48-1.62-1.3-1.62s-1.29.44-1.29,1.57.54,2.07,2.23,3.56c2.17,1.9,2.85,3.22,2.85,5.27,0,2.68-1.37,4.19-3.91,4.19S32.77,75.2,32.77,72.56Z" transform="translate(-23.31 -4.72)"/><path class="cls-5" d="M41.65,74.68c0-2.35.66-3.79,2.59-5.81s2.54-3.34,2.54-4.87-.52-1.88-1.34-1.88-1.34.44-1.34,1.62V65.5H41.65V63.9c0-2.63,1.32-4.14,3.86-4.14s3.86,1.51,3.86,4.14c0,2-.8,3.7-3.2,6.24-1.55,1.65-2,2.47-2,3.62v.36h4.91v2.35H41.65Z" transform="translate(-23.31 -4.72)"/><path class="cls-5" d="M50.65,72.56V63.9c0-2.63,1.39-4.14,3.93-4.14s3.93,1.51,3.93,4.14v8.66c0,2.64-1.39,4.15-3.93,4.15S50.65,75.2,50.65,72.56Zm5.27.17v-9c0-1.18-.52-1.62-1.34-1.62s-1.34.44-1.34,1.62v9c0,1.18.52,1.62,1.34,1.62S55.92,73.91,55.92,72.73Z" transform="translate(-23.31 -4.72)"/><path class="cls-5" d="M59.93,74.68c0-2.35.66-3.79,2.59-5.81s2.54-3.34,2.54-4.87-.52-1.88-1.34-1.88-1.34.44-1.34,1.62V65.5H59.93V63.9c0-2.63,1.32-4.14,3.86-4.14s3.86,1.51,3.86,4.14c0,2-.8,3.7-3.2,6.24-1.56,1.65-2,2.47-2,3.62v.36h4.92v2.35H59.93Z" transform="translate(-23.31 -4.72)"/><path class="cls-5" d="M68.93,72.61V71.27h2.44v1.46c0,1.18.52,1.62,1.35,1.62s1.34-.4,1.34-1.86V71.15c0-1.53-.52-2.09-1.7-2.09h-.87V66.7h.94c1,0,1.56-.42,1.56-1.74v-1.2c0-1.17-.54-1.64-1.3-1.64s-1.24.44-1.24,1.53v1.08H69v-.87c0-2.64,1.32-4.1,3.79-4.1s3.79,1.44,3.79,4.07v.59c0,1.77-.57,2.85-1.84,3.32v.05c1.39.52,1.91,1.72,1.91,3.39v1.45c0,2.64-1.32,4.08-3.86,4.08S68.93,75.25,68.93,72.61Z" transform="translate(-23.31 -4.72)"/><path class="cls-5" d="M26.28,78.57a2.66,2.66,0,0,1,2.21.89,3.7,3.7,0,0,1,.72,2.39v.36H27.82v-.43a2.32,2.32,0,0,0-.36-1.39,1.58,1.58,0,0,0-2.29,0,2.28,2.28,0,0,0-.36,1.37A2.44,2.44,0,0,0,25.14,83,4.55,4.55,0,0,0,26,84a11.92,11.92,0,0,0,1.06.9,9.75,9.75,0,0,1,1.06,1,4.94,4.94,0,0,1,.82,1.19,3.58,3.58,0,0,1,.33,1.59,3.69,3.69,0,0,1-.73,2.39,2.7,2.7,0,0,1-2.24.89A2.66,2.66,0,0,1,24,91.08a3.68,3.68,0,0,1-.72-2.39v-.75h1.37v.82a2.23,2.23,0,0,0,.38,1.39,1.63,1.63,0,0,0,2.33,0,2.23,2.23,0,0,0,.37-1.39,2.34,2.34,0,0,0-.33-1.26,5.08,5.08,0,0,0-.81-1c-.33-.3-.68-.61-1.06-.9a9.58,9.58,0,0,1-1-1,5,5,0,0,1-.81-1.19,3.52,3.52,0,0,1-.33-1.59,3.75,3.75,0,0,1,.71-2.4A2.66,2.66,0,0,1,26.28,78.57Z" transform="translate(-23.31 -4.72)"/><path class="cls-5" d="M31.78,85.93v5.91H30.31V78.7h1.47v5.91H35V78.7h1.46V91.84H35V85.93Z" transform="translate(-23.31 -4.72)"/><path class="cls-5" d="M39.27,89.2l-.51,2.64H37.41L39.93,78.7h2.12l2.51,13.14H43.1l-.51-2.64Zm.19-1.26h2.93L40.9,80.35Z" transform="translate(-23.31 -4.72)"/><path class="cls-5" d="M46.82,91.84H45.5V78.7h1.86l3,9.5V78.7h1.3V91.84H50.18L46.82,81.22Z" transform="translate(-23.31 -4.72)"/><path class="cls-5" d="M55.85,78.57a2.7,2.7,0,0,1,2.24.9,3.73,3.73,0,0,1,.72,2.4V83H57.43V81.8a2.35,2.35,0,0,0-.37-1.4,1.62,1.62,0,0,0-2.34,0,2.29,2.29,0,0,0-.37,1.4v7a2.25,2.25,0,0,0,.37,1.39,1.62,1.62,0,0,0,2.34,0,2.32,2.32,0,0,0,.37-1.39V86.12H56.07V84.8h2.74v3.87a3.73,3.73,0,0,1-.72,2.4,3.23,3.23,0,0,1-4.47,0,3.73,3.73,0,0,1-.72-2.4v-6.8a4.81,4.81,0,0,1,.18-1.36,2.94,2.94,0,0,1,.54-1,2.49,2.49,0,0,1,.92-.67A3.48,3.48,0,0,1,55.85,78.57Z" transform="translate(-23.31 -4.72)"/><path class="cls-5" d="M61.48,85.93v5.91H60V78.7h1.46v5.91h3.23V78.7h1.46V91.84H64.71V85.93Z" transform="translate(-23.31 -4.72)"/><path class="cls-5" d="M69,89.2l-.51,2.64H67.11L69.63,78.7h2.12l2.52,13.14H72.8l-.51-2.64Zm.19-1.26h2.93l-1.48-7.59Z" transform="translate(-23.31 -4.72)"/><path class="cls-5" d="M76.69,78.7V91.84H75.22V78.7Z" transform="translate(-23.31 -4.72)"/></g></g></g></svg>