<?xml version="1.0" encoding="utf-8"?>
<!-- Generator: Adobe Illustrator 25.4.1, SVG Export Plug-In . SVG Version: 6.00 Build 0)  -->
<svg version="1.1" id="Layer_1" xmlns="http://www.w3.org/2000/svg" xmlns:xlink="http://www.w3.org/1999/xlink" x="0px" y="0px"
	 viewBox="0 0 120 91" style="enable-background:new 0 0 120 91;" xml:space="preserve">
<style type="text/css">
	.st0{fill:url(#SVGID_1_);}
	.st1{opacity:0.5;}
	.st2{clip-path:url(#SVGID_00000183959408398336972620000002415773500079277707_);}
	.st3{fill:none;stroke:#FFFFFF;stroke-miterlimit:10;}
	.st4{fill:#231F20;stroke:#FFFFFF;stroke-miterlimit:10;}
	.st5{fill:#FFFFFF;}
	.st6{fill:#231F20;}
	.st7{fill:none;}
	.st8{clip-path:url(#SVGID_00000061454714591501694100000002515024179739238569_);}
	.st9{fill:none;stroke:#FFFFFF;stroke-width:2;stroke-miterlimit:10;}
</style>
<linearGradient id="SVGID_1_" gradientUnits="userSpaceOnUse" x1="28.1275" y1="8.4668" x2="106.124" y2="99.0924">
	<stop  offset="0" style="stop-color:#FFFFFF"/>
	<stop  offset="0.3105" style="stop-color:#EFBBA4"/>
	<stop  offset="0.9403" style="stop-color:#D63D27"/>
</linearGradient>
<rect x="-0.1" y="0.1" class="st0" width="120.3" height="90.8"/>
<g class="st1">
	<defs>
		
			<rect id="SVGID_00000085248700319159450090000002395738401770470299_" x="-0.1" y="0.1" class="st1" width="120.3" height="90.7"/>
	</defs>
	<clipPath id="SVGID_00000170995621360802711810000009195362605125495961_">
		<use xlink:href="#SVGID_00000085248700319159450090000002395738401770470299_"  style="overflow:visible;"/>
	</clipPath>
	<g style="clip-path:url(#SVGID_00000170995621360802711810000009195362605125495961_);">
		<g>
			<path class="st3" d="M73.7,89.1"/>
		</g>
		<g>
			<g>
				<path class="st4" d="M-4.7,28.7"/>
			</g>
			<g>
				<polygon class="st5" points="-3.3,123.9 -3.4,123.9 -3.4,102.4 4,102.4 4,94.3 -1.2,94.3 -1.2,75.2 6.7,75.2 6.7,63.7 -5,63.7 
					-5,54.1 1.4,54.1 1.4,32.4 1.5,32.4 1.5,54.2 -4.9,54.2 -4.9,63.5 6.8,63.5 6.8,75.3 -1.1,75.3 -1.1,94.2 4.1,94.2 4.1,102.6 
					-3.3,102.6 				"/>
			</g>
			<g>
				<polygon class="st5" points="19,114 15.6,94.5 15.6,94.5 20.2,93.7 18.7,85.4 10.3,86.8 10.3,86.8 8.5,76.3 8.5,76.3 14.1,75.4 
					11.1,58.5 7.5,59.2 7.5,59.1 6.1,51.7 6.2,51.7 11.4,50.8 8.1,31.8 8.2,31.7 11.5,50.9 11.5,50.9 6.3,51.8 7.6,59 11.2,58.4 
					11.2,58.4 14.2,75.4 14.2,75.5 8.6,76.4 10.4,86.7 18.8,85.2 18.8,85.3 20.3,93.8 20.3,93.8 15.7,94.6 19.1,114 				"/>
			</g>
			<g>
				<polygon class="st5" points="50.1,139.7 40.9,114.4 41,114.4 47,112.2 43.5,102.5 39.2,104.1 39.2,104 31,81.5 31,81.5 
					37.5,79.1 32.5,65.5 22.8,69 22.8,68.9 18.7,57.7 18.8,57.7 24,55.8 14.7,30 14.8,30 24.2,55.9 24.1,55.9 18.9,57.8 22.9,68.8 
					32.6,65.3 32.6,65.4 37.6,79.2 37.6,79.2 31.1,81.6 39.3,103.9 43.5,102.4 43.5,102.5 47.1,112.3 47.1,112.3 41.1,114.5 
					50.2,139.7 				"/>
			</g>
			<g>
				<polygon class="st5" points="59.6,100.8 49.7,83.7 53.7,81.3 49.5,74 42.1,78.3 36.8,69.1 41.7,66.2 33.2,51.4 29.9,53.3 
					26.1,46.7 30.8,44 21.1,27.3 21.2,27.3 30.9,44.1 26.3,46.7 30,53.1 33.2,51.3 33.2,51.3 41.9,66.3 36.9,69.1 42.1,78.2 
					49.5,73.9 53.9,81.4 49.8,83.7 59.7,100.8 				"/>
			</g>
			<g>
				<polygon class="st5" points="98.3,118.4 80.3,96.9 80.3,96.9 84.4,93.5 77.5,85.3 74.6,87.7 74.6,87.7 58.6,68.6 58.6,68.6 
					63,64.9 53.3,53.4 46.7,58.9 46.7,58.8 38.7,49.3 42.3,46.3 24,24.5 24.1,24.5 42.5,46.3 38.9,49.3 46.8,58.7 53.3,53.2 
					53.3,53.3 63.2,65 63.1,65 58.8,68.6 74.7,87.6 77.5,85.2 77.6,85.2 84.5,93.5 84.5,93.6 80.4,97 98.3,118.3 				"/>
			</g>
			<g>
				<polygon class="st5" points="118.2,98.9 97,81.1 97,81.1 101.3,76 93.2,69.2 90.2,72.8 90.2,72.8 71.3,56.9 71.3,56.9 
					75.9,51.4 64.5,41.8 57.6,50 57.5,50 48.1,42.1 48.2,42.1 51.9,37.6 30.4,19.5 30.5,19.4 52.1,37.6 52.1,37.7 48.3,42.1 
					57.6,49.9 64.5,41.6 64.5,41.7 76.1,51.4 76.1,51.4 71.4,56.9 90.2,72.6 93.2,69 93.3,69.1 101.5,76 101.4,76 97.1,81.1 
					118.3,98.8 				"/>
			</g>
			<g>
				<polygon class="st5" points="127.4,69.3 104.4,56 105.3,54.3 95.5,48.6 93.7,51.7 93.6,51.7 81.3,44.6 82.5,42.5 62.5,31 
					61.8,32.3 53,27.2 54.1,25.3 31.6,12.3 31.6,12.2 54.2,25.3 53.1,27.2 61.7,32.2 62.5,30.8 62.5,30.8 82.7,42.4 81.5,44.5 
					93.7,51.6 95.4,48.5 105.5,54.3 104.5,56 127.5,69.2 				"/>
			</g>
			<g>
				<polygon class="st5" points="138.6,49.8 114.1,40.9 114.1,40.9 116.5,34.2 107.2,30.8 105.5,35.5 105.4,35.5 83.6,27.5 
					86.2,20.3 73,15.4 69.1,26.3 69,26.2 58.1,22.3 58.2,22.2 60.3,16.4 35.4,7.3 35.4,7.2 60.4,16.3 60.4,16.4 58.3,22.2 69,26.1 
					72.9,15.3 86.4,20.2 86.4,20.2 83.7,27.5 105.4,35.3 107.1,30.6 107.2,30.6 116.7,34.1 116.7,34.1 114.2,40.8 138.7,49.7 				
					"/>
			</g>
			<g>
				<polygon class="st5" points="185.6,30.6 151,24.5 151,24.4 151.9,19.2 138.7,16.9 138.1,20.6 138,20.5 107.2,15.1 107.2,15.1 
					108.2,9.5 89.5,6.2 88,14.6 88,14.6 72.7,11.9 72.7,11.8 73.5,7.3 38.3,1.1 38.3,1 73.6,7.2 73.6,7.2 72.8,11.8 88,14.5 89.4,6 
					89.5,6 108.4,9.4 108.4,9.4 107.4,15 138,20.4 138.6,16.7 138.7,16.8 152.1,19.1 152,19.2 151.1,24.4 185.6,30.4 				"/>
			</g>
		</g>
	</g>
</g>
<g>
	<path class="st6" d="M57.7,55.2v-3.9c0.5-0.2,0.9-0.7,0.9-1.3c0-0.6-0.3-1.1-0.9-1.3v-3.4h-0.2v-3.7h-0.2v-6.8h-0.4v6.8h-0.2v3.7
		h-0.2v3.4c-0.5,0.2-0.9,0.7-0.9,1.3c0,0.6,0.4,1.1,0.9,1.3v3.9c-0.5,0.1-0.9,0.3-1.3,0.5c-0.3,0.2-0.6,0.4-0.8,0.7
		c-0.5,0.6-0.9,1.4-0.9,2.3c0,2,1.6,3.6,3.6,3.6c1.2,0,2.3-0.6,3-1.6c0.3-0.4,0.5-0.9,0.6-1.3c0-0.2,0.1-0.5,0.1-0.7
		C60.7,57,59.4,55.5,57.7,55.2z"/>
	<g>
		<rect x="56.7" y="65.6" class="st7" width="0.9" height="1.6"/>
		<polygon class="st7" points="56.7,70.3 57.6,70.3 57.6,68.7 56.9,68.7 56.7,68.8 		"/>
		<polygon class="st7" points="57.6,76.4 57.6,75.5 56.7,75.1 56.7,76.4 		"/>
		<rect x="56.7" y="71.7" class="st7" width="0.9" height="1.6"/>
		<path class="st6" d="M57.6,61.7v2.5h-0.9v-2.5h-1.4v6.5v1.1v3.9v1.1v5.9h1.4v-2.4h0.9v3H59v-4.7v-1.4v-7v-1.3v-4.8H57.6z
			 M57.6,76.4h-0.9v-1.4v-0.3h0.9v0.7V76.4z M56.7,71.7h0.9v1.6h-0.9V71.7z M57.6,68.7v1.6h-0.9v-1.5v-0.1h0.3H57.6z M56.7,65.6h0.9
			v1.6h-0.9V65.6z"/>
	</g>
	<path class="st6" d="M60,85c0.5-0.6,0.7-1.4,0.7-2.2c0-0.6-0.2-1.2-0.4-1.7c-0.3-0.5-0.6-0.9-1.1-1.3c-0.6-0.4-1.3-0.7-2.1-0.7
		c-2,0-3.6,1.7-3.6,3.7c0,1.1,0.4,2,1.1,2.7l0,0l-2.4,4.2l-0.7,1.2h2l1.6-2.7l1.1-1.9c0,0,0,0,0.1,0l-0.1,1.3l-0.4,3.2h2l0.5-4.6
		c0.1,0,0.2-0.1,0.3-0.1l0.2,0.3l2.5,4.5h2L60,85z"/>
</g>
<g>
	<path class="st6" d="M88.4,58.8c0-9,3-17.9,3.9-20.2c-0.2-3-0.3-4.9-0.3-4.9c-2.6,0-3.9,0.8-3.9,0.8s-0.3,12-0.6,23.3
		c-0.2,11.3-1.3,20.6-1.8,28.1c-0.1,1.7-0.2,3.3-0.3,5.1h6.3C89.6,79.3,88.4,68.6,88.4,58.8z"/>
	<path class="st6" d="M93.6,67.1c0-7.5-0.7-19.9-1.2-27.3c-1.1,3.3-3.5,11.2-3.5,19.1c0,9.8,1.1,20.6,3.3,32.1h1.3
		C93.8,82.8,93.6,74.3,93.6,67.1z"/>
</g>
<g>
	<path class="st6" d="M79.5,83.4l3.6-34.7h-7.2v0.1L79.5,83.4z M81.8,50.2l-0.5,4h-3.7l-0.5-4H81.8z"/>
	<polygon class="st6" points="79.3,85.6 75.9,53.3 75.9,90.9 79.3,90.9 	"/>
	<polygon class="st6" points="79.7,85.6 79.7,90.9 83.1,90.9 83.1,53.1 	"/>
</g>
<g>
	<polygon class="st6" points="103.7,56.5 103.1,56.5 103.1,54.6 102.8,54.6 102.8,53.7 102.6,53.7 102.6,51.9 102.2,51.9 
		102.2,53.7 102,53.7 102,54.6 101.7,54.6 101.7,56.5 101.1,56.5 100,58.8 104.8,58.8 	"/>
	<polygon class="st6" points="106.1,62 105.4,62 105.4,61.1 106.1,60.4 105.4,60.4 105.4,59.2 99.4,59.2 99.4,60.4 98.7,60.4 
		99.4,61.1 99.4,62 98.7,62 99.4,62.7 99.4,63.3 98.7,63.3 99.4,64 99.4,64.6 98.7,64.6 99.4,65.3 99.4,66.2 98.7,66.2 99.4,66.9 
		99.4,68.5 98.7,68.5 99.4,69.3 99.4,70.9 98.7,70.9 99.4,71.6 99.4,74.2 98.7,74.2 99.4,74.9 99.4,79 98.7,79 99.4,79.7 99.4,84.7 
		98.7,84.7 99.4,85.4 99.4,90.9 105.4,90.9 105.4,85.4 106.1,84.7 105.4,84.7 105.4,79.7 106.1,79 105.4,79 105.4,74.9 106.1,74.2 
		105.4,74.2 105.4,71.6 106.1,70.9 105.4,70.9 105.4,69.2 106.1,68.5 105.4,68.5 105.4,66.9 106.1,66.2 105.4,66.2 105.4,65.3 
		106.1,64.6 105.4,64.6 105.4,64 106.1,63.3 105.4,63.3 105.4,62.7 	"/>
</g>
<g>
	<defs>
		<rect id="SVGID_00000120535083165076188130000002596478505438022334_" x="-0.1" y="0.1" width="120.3" height="90.7"/>
	</defs>
	<clipPath id="SVGID_00000100342064624511424970000006348396933697404095_">
		<use xlink:href="#SVGID_00000120535083165076188130000002596478505438022334_"  style="overflow:visible;"/>
	</clipPath>
	<g style="clip-path:url(#SVGID_00000100342064624511424970000006348396933697404095_);">
		<g>
			<g>
				<path class="st9" d="M78.5,84.8"/>
			</g>
			<g>
				<g>
					<path class="st4" d="M-4.2,30.5"/>
				</g>
				<g>
					<polygon class="st5" points="3.8,125.3 2.2,103.6 9.5,103 9,95.7 3.8,96.1 2.3,76.2 10.2,75.6 9.4,64.9 -2.3,65.8 -3.1,55.5 
						3.3,55 1.4,21.5 2.4,21.5 4.3,55.8 -2.1,56.3 -1.5,64.8 10.2,63.9 11.2,76.5 3.3,77 4.7,95.1 9.8,94.7 10.5,103.8 3.2,104.4 
						4.7,125.2 					"/>
				</g>
				<g>
					<polygon class="st5" points="25.5,113.8 20.5,94.3 25,93.1 23.1,85.7 14.8,87.8 12,76.7 17.6,75.3 13.5,59.5 9.9,60.4 
						7.8,52.3 13,51 5.7,21.4 6.6,21.2 14.1,51.6 8.9,53 10.6,59.3 14.2,58.4 18.7,76 13.1,77.4 15.5,86.7 23.8,84.6 26.1,93.8 
						21.6,94.9 26.3,113.6 					"/>
				</g>
				<g>
					<polygon class="st5" points="58.4,137.3 47.2,112.3 53,109.7 49.1,101 45,102.9 34.8,80.3 41.1,77.4 35.5,64.9 26.1,69.1 
						20.8,57.5 25.9,55.1 10.1,19.5 10.9,19.1 27.1,55.6 22,57.9 26.5,67.9 35.9,63.7 42.3,77.9 36,80.7 45.5,101.7 49.6,99.8 
						54.2,110.1 48.4,112.8 59.3,136.9 					"/>
				</g>
				<g>
					<polygon class="st5" points="64.9,97.8 53.6,81.1 57.4,78.5 53.1,72.2 46.1,77 39.6,67.5 44.3,64.3 35.1,50.8 32.1,52.9 
						27.3,46 31.7,43 8.6,11 9.4,10.5 33,43.2 28.6,46.3 32.3,51.7 35.4,49.6 45.6,64.5 40.9,67.8 46.3,75.7 53.3,70.9 58.7,78.7 
						54.8,81.4 65.7,97.3 					"/>
				</g>
				<g>
					<polygon class="st5" points="104.9,112.4 85.1,92.1 88.9,88.4 82,81.3 79.3,84 61.3,65.5 65.7,60.9 55.6,51.3 49,57.7 
						40.1,47.8 43.4,44.5 17.1,18 17.7,17.4 44.7,44.5 41.4,47.8 49.1,56.4 55.6,50 67,60.9 62.6,65.5 79.3,82.7 82,80.1 90.2,88.4 
						86.4,92.2 105.5,111.8 					"/>
				</g>
				<g>
					<polygon class="st5" points="123.4,91.6 100.6,75.2 104.5,69.8 96.6,64.1 93.8,67.9 71.6,51.8 75.8,45.9 65.9,38.9 59.6,47.6 
						48.9,40 52.4,35.2 18.1,10.6 18.6,9.8 53.6,35 50.2,39.8 59.4,46.4 65.6,37.6 77.1,45.7 72.8,51.6 93.6,66.6 96.4,62.8 
						105.8,69.5 101.8,75 123.9,90.9 					"/>
				</g>
				<g>
					<polygon class="st5" points="128.3,60.5 104.9,49.2 105.8,47.2 96.7,42.8 94.9,46.5 81.8,40.2 83,37.7 63.7,28.4 62.9,30 
						53.4,25.4 54.5,23.1 20.5,7.1 20.9,6.3 55.7,22.7 54.6,25 62.5,28.8 63.3,27.2 84.2,37.2 83,39.7 94.5,45.3 96.3,41.5 
						107,46.7 106.1,48.8 128.7,59.6 					"/>
				</g>
				<g>
					<polygon class="st5" points="140.2,41.2 114.6,34 116.6,27.1 107.8,24.6 106.4,29.5 83.2,23 85.3,15.5 72.5,11.9 69.4,23 
						57.5,19.6 59.2,13.6 19.1,2.1 19.3,1.3 60.3,13 58.6,19 68.8,21.9 71.9,10.8 86.4,14.9 84.3,22.3 105.8,28.3 107.2,23.5 
						117.7,26.5 115.8,33.4 140.4,40.3 					"/>
				</g>
				<g>
					<polygon class="st5" points="185.6,18.4 150.3,14.9 150.8,9.6 138.2,8.3 137.9,12.1 105.9,8.9 106.5,3.2 88.4,1.4 87.6,9.9 
						71.3,8.2 71.7,3.6 19,-2.3 19.1,-3.2 72.7,2.8 72.2,7.4 86.7,8.9 87.6,0.4 107.5,2.4 106.9,8.1 137.1,11.1 137.4,7.4 
						151.8,8.8 151.3,14.1 185.7,17.5 					"/>
				</g>
			</g>
		</g>
	</g>
</g>
</svg>
