<?xml version="1.0" encoding="utf-8"?>
<!-- Generator: Adobe Illustrator 25.4.1, SVG Export Plug-In . SVG Version: 6.00 Build 0)  -->
<svg version="1.1" id="Layer_1" xmlns="http://www.w3.org/2000/svg" xmlns:xlink="http://www.w3.org/1999/xlink" x="0px" y="0px"
	 viewBox="0 0 180 100" style="enable-background:new 0 0 180 100;" xml:space="preserve">
<style type="text/css">
	.st0{fill:#FFFFFF;}
	.st1{fill:url(#SVGID_1_);}
	.st2{opacity:0.5;}
	.st3{clip-path:url(#SVGID_00000093873783159282123590000000378459765839485596_);}
	.st4{fill:none;stroke:#FFFFFF;stroke-miterlimit:10;}
	.st5{fill:#231F20;stroke:#FFFFFF;stroke-miterlimit:10;}
	.st6{fill:#231F20;}
	.st7{fill:none;}
	.st8{clip-path:url(#SVGID_00000012438666925902020600000018251776737037494667_);}
	.st9{fill:none;stroke:#FFFFFF;stroke-width:2;stroke-miterlimit:10;}
</style>
<g>
	<g>
		<path class="st0" d="M4.8,5.5h10.2c3.5,0,6.2,0.7,8,2.1c1.8,1.4,2.7,3.5,2.7,6.3c0,2.1-0.5,3.8-1.6,5c-1.1,1.2-2.6,1.9-4.6,2.1
			c2.4,0.3,4.3,1.1,5.5,2.6c1.2,1.5,1.8,3.5,1.8,6.1c0,3.2-0.9,5.5-2.8,7c-1.8,1.4-4.8,2.2-9,2.2H4.8V5.5z M10.9,10.7v7.7h4.2
			c1.6,0,2.7-0.3,3.4-0.9c0.7-0.6,1-1.6,1-2.9s-0.3-2.4-1-3c-0.7-0.6-1.8-0.9-3.4-0.9H10.9z M10.9,23.7v9.9h4.2c2,0,3.4-0.4,4.2-1.1
			c0.8-0.7,1.2-2,1.2-3.7c0-1.8-0.4-3.1-1.3-3.9c-0.8-0.8-2.2-1.2-4.2-1.2H10.9z"/>
		<path class="st0" d="M37.4,24.2c-3.2-1.3-5.3-2.6-6.4-4c-1.1-1.4-1.7-3.3-1.7-5.6c0-3,0.9-5.4,2.8-7.1c1.8-1.7,4.4-2.6,7.6-2.6
			c1.5,0,2.9,0.2,4.4,0.5C45.5,5.8,47,6.3,48.4,7v6.4c-1.3-1-2.7-1.8-4.1-2.3c-1.4-0.5-2.8-0.8-4.1-0.8c-1.5,0-2.7,0.3-3.5,1
			s-1.2,1.6-1.2,2.7c0,0.9,0.3,1.7,0.9,2.3c0.6,0.6,1.8,1.3,3.7,2l2.7,1.1c2.6,1,4.4,2.3,5.6,3.9c1.2,1.6,1.8,3.7,1.8,6.1
			c0,3.4-0.9,5.9-2.8,7.5s-4.8,2.5-8.6,2.5c-1.6,0-3.2-0.2-4.7-0.6c-1.6-0.4-3.1-1-4.6-1.8v-6.8c1.7,1.2,3.3,2.2,4.9,2.8
			c1.6,0.6,3.1,0.9,4.7,0.9c1.5,0,2.7-0.4,3.6-1.1c0.9-0.7,1.3-1.8,1.3-3.1c0-1-0.3-1.9-0.9-2.6c-0.6-0.8-1.4-1.3-2.5-1.8L37.4,24.2
			z"/>
	</g>
	<g>
		<path class="st0" d="M4.9,65.1v-0.3c0-3,1.7-5.7,4.9-10c2-2.7,2.4-3.8,2.4-6.3c0-2.9-0.6-4.3-2.6-4.3c-2,0-2.7,1.4-2.7,3.5v0.9
			H5.3v-1c0-2.3,0.8-4.9,4.5-4.9c3.6,0,4.4,2.6,4.4,5.7c0,3.4-0.9,4.7-2.8,7.2c-2.6,3.5-4.2,6-4.4,8h7.8l-0.3,1.5H4.9z"/>
		<path class="st0" d="M26.5,48.1v11.8c0,4.1-1.9,5.4-4.8,5.4C19,65.4,17,64.1,17,60V48.2c0-4.4,2.4-5.5,4.8-5.5
			C24.1,42.7,26.5,43.8,26.5,48.1z M18.8,48.1V60c0,2.6,0.9,3.8,2.9,3.8c1.7,0,2.8-0.8,2.8-3.8V48.1c0-3-1.2-3.8-2.9-3.8
			C20,44.3,18.8,45,18.8,48.1z"/>
		<path class="st0" d="M28.6,65.1v-0.3c0-3,1.7-5.7,4.9-10c2-2.7,2.4-3.8,2.4-6.3c0-2.9-0.6-4.3-2.6-4.3c-2,0-2.7,1.4-2.7,3.5v0.9
			H29v-1c0-2.3,0.8-4.9,4.5-4.9c3.6,0,4.4,2.6,4.4,5.7c0,3.4-0.9,4.7-2.8,7.2c-2.6,3.5-4.2,6-4.4,8h7.8l-0.3,1.5H28.6z"/>
		<path class="st0" d="M40.8,47.9v-0.4c0-1.8,0.4-4.9,4.4-4.9c3.1,0,4.3,1.8,4.3,4.8v1.2c0,2.6-0.8,3.6-2.2,4.1v0
			c1.8,0.5,2.8,1.8,2.8,4.7v2c0,3.5-1.1,5.9-4.9,5.9c-3.5,0-4.8-2-4.8-4.9v-0.6h1.8v0.6c0,1.9,0.9,3.4,3,3.4c2.2,0,3-1.3,3-4.3v-2.1
			c0-3.1-1.2-3.9-3.6-3.9h-1v-1.5h1c1.9,0,3-0.6,3-3.3v-1.3c0-1.9-0.5-3.4-2.5-3.4c-2.1,0-2.6,1.6-2.6,3.3v0.5H40.8z"/>
	</g>
	<g>
		<path class="st0" d="M8.3,79.3v-2.8H4.4v-0.7l3.6-6.5h1.2v6.5h1.1l-0.1,0.8h-1v2.8H8.3z M8.3,72.8c0-0.8,0-1.9,0-2.6
			c-0.5,1.2-2.1,4-3,5.7h3V72.8z"/>
		<path class="st0" d="M15.9,75v0.8h-3.2V75H15.9z"/>
		<path class="st0" d="M23.1,71.3c0-0.1-0.1-1.4-1.4-1.4c-1.8,0-1.9,2.7-1.9,4c0.3-0.5,0.9-1.1,2-1.1c1.7,0,2.5,1.3,2.5,3.2
			c0,1.8-0.7,3.5-2.7,3.5c-2.3,0-2.7-2.1-2.7-5c0-3.2,0.7-5.3,2.9-5.3c1.9,0,2.2,1.6,2.2,2.1H23.1z M23.3,76.1
			c0-1.5-0.5-2.5-1.7-2.5c-1.4,0-1.9,1.1-1.9,2c0,1.4,0.3,3.2,1.8,3.2C22.6,78.7,23.3,77.9,23.3,76.1z"/>
		<path class="st0" d="M27.7,76.7c0.1,1.1,0.7,2,2,2c1.2,0,1.9-0.6,1.9-1.9c0-1.2-0.5-1.8-2-2.5c-1.7-0.8-2.5-1.5-2.5-2.9
			c0-1.3,0.9-2.5,2.7-2.5c2,0,2.6,1.4,2.6,2.5h-0.9c-0.1-0.5-0.2-1.8-1.7-1.8c-1.2,0-1.7,0.8-1.7,1.6c0,1.1,0.5,1.6,1.9,2.2
			c1.9,0.9,2.6,1.7,2.6,3.2c0,1.6-1,2.8-2.9,2.8c-2.1,0-2.8-1.3-2.9-2.8H27.7z"/>
		<path class="st0" d="M38.1,74.2h-3.8v4.3h4.2l-0.1,0.8h-4.9V69h4.9v0.8h-3.9v3.7h3.8V74.2z"/>
		<path class="st0" d="M39,69h2.7c1.7,0,2.9,1,2.9,2.8c0,1.8-1,3-3,3H40v4.6H39V69z M40,74h1.5c1.4,0,2.2-0.7,2.2-2.2
			c0-1.2-0.7-2-2-2H40V74z"/>
		<path class="st0" d="M47,69.8h-2.5V69h6v0.8H48v9.6H47V69.8z"/>
	</g>
	<g>
		<path class="st0" d="M8.7,84.1c-0.5-0.3-1-0.5-1.4-0.5s-0.8,0.2-1.1,0.5c-0.3,0.3-0.4,0.7-0.4,1.2c0,0.3,0.1,0.7,0.3,1
			c0.2,0.4,0.6,0.9,1.2,1.8c0.6,0.8,1.1,1.5,1.4,2.1c0.3,0.6,0.5,1.3,0.5,2c0,1-0.3,1.7-0.8,2.3s-1.2,0.9-2.1,0.9
			c-0.5,0-1-0.2-1.7-0.5v-1.5c0,0,0,0,0.1,0c0.1,0.1,0.3,0.2,0.6,0.3C5.5,93.9,5.8,94,6.1,94c0.5,0,0.8-0.2,1.1-0.5
			c0.3-0.3,0.4-0.8,0.4-1.3c0-0.4-0.1-0.7-0.2-1C7.3,90.9,7,90.5,6.6,90l-1.1-1.4C5.2,88,4.9,87.5,4.7,87c-0.2-0.5-0.3-1-0.3-1.6
			c0-0.9,0.2-1.7,0.7-2.3c0.5-0.6,1.1-0.9,1.9-0.9c0.6,0,1.1,0.2,1.7,0.5V84.1z"/>
		<path class="st0" d="M9.6,82.5h1.6v5h2.4v-5h1.6v12.8h-1.6v-6.4h-2.4v6.4H9.6V82.5z"/>
		<path class="st0" d="M22,95.3h-1.5l-0.4-2.5h-2.5l-0.4,2.5h-1.5l2.5-12.8h1.3L22,95.3z M19.9,91.4l-1-6.1h0l-1,6.1H19.9z"/>
		<path class="st0" d="M28,95.3h-1.2l-3-8.8l0,0v8.8h-1.4V82.5h1.3l3,8.8l0,0v-8.8H28V95.3z"/>
		<path class="st0" d="M34.9,90.7c0,1.5-0.2,2.6-0.7,3.4c-0.5,0.8-1.3,1.2-2.4,1.2c-1,0-1.8-0.4-2.3-1.3c-0.5-0.8-0.7-2.5-0.7-4.9
			c0-0.3,0-1,0.1-2.2c0.1-1.2,0.1-2,0.2-2.5c0.1-0.4,0.3-0.8,0.5-1.2c0.3-0.4,0.6-0.7,1-0.8s0.8-0.3,1.4-0.3c0.7,0,1.4,0.2,1.9,0.7
			c0.5,0.5,0.8,1.1,0.9,1.9l-1.5,0.6c-0.1-1.2-0.6-1.9-1.3-1.9c-0.6,0-1,0.3-1.2,1s-0.3,1.7-0.3,3.2v0.7c0,0.9,0,1.7,0.1,2.5
			s0.1,1.4,0.1,1.7c0,0.4,0.1,0.7,0.3,0.9c0.1,0.2,0.3,0.4,0.4,0.4c0.2,0.1,0.3,0.1,0.5,0.1c0.4,0,0.7-0.1,0.9-0.4
			c0.2-0.3,0.4-0.6,0.4-1.1s0.1-1.3,0.1-2.4h-1.4v-1.5h3V90.7z"/>
		<path class="st0" d="M35.4,82.5H37v5h2.4v-5H41v12.8h-1.6v-6.4H37v6.4h-1.6V82.5z"/>
		<path class="st0" d="M47.9,95.3h-1.5l-0.4-2.5h-2.5L43,95.3h-1.5L44,82.5h1.3L47.9,95.3z M45.7,91.4l-1-6.1h0l-1,6.1H45.7z"/>
		<path class="st0" d="M48.6,82.5h1.6v12.8h-1.6V82.5z"/>
	</g>
</g>
<linearGradient id="SVGID_1_" gradientUnits="userSpaceOnUse" x1="83.9197" y1="12.9668" x2="161.9162" y2="103.5924">
	<stop  offset="0" style="stop-color:#FFFFFF"/>
	<stop  offset="0.3546" style="stop-color:#F0B7AE"/>
	<stop  offset="0.9403" style="stop-color:#D63A21"/>
</linearGradient>
<rect x="55.7" y="4.6" class="st1" width="120.3" height="90.8"/>
<g class="st2">
	<defs>
		
			<rect id="SVGID_00000172428377719173517160000004735205788260465824_" x="55.7" y="4.6" class="st2" width="120.3" height="90.7"/>
	</defs>
	<clipPath id="SVGID_00000159460874811190389290000010989728922961607357_">
		<use xlink:href="#SVGID_00000172428377719173517160000004735205788260465824_"  style="overflow:visible;"/>
	</clipPath>
	<g style="clip-path:url(#SVGID_00000159460874811190389290000010989728922961607357_);">
		<g>
			<path class="st4" d="M129.5,93.6"/>
		</g>
		<g>
			<g>
				<path class="st5" d="M51.1,33.2"/>
			</g>
			<g>
				<polygon class="st0" points="52.5,128.4 52.4,128.4 52.4,106.9 59.7,106.9 59.7,98.8 54.6,98.8 54.6,79.7 62.5,79.7 62.5,68.2 
					50.8,68.2 50.8,58.6 57.2,58.6 57.2,36.9 57.3,36.9 57.3,58.7 50.9,58.7 50.9,68 62.6,68 62.6,79.8 54.7,79.8 54.7,98.7 
					59.9,98.7 59.9,107.1 52.5,107.1 				"/>
			</g>
			<g>
				<polygon class="st0" points="74.8,118.5 71.4,99 71.4,99 76,98.2 74.5,89.9 66.1,91.3 66.1,91.3 64.3,80.8 64.3,80.8 69.9,79.9 
					66.9,63 63.3,63.7 63.2,63.6 61.9,56.2 62,56.2 67.2,55.3 63.8,36.3 64,36.2 67.3,55.4 67.3,55.4 62.1,56.3 63.3,63.5 67,62.9 
					67,62.9 70,79.9 70,80 64.4,80.9 66.2,91.2 74.6,89.7 74.6,89.8 76.1,98.3 76.1,98.3 71.5,99.1 74.9,118.5 				"/>
			</g>
			<g>
				<polygon class="st0" points="105.9,144.2 96.7,118.9 96.8,118.9 102.8,116.7 99.2,107 95,108.6 95,108.5 86.8,86 86.8,86 
					93.3,83.6 88.3,70 78.6,73.5 78.6,73.4 74.5,62.2 74.6,62.2 79.8,60.3 70.5,34.5 70.6,34.5 80,60.4 79.9,60.4 74.7,62.3 
					78.7,73.3 88.4,69.8 88.4,69.9 93.4,83.7 93.4,83.7 86.9,86.1 95.1,108.4 99.3,106.9 99.3,107 102.9,116.8 102.9,116.8 
					96.9,119 106,144.2 				"/>
			</g>
			<g>
				<polygon class="st0" points="115.4,105.3 105.4,88.2 109.5,85.8 105.3,78.5 97.9,82.8 92.6,73.6 97.5,70.7 89,55.9 85.7,57.8 
					81.9,51.2 86.6,48.5 76.9,31.8 77,31.8 86.7,48.6 82.1,51.2 85.8,57.6 89,55.8 89,55.8 97.7,70.8 92.7,73.6 97.9,82.7 
					105.3,78.4 109.6,85.9 105.6,88.2 115.4,105.3 				"/>
			</g>
			<g>
				<polygon class="st0" points="154,122.9 136.1,101.4 136.1,101.4 140.2,98 133.3,89.8 130.4,92.2 130.4,92.2 114.4,73.1 
					114.4,73.1 118.8,69.4 109.1,57.9 102.5,63.4 102.5,63.3 94.5,53.8 98.1,50.8 79.8,29 79.9,29 98.3,50.8 94.7,53.8 102.6,63.2 
					109.1,57.7 109.1,57.8 118.9,69.5 118.9,69.5 114.5,73.1 130.4,92.1 133.3,89.7 133.3,89.7 140.3,98 140.3,98.1 136.2,101.5 
					154.1,122.8 				"/>
			</g>
			<g>
				<polygon class="st0" points="174,103.4 152.8,85.6 152.8,85.6 157.1,80.5 149,73.7 146,77.3 145.9,77.3 127.1,61.4 127.1,61.4 
					131.7,55.9 120.3,46.3 113.4,54.5 113.3,54.5 103.9,46.6 104,46.6 107.7,42.1 86.2,24 86.2,23.9 107.9,42.1 107.9,42.2 
					104.1,46.6 113.4,54.4 120.3,46.1 120.3,46.2 131.9,55.9 131.9,55.9 127.2,61.4 146,77.1 149,73.5 149.1,73.6 157.3,80.5 
					157.2,80.5 152.9,85.6 174,103.3 				"/>
			</g>
			<g>
				<polygon class="st0" points="183.2,73.8 160.2,60.5 161.1,58.8 151.3,53.1 149.5,56.2 149.4,56.2 137.1,49.1 138.3,47 
					118.3,35.5 117.6,36.8 108.7,31.7 109.9,29.8 87.4,16.8 87.4,16.7 110,29.8 108.9,31.7 117.5,36.7 118.3,35.3 118.3,35.3 
					138.5,46.9 137.3,49 149.4,56.1 151.2,53 161.3,58.8 160.3,60.5 183.3,73.7 				"/>
			</g>
			<g>
				<polygon class="st0" points="194.4,54.3 169.9,45.4 169.9,45.4 172.3,38.7 163,35.3 161.3,40 161.2,40 139.4,32 142,24.8 
					128.8,19.9 124.9,30.8 124.8,30.7 113.9,26.8 114,26.7 116.1,20.9 91.2,11.8 91.2,11.7 116.2,20.8 116.2,20.9 114.1,26.7 
					124.8,30.6 128.7,19.8 142.2,24.7 142.1,24.7 139.5,32 161.2,39.8 162.9,35.1 163,35.1 172.5,38.6 172.5,38.6 170,45.3 
					194.5,54.2 				"/>
			</g>
			<g>
				<polygon class="st0" points="241.4,35.1 206.8,29 206.8,28.9 207.7,23.7 194.5,21.4 193.8,25.1 193.8,25 163,19.6 163,19.6 
					164,14 145.3,10.7 143.8,19.1 143.8,19.1 128.5,16.4 128.5,16.3 129.3,11.8 94.1,5.6 94.1,5.5 129.4,11.7 129.4,11.7 
					128.6,16.3 143.7,19 145.2,10.5 145.3,10.5 164.2,13.9 164.1,13.9 163.2,19.5 193.8,24.9 194.4,21.2 194.5,21.3 207.9,23.6 
					207.8,23.7 206.9,28.9 241.4,34.9 				"/>
			</g>
		</g>
	</g>
</g>
<g>
	<path class="st6" d="M113.5,59.7v-3.9c0.5-0.2,0.9-0.7,0.9-1.3c0-0.6-0.3-1.1-0.9-1.3v-3.4h-0.2v-3.7h-0.2v-6.8h-0.4v6.8h-0.2v3.7
		h-0.2v3.4c-0.5,0.2-0.9,0.7-0.9,1.3c0,0.6,0.4,1.1,0.9,1.3v3.9c-0.5,0.1-0.9,0.3-1.3,0.5c-0.3,0.2-0.6,0.4-0.8,0.7
		c-0.5,0.6-0.9,1.4-0.9,2.3c0,2,1.6,3.6,3.6,3.6c1.2,0,2.3-0.6,3-1.6c0.3-0.4,0.5-0.9,0.6-1.3c0-0.2,0.1-0.5,0.1-0.7
		C116.5,61.5,115.2,60,113.5,59.7z"/>
	<g>
		<rect x="112.4" y="70.1" class="st7" width="0.9" height="1.6"/>
		<polygon class="st7" points="112.4,74.8 113.3,74.8 113.3,73.2 112.7,73.2 112.4,73.3 		"/>
		<polygon class="st7" points="113.3,80.9 113.3,80 112.4,79.6 112.4,80.9 		"/>
		<rect x="112.4" y="76.2" class="st7" width="0.9" height="1.6"/>
		<path class="st6" d="M113.3,66.2v2.5h-0.9v-2.5H111v6.5v1.1v3.9v1.1v5.9h1.4v-2.4h0.9v3h1.4v-4.7v-1.4v-7V71v-4.8H113.3z
			 M113.3,80.9h-0.9v-1.4v-0.3h0.9V80V80.9z M112.4,76.2h0.9v1.6h-0.9V76.2z M113.3,73.2v1.6h-0.9v-1.5v-0.1h0.3H113.3z M112.4,70.1
			h0.9v1.6h-0.9V70.1z"/>
	</g>
	<path class="st6" d="M115.8,89.5c0.5-0.6,0.7-1.4,0.7-2.2c0-0.6-0.2-1.2-0.4-1.7c-0.3-0.5-0.6-0.9-1.1-1.3
		c-0.6-0.4-1.3-0.7-2.1-0.7c-2,0-3.6,1.7-3.6,3.7c0,1.1,0.4,2,1.1,2.7l0,0l-2.4,4.2l-0.7,1.2h2l1.6-2.7l1.1-1.9c0,0,0,0,0.1,0
		l-0.1,1.3l-0.4,3.2h2l0.5-4.6c0.1,0,0.2-0.1,0.3-0.1l0.2,0.3l2.5,4.5h2L115.8,89.5z"/>
</g>
<g>
	<path class="st6" d="M144.2,63.3c0-9,3-17.9,3.9-20.2c-0.2-3-0.3-4.9-0.3-4.9c-2.6,0-3.9,0.8-3.9,0.8s-0.3,12-0.6,23.3
		c-0.2,11.3-1.3,20.6-1.8,28.1c-0.1,1.7-0.2,3.3-0.3,5.1h6.3C145.3,83.8,144.2,73.1,144.2,63.3z"/>
	<path class="st6" d="M149.4,71.6c0-7.5-0.7-19.9-1.2-27.3c-1.1,3.3-3.5,11.2-3.5,19.1c0,9.8,1.1,20.6,3.3,32.1h1.3
		C149.6,87.3,149.4,78.8,149.4,71.6z"/>
</g>
<g>
	<path class="st6" d="M135.3,87.9l3.6-34.7h-7.2v0.1L135.3,87.9z M137.5,54.7l-0.5,4h-3.7l-0.5-4H137.5z"/>
	<polygon class="st6" points="135.1,90.1 131.7,57.8 131.7,95.4 135.1,95.4 	"/>
	<polygon class="st6" points="135.5,90.1 135.5,95.4 138.9,95.4 138.9,57.6 	"/>
</g>
<g>
	<polygon class="st6" points="159.5,61 158.9,61 158.9,59.1 158.6,59.1 158.6,58.2 158.4,58.2 158.4,56.4 158,56.4 158,58.2 
		157.8,58.2 157.8,59.1 157.5,59.1 157.5,61 156.9,61 155.8,63.3 160.6,63.3 	"/>
	<polygon class="st6" points="161.9,66.5 161.2,66.5 161.2,65.6 161.9,64.9 161.2,64.9 161.2,63.7 155.2,63.7 155.2,64.9 
		154.5,64.9 155.2,65.6 155.2,66.5 154.5,66.5 155.2,67.2 155.2,67.8 154.5,67.8 155.2,68.5 155.2,69.1 154.5,69.1 155.2,69.8 
		155.2,70.7 154.5,70.7 155.2,71.4 155.2,73 154.5,73 155.2,73.8 155.2,75.4 154.5,75.4 155.2,76.1 155.2,78.7 154.5,78.7 
		155.2,79.4 155.2,83.5 154.5,83.5 155.2,84.2 155.2,89.2 154.5,89.2 155.2,89.9 155.2,95.4 161.2,95.4 161.2,89.9 161.9,89.2 
		161.2,89.2 161.2,84.2 161.9,83.5 161.2,83.5 161.2,79.4 161.9,78.7 161.2,78.7 161.2,76.1 161.9,75.4 161.2,75.4 161.2,73.7 
		161.9,73 161.2,73 161.2,71.4 161.9,70.7 161.2,70.7 161.2,69.8 161.9,69.1 161.2,69.1 161.2,68.5 161.9,67.8 161.2,67.8 
		161.2,67.2 	"/>
</g>
<g>
	<defs>
		<rect id="SVGID_00000091731764593415580910000014994589945550390697_" x="55.7" y="4.6" width="120.3" height="90.7"/>
	</defs>
	<clipPath id="SVGID_00000024709407443597623360000000500449650227200422_">
		<use xlink:href="#SVGID_00000091731764593415580910000014994589945550390697_"  style="overflow:visible;"/>
	</clipPath>
	<g style="clip-path:url(#SVGID_00000024709407443597623360000000500449650227200422_);">
		<g>
			<g>
				<path class="st9" d="M134.3,89.3"/>
			</g>
			<g>
				<g>
					<path class="st5" d="M51.6,35"/>
				</g>
				<g>
					<polygon class="st0" points="59.6,129.8 58,108.1 65.3,107.5 64.8,100.2 59.6,100.6 58.1,80.7 66,80.1 65.2,69.4 53.5,70.3 
						52.7,60 59.1,59.5 57.2,26 58.1,26 60.1,60.3 53.7,60.8 54.3,69.3 66,68.4 67,81 59.1,81.5 60.5,99.6 65.6,99.2 66.3,108.3 
						59,108.9 60.5,129.7 					"/>
				</g>
				<g>
					<polygon class="st0" points="81.3,118.3 76.3,98.8 80.8,97.6 78.9,90.2 70.6,92.3 67.8,81.2 73.3,79.8 69.3,64 65.7,64.9 
						63.6,56.8 68.8,55.5 61.5,25.9 62.4,25.7 69.9,56.1 64.7,57.5 66.4,63.8 70,62.9 74.5,80.5 68.9,81.9 71.3,91.2 79.5,89.1 
						81.9,98.3 77.4,99.4 82.1,118.1 					"/>
				</g>
				<g>
					<polygon class="st0" points="114.2,141.8 103,116.8 108.8,114.2 104.9,105.5 100.8,107.4 90.6,84.8 96.9,81.9 91.2,69.4 
						81.9,73.6 76.6,62 81.7,59.6 65.9,24 66.7,23.6 82.9,60.1 77.8,62.4 82.3,72.4 91.7,68.2 98.1,82.4 91.8,85.2 101.3,106.2 
						105.4,104.3 110,114.6 104.2,117.3 115.1,141.4 					"/>
				</g>
				<g>
					<polygon class="st0" points="120.7,102.3 109.3,85.6 113.2,83 108.9,76.7 101.8,81.5 95.4,72 100.1,68.8 90.9,55.3 87.9,57.4 
						83.1,50.5 87.5,47.5 64.4,15.5 65.2,15 88.8,47.7 84.4,50.8 88.1,56.2 91.2,54.1 101.4,69 96.7,72.3 102.1,80.2 109.1,75.4 
						114.5,83.2 110.6,85.9 121.5,101.8 					"/>
				</g>
				<g>
					<polygon class="st0" points="160.7,116.9 140.9,96.6 144.7,92.9 137.8,85.8 135.1,88.5 117.1,70 121.5,65.4 111.4,55.8 
						104.8,62.2 95.9,52.3 99.2,49 72.9,22.5 73.5,21.9 100.5,49 97.2,52.3 104.9,60.9 111.4,54.5 122.8,65.4 118.4,70 135.1,87.2 
						137.8,84.6 146,92.9 142.1,96.7 161.3,116.3 					"/>
				</g>
				<g>
					<polygon class="st0" points="179.2,96.1 156.3,79.7 160.3,74.3 152.4,68.6 149.6,72.4 127.4,56.3 131.6,50.4 121.6,43.4 
						115.4,52.1 104.7,44.5 108.2,39.7 73.9,15.1 74.4,14.3 109.4,39.5 106,44.3 115.1,50.9 121.4,42.1 132.9,50.2 128.6,56.1 
						149.4,71.1 152.1,67.3 161.5,74 157.6,79.5 179.7,95.4 					"/>
				</g>
				<g>
					<polygon class="st0" points="184.1,65 160.7,53.7 161.6,51.7 152.5,47.3 150.7,51 137.6,44.7 138.8,42.2 119.5,32.9 
						118.7,34.5 109.2,29.9 110.3,27.6 76.3,11.6 76.7,10.8 111.5,27.2 110.4,29.5 118.3,33.3 119.1,31.7 140,41.7 138.8,44.2 
						150.3,49.8 152.1,46 162.8,51.2 161.9,53.3 184.5,64.1 					"/>
				</g>
				<g>
					<polygon class="st0" points="196,45.7 170.4,38.5 172.4,31.6 163.6,29.1 162.2,34 139,27.5 141.1,20 128.3,16.4 125.2,27.5 
						113.3,24.1 115,18.1 74.9,6.6 75.1,5.8 116.1,17.5 114.4,23.5 124.6,26.4 127.7,15.3 142.2,19.4 140.1,26.8 161.6,32.8 
						162.9,28 173.5,31 171.6,37.9 196.2,44.8 					"/>
				</g>
				<g>
					<polygon class="st0" points="241.4,22.9 206.1,19.4 206.6,14.1 194,12.8 193.7,16.6 161.7,13.4 162.3,7.7 144.2,5.9 
						143.3,14.4 127,12.7 127.5,8.1 74.8,2.2 74.9,1.3 128.5,7.3 128,11.9 142.5,13.4 143.4,4.9 163.3,6.9 162.7,12.6 192.8,15.6 
						193.2,11.9 207.6,13.3 207.1,18.6 241.5,22 					"/>
				</g>
			</g>
		</g>
	</g>
</g>
</svg>
