<?xml version="1.0" encoding="utf-8"?>
<!-- Generator: Adobe Illustrator 26.3.1, SVG Export Plug-In . SVG Version: 6.00 Build 0)  -->
<svg version="1.1" xmlns="http://www.w3.org/2000/svg" xmlns:xlink="http://www.w3.org/1999/xlink" x="0px" y="0px"
	 viewBox="0 0 60 50" style="enable-background:new 0 0 60 50;" xml:space="preserve">
<style type="text/css">
	.st0{display:none;}
	.st1{display:inline;}
</style>
<g id="Layer_1">
	<g>
		<path d="M30,33.4c-3.2,0-6.3,0-9.5,0c-0.5,0-0.7,0.2-0.7,0.7c0,0.6,0,1.2,0,1.9c0,0.5-0.3,0.8-0.8,0.8c-0.5,0-1.1,0-1.6,0
			c-0.6,0-0.8-0.3-0.8-0.8c0-3.1,0-6.3,0-9.4c0-1.6,1.4-2.9,3-3.1c0.3,0,0.5,0,0.8,0c6.4,0,12.9,0,19.3,0c1.8,0,3,0.7,3.6,2.1
			c0.2,0.4,0.2,0.8,0.2,1.3c0,3,0,6,0,9c0,0.8-0.2,1.1-1,1.1c-0.5,0-0.9,0-1.4,0c-0.6,0-0.8-0.3-0.8-0.8c0-0.6,0-1.3,0-1.9
			c0-0.5-0.2-0.6-0.6-0.6C36.4,33.4,33.2,33.4,30,33.4z"/>
		<path d="M41.8,21.6c-0.9,0-1.6,0-2.4,0c0-0.5,0-1,0-1.4c0-1.2-0.7-1.9-1.9-1.9c-1.6,0-3.2,0-4.8,0c-1.1,0-1.8,0.7-1.9,1.8
			c0,0.5,0,1,0,1.5c-0.6,0-1,0-1.6,0c0-0.5,0-1,0-1.5c0-1.1-0.7-1.8-1.8-1.8c-1.6,0-3.3,0-4.9,0c-1.1,0-1.8,0.7-1.8,1.8
			c0,0.5,0,1,0,1.5c-0.8,0-1.6,0-2.4,0c0-0.2,0-0.4,0-0.6c0-1.9,0-3.7,0-5.6c0-1.5,0.6-2.2,2.2-2.2c6.4,0,12.8,0,19.2,0
			c1.5,0,2.1,0.6,2.2,2.2c0,1.9,0,3.7,0,5.6C41.8,21.2,41.8,21.4,41.8,21.6z"/>
	</g>
</g>
<g id="Layer_2" class="st0">
	<g class="st1">
		<path d="M28.5,26.5c0-1.6-1.4-2.9-3-3.1c-0.3,0-0.5,0-0.8,0c-0.8,0-1.7,0-2.5,0v0c-1.2,0-2.4,0-3.6,0c-1.2,0-2.4,0-3.6,0v0
			c-0.8,0-1.7,0-2.5,0c-0.3,0-0.5,0-0.8,0c-1.6,0.2-3,1.5-3,3.1c0,3.1,0,6.3,0,9.4c0,0.6,0.3,0.8,0.8,0.8c0.5,0,1.1,0,1.6,0
			c0.5,0,0.8-0.3,0.8-0.8c0-0.6,0-1.2,0-1.9c0-0.5,0.1-0.7,0.7-0.7c0.8,0,1.6,0,2.4,0v0c0,0,0,0,0,0c1.2,0,2.4,0,3.5,0
			c1.2,0,2.4,0,3.5,0c0,0,0,0,0,0v0c0.8,0,1.6,0,2.4,0c0.5,0,0.7,0.2,0.7,0.7c0,0.6,0,1.2,0,1.9c0,0.5,0.3,0.8,0.8,0.8
			c0.5,0,1.1,0,1.6,0c0.6,0,0.8-0.3,0.8-0.8C28.6,32.8,28.6,29.6,28.5,26.5z"/>
		<path d="M10.5,21.6c0.8,0,1.6,0,2.4,0c0-0.5,0-1,0-1.5c0-1.1,0.8-1.8,1.8-1.8c0.1,0,0.3,0,0.4,0c0.9,0,1.7,0,2.6,0
			c0.6,0,1.3,0,1.9,0c0.9,0,1.7,0,2.6,0c0.1,0,0.3,0,0.4,0c1.1,0,1.8,0.7,1.8,1.8c0,0.5,0,1,0,1.5c0.8,0,1.6,0,2.4,0
			c0-0.2,0-0.4,0-0.6c0-1.9,0-3.7,0-5.6c0-1.5-0.6-2.2-2.2-2.2c-2,0-4,0-6,0c-2,0-4,0-6,0c-1.6,0-2.2,0.6-2.2,2.2c0,1.9,0,3.7,0,5.6
			C10.4,21.2,10.4,21.4,10.5,21.6z"/>
	</g>
	<g class="st1">
		<path d="M51.5,26.5c0-1.6-1.4-2.9-3-3.1c-0.3,0-0.5,0-0.8,0c-0.8,0-1.7,0-2.5,0v0c-1.2,0-2.4,0-3.6,0c-1.2,0-2.4,0-3.6,0v0
			c-0.8,0-1.7,0-2.5,0c-0.3,0-0.5,0-0.8,0c-1.6,0.2-3,1.5-3,3.1c0,3.1,0,6.3,0,9.4c0,0.6,0.3,0.8,0.8,0.8c0.5,0,1.1,0,1.6,0
			c0.5,0,0.8-0.3,0.8-0.8c0-0.6,0-1.2,0-1.9c0-0.5,0.1-0.7,0.7-0.7c0.8,0,1.6,0,2.4,0v0c0,0,0,0,0,0c1.2,0,2.4,0,3.5,0
			c1.2,0,2.4,0,3.5,0c0,0,0,0,0,0v0c0.8,0,1.6,0,2.4,0c0.5,0,0.7,0.2,0.7,0.7c0,0.6,0,1.2,0,1.9c0,0.5,0.3,0.8,0.8,0.8
			c0.5,0,1.1,0,1.6,0c0.6,0,0.8-0.3,0.8-0.8C51.5,32.8,51.5,29.6,51.5,26.5z"/>
		<path d="M33.4,21.6c0.8,0,1.6,0,2.4,0c0-0.5,0-1,0-1.5c0-1.1,0.8-1.8,1.8-1.8c0.1,0,0.3,0,0.4,0c0.9,0,1.7,0,2.6,0
			c0.6,0,1.3,0,1.9,0c0.9,0,1.7,0,2.6,0c0.1,0,0.3,0,0.4,0c1.1,0,1.8,0.7,1.8,1.8c0,0.5,0,1,0,1.5c0.8,0,1.6,0,2.4,0
			c0-0.2,0-0.4,0-0.6c0-1.9,0-3.7,0-5.6c0-1.5-0.6-2.2-2.2-2.2c-2,0-4,0-6,0c-2,0-4,0-6,0c-1.6,0-2.2,0.6-2.2,2.2c0,1.9,0,3.7,0,5.6
			C33.4,21.2,33.4,21.4,33.4,21.6z"/>
	</g>
</g>
</svg>
