<?xml version="1.0" encoding="utf-8"?>
<!-- Generator: Adobe Illustrator 25.4.1, SVG Export Plug-In . SVG Version: 6.00 Build 0)  -->
<svg version="1.1" id="Title" xmlns="http://www.w3.org/2000/svg" xmlns:xlink="http://www.w3.org/1999/xlink" x="0px" y="0px"
	 viewBox="0 0 161.1 51.8" style="enable-background:new 0 0 161.1 51.8;" xml:space="preserve">
<style type="text/css">
	.st0{opacity:0;fill:#FFFFFF;}
</style>
<path class="st0" d="M0,0.7h12c8.2,0,11.7,3.8,11.7,11.6v2c0,5.2-1.6,8.4-5.1,9.9v0.1c4.2,1.4,5.9,5.2,5.9,10.5v4.3
	c0,7.8-4.1,11.9-12,11.9H0V0.7z M11,21.2c3,0,4.8-1.3,4.8-5.3v-2.8c0-3.6-1.2-5.2-4-5.2H7.9v13.3H11z M12.4,43.9
	c2.7,0,4.1-1.2,4.1-5v-4.4c0-4.7-1.5-6.1-5.1-6.1H7.9v15.5H12.4z"/>
<path class="st0" d="M26.9,39.1v-2.9h7.5v3.4c0,3.6,1.6,4.9,4.1,4.9s4.1-1.3,4.1-5c0-4.2-1.6-6.8-6.8-11.4c-6.6-5.9-8.8-10-8.8-15.7
	C27,4.6,31.1,0,38.8,0s11.5,4.6,11.5,12.7v2.1h-7.5v-2.6c0-3.6-1.4-5-4-5s-4,1.4-4,4.8c0,3.7,1.7,6.3,6.8,10.9
	c6.6,5.8,8.7,9.9,8.7,16.1c0,8.2-4.2,12.8-11.9,12.8S26.9,47.2,26.9,39.1z"/>
<path class="st0" d="M54,45.6c0-7.2,2-11.6,7.9-17.8c6-6.4,7.8-10.2,7.8-14.9c0-4.5-1.6-5.8-4.1-5.8s-4.1,1.4-4.1,5v5.4H54v-4.9
	C54,4.6,58,0,65.8,0s11.8,4.6,11.8,12.7c0,6-2.4,11.3-9.8,19.1c-4.8,5-6,7.5-6,11.1v1.1h15v7.2H54V45.6z"/>
<path class="st0" d="M81.6,39.1V12.7c0-8.1,4.2-12.7,12-12.7s12,4.6,12,12.7v26.5c0,8.1-4.2,12.7-12,12.7S81.6,47.2,81.6,39.1z
	 M97.7,39.6V12.2c0-3.6-1.6-5-4.1-5s-4.1,1.4-4.1,5v27.5c0,3.6,1.6,5,4.1,5S97.7,43.2,97.7,39.6L97.7,39.6z"/>
<path class="st0" d="M109.9,45.6c0-7.2,2-11.6,7.9-17.8c6-6.4,7.8-10.2,7.8-14.9c0-4.5-1.6-5.8-4.1-5.8s-4.1,1.4-4.1,5v5.4h-7.5
	v-4.9c0-8.1,4-12.7,11.8-12.7s11.8,4.6,11.8,12.7c0,6-2.4,11.3-9.8,19.1c-4.8,5-6,7.5-6,11.1v1.1h15v7.2h-22.8V45.6z"/>
<path class="st0" d="M137.4,39.3v-4.1h7.5v4.4c0,3.6,1.6,5,4.1,5s4.1-1.2,4.1-5.7v-4.1c0-4.7-1.6-6.4-5.2-6.4h-2.7v-7.2h2.9
	c3,0,4.8-1.3,4.8-5.3v-3.7c0-3.6-1.7-5-4-5s-3.8,1.4-3.8,4.7v3.3h-7.5v-2.7c0-8.1,4-12.5,11.6-12.5s11.6,4.4,11.6,12.4v1.8
	c0,5.4-1.7,8.7-5.6,10.1v0.1c4.2,1.6,5.8,5.2,5.8,10.4v4.5c0,8.1-4,12.5-11.8,12.5S137.4,47.3,137.4,39.3z"/>
</svg>
