<svg id="Title" xmlns="http://www.w3.org/2000/svg" viewBox="0 0 161.05 51.81"><defs><style>.cls-1{fill:#fff;}</style></defs><path class="cls-1" d="M0,4.1H12c8.2,0,11.73,3.81,11.73,11.59v2c0,5.18-1.59,8.42-5.11,9.86v.14c4.24,1.44,5.9,5.18,5.9,10.51v4.32c0,7.77-4.1,11.94-12,11.94H0ZM11,24.61c3,0,4.75-1.3,4.75-5.33v-2.8c0-3.6-1.22-5.18-4-5.18H7.92V24.61Zm1.44,22.67c2.66,0,4.1-1.23,4.1-5V37.92c0-4.68-1.51-6.11-5.11-6.11H7.92V47.28Z" transform="translate(0 -3.38)"/><path class="cls-1" d="M26.87,42.53V39.65h7.48V43.1c0,3.6,1.59,4.9,4.11,4.9s4.1-1.3,4.1-5c0-4.17-1.59-6.84-6.77-11.37C29.17,25.76,27,21.66,27,15.9,27,8,31.12,3.38,38.82,3.38S50.33,8,50.33,16.05v2.08H42.85V15.54c0-3.6-1.44-5-4-5s-4,1.36-4,4.82c0,3.67,1.65,6.33,6.84,10.86,6.62,5.83,8.7,9.86,8.7,16.12,0,8.21-4.17,12.81-11.94,12.81S26.87,50.59,26.87,42.53Z" transform="translate(0 -3.38)"/><path class="cls-1" d="M54,49c0-7.19,2-11.58,7.91-17.77,6-6.41,7.78-10.22,7.78-14.9,0-4.53-1.59-5.75-4.11-5.75s-4.1,1.36-4.1,5v5.4H54V16.05c0-8.06,4-12.67,11.8-12.67S77.63,8,77.63,16.05c0,6-2.45,11.29-9.79,19.07-4.75,5-6,7.55-6,11.08v1.08h15v7.19H54Z" transform="translate(0 -3.38)"/><path class="cls-1" d="M81.55,42.53V16.05c0-8.06,4.24-12.67,12-12.67s12,4.61,12,12.67V42.53c0,8.06-4.24,12.66-12,12.66S81.55,50.59,81.55,42.53Zm16.12.5V15.54c0-3.6-1.59-5-4.11-5s-4.1,1.36-4.1,5V43c0,3.6,1.58,5,4.1,5S97.67,46.63,97.67,43Z" transform="translate(0 -3.38)"/><path class="cls-1" d="M109.93,49c0-7.19,2-11.58,7.91-17.77,6-6.41,7.77-10.22,7.77-14.9,0-4.53-1.58-5.75-4.1-5.75s-4.1,1.36-4.1,5v5.4h-7.48V16.05c0-8.06,4-12.67,11.8-12.67s11.8,4.61,11.8,12.67c0,6-2.45,11.29-9.79,19.07-4.75,5-6,7.55-6,11.08v1.08h15v7.19H109.93Z" transform="translate(0 -3.38)"/><path class="cls-1" d="M137.44,42.67v-4.1h7.49V43c0,3.6,1.58,5,4.1,5s4.1-1.23,4.1-5.69v-4.1c0-4.68-1.58-6.4-5.18-6.4h-2.66v-7.2h2.88c3,0,4.75-1.3,4.75-5.33V15.61c0-3.59-1.66-5-4-5s-3.82,1.36-3.82,4.67v3.31h-7.48V15.9c0-8.06,4-12.52,11.59-12.52s11.58,4.39,11.58,12.45v1.8c0,5.4-1.72,8.71-5.61,10.15v.14c4.25,1.58,5.83,5.25,5.83,10.36v4.46c0,8.06-4,12.45-11.8,12.45S137.44,50.73,137.44,42.67Z" transform="translate(0 -3.38)"/></svg>