<svg id="logo" xmlns="http://www.w3.org/2000/svg" viewBox="0 0 100 100"><defs><style>.cls-1{fill:#fff;fill-rule:evenodd;opacity:0.8;}</style></defs><path class="cls-1" d="M38.21,21.59a2.52,2.52,0,0,1-.58,1.24,6,6,0,0,1-1.07,1.07l.41.89a6.93,6.93,0,0,0,1.6-1.6L40.22,27l1.5-.69-2.26-5.25"/><path class="cls-1" d="M46.65,22.12a1.48,1.48,0,0,1-1.63.21,1.05,1.05,0,0,1-.46-.74,1,1,0,0,1,.18-.81,1.32,1.32,0,0,1,1.6-.23,1.07,1.07,0,0,1,.51.79,1.12,1.12,0,0,1-.2.78m1-2.28a3.79,3.79,0,0,0-4.09.46A1.63,1.63,0,0,0,43,21.79,1.57,1.57,0,0,0,43.9,23a3.1,3.1,0,0,0,1.81.28,2.59,2.59,0,0,0,1.44-.71A2,2,0,0,1,46.93,24c-.5.44-1.55.73-1.86-.08l-1.57.36a1.45,1.45,0,0,0,1,.91,3.87,3.87,0,0,0,3.81-.89,2.88,2.88,0,0,0,.53-2.39A2.64,2.64,0,0,0,47.64,19.84Z"/><path class="cls-1" d="M54,22.33a4.09,4.09,0,0,1-.33,1.42,1,1,0,0,1-1.45.28c-.53-.36-.41-1.4-.33-1.91a4.33,4.33,0,0,1,.33-1.42,1,1,0,0,1,1.45-.28c.53.35.39,1.41.33,1.91m-2.72-2.67a3.11,3.11,0,0,0-1.09,2.23,3,3,0,0,0,.54,2.37,3.41,3.41,0,0,0,3.91.48,2.81,2.81,0,0,0,1.09-2.19,2.79,2.79,0,0,0-.58-2.43A3.5,3.5,0,0,0,51.29,19.66Z"/><path class="cls-1" d="M58.2,20.24l-.38.94,3.48,1.4a9.34,9.34,0,0,0-2.54,1.35,5.49,5.49,0,0,0-1.55,2l1.45.56a5.51,5.51,0,0,1,1-1.45,7.21,7.21,0,0,1,1.68-1.29A6.68,6.68,0,0,1,63.16,23l.28-.74"/><path class="cls-1" d="M83.53,24.36A8.08,8.08,0,0,0,82.23,23c-.28-.11-.38-.11-.53,0s-.36.35-.41.43.21.33.38.46.39.43.61.5.54.08.46.28a1,1,0,0,1-.71.51c-.51,0-.89-.71-1.43-1.14-.15-.15-.43-.15-.63-.23s-.28,0-.33.15.15.28.18.46.25.28.51.46a4.27,4.27,0,0,1,.91.84c.08.17.26.35-.2.55a1.94,1.94,0,0,1-1.47.21,1.4,1.4,0,0,1-.84-.84c-.08-.26-.26.08-.36.3s-.33.54-.25.72.1.3.5.4a6.71,6.71,0,0,0,1.73.28c.89-.1,1.25-.74,1.4-.71s.28.18.38.28.35.61.63.61.59-.15.44-.64c-.1-.28-.31-.28-.61-.76,0-.12.12-.48.23-.45a3.45,3.45,0,0,0,1.24,0,1.2,1.2,0,0,0,.2-.69c0-.1-.63-.48-.73-.63M89,22.43c-.2-.31-1.27-.64-1.5-.76s0-.41-.1-.54-.35-.07-.53-.25-.18-.36-.1-.43.12-.21-.08-.36-.18,0-.63,0-.51.05-.51.18,0,.32-.18.35a1.08,1.08,0,0,0-.74.41c-.28.35-.43.43-.43.53s.15.1.28.1a6.85,6.85,0,0,0,.94-.35c.18-.11.74-.26.84-.18s.15.28,0,.35-.15,0-.33,0a2.17,2.17,0,0,0-1.09.38c-.26.18-.33.38-.18.53a4.93,4.93,0,0,0,1.8.15c.16-.05.21-.4.64-.43a1.26,1.26,0,0,1,.68.36c.18.13.31.1.28.28s-.28.17-.5.2-.28,0-.28-.2,0-.21-.28-.18-.56.25-.92.35a12.38,12.38,0,0,1-1.37.18c-.18,0-1-1.22-1.17-1.42a.39.39,0,0,1-.1-.43,9.92,9.92,0,0,1,2-1.19c.54-.31.64-.51.61-.79s-.66-.15-1,.08a7,7,0,0,0-1.22,1c-.21.17-.48.45-.61.43s-.23-.61-.36-.76-.2-.18-.48-.13-.51.38-1.24.81a3.52,3.52,0,0,0-.64.36.31.31,0,0,0,0,.43c.15.18.59.05.81,0a4.57,4.57,0,0,0,.59-.23c.1,0,.55.51.89.76s1.34,1.53,1.55,1.65A5.22,5.22,0,0,1,85.59,25a.17.17,0,0,1,0,.28c-.3.18-.25.18-.23.31a3.09,3.09,0,0,0,.89.68c.23,0,.79,0,.89-.2s-.1-.3-.21-.43-.1-.53-.4-.71a9.88,9.88,0,0,1-1.35-1.5,1.37,1.37,0,0,1,.89-.1c.18.07.18.38.43.43s.21-.05.38-.08.23,0,1.05,0,.88-.17,1.06-.43A.73.73,0,0,0,89,22.43ZM64.42,12.85c-.17,0-.35.38-.45.56s0,.46.07.79a3,3,0,0,0,.66,1.24c.23.11.41-.17.69-.63s.28-.51-.07-1S64.76,12.88,64.42,12.85Zm2-5.69a6.14,6.14,0,0,0-1.93,1.48c-.58.76-.71,1-.94.86a4,4,0,0,1-.58-.25A3.77,3.77,0,0,0,61.78,9a1,1,0,0,0-.93.5c-.16.28,0,.28.22.49a4,4,0,0,0,1.32.35c.18,0,.41,0,.36.18a11.42,11.42,0,0,1-1.5,1.22c-.38.28-1.17.84-1.34,1-.31.35.1.6.28.58a11,11,0,0,1,1.24-.46,3.74,3.74,0,0,0,1.5-.71c.35-.25,1-1,1.17-1s1.5.89,1.82.86a2.13,2.13,0,0,0,.66-.5c.26-.21.13-.44-.22-.46a5.57,5.57,0,0,1-1.43-.59c-.4-.2-.07-.4.11-.63s1.16-1.09,1.67-1.6.59-.79.54-.91S66.76,7,66.38,7.16ZM42.35,9c-.22,0-.38.1-.63.36s-.1,1.24-.43,1.67a1.58,1.58,0,0,1-.21-.4c-.07-.18-.15-.43-.33-.48s-.2.12-.3.3a2.79,2.79,0,0,1-.53.64c-.41.22-.26-.59-.54-.89s-.45.25-.43.68a8.76,8.76,0,0,0,.18.89,5,5,0,0,0,.07.74,4.87,4.87,0,0,0,.49,1.22c.25.33.58.18.43-.54,0-.35-.46-1.14-.2-1.5a.39.39,0,0,1,.63-.07c.2.18.2.68.36.84s.35-.16.51-.36a7,7,0,0,1,.17-.84c0-.2.18-.38.23-.58s.15-.61.36-.61.5.35.61.53.1.43.17.79A9.47,9.47,0,0,1,43,13c0,.26-.07.38,0,.46s.3.2.45-.86a5.94,5.94,0,0,0,0-2.14A1.87,1.87,0,0,0,42.35,9ZM45,6.81c-.13,0-.28.05-.46.1A7.31,7.31,0,0,1,42.89,7c-.18-.05-.28-.12-.31-.22s0-.31,0-.49-.13-.4-.28-.4-.43.23-.56.4-.26.23-.26.71c0,.21,0,.36.13.49a3.17,3.17,0,0,0,1,.15,6.51,6.51,0,0,0,1.88.1,2.18,2.18,0,0,0,.76-.45C45.35,7.11,45.33,6.91,45,6.81Zm-8.89,6.45V12.14c-.05-.25-.58-.94-1-2.11-.08-.25-.35-.25-.38,0a25.86,25.86,0,0,1,.61,2.66c.05.82.1,1.63.18,2.44.12.46.81,1.35,1,1.25s.28-.21.1-.92S36.31,14,36.13,13.26Zm-.76-4.09a.92.92,0,0,0-.43-1.45c-.23-.1-.08.43-.08.89a3.4,3.4,0,0,1,0,.69C34.76,9.47,34.84,10,35.37,9.17Zm3.91-1.25a.58.58,0,0,1,.13.44c0,.33-.26.43-.31.63s-.08.59.1.66c.54.18.66-.76.66-1.55a3.92,3.92,0,0,1,0-.89c0-.28.49-.48.56-.38.11.26.21.61.43,1a2,2,0,0,0,.74.84C42.3,9,42,8.41,42,8c0-.16-.15-.11-.18-.16s-.33.1-.45,0a4.27,4.27,0,0,1-.59-1.3c0-.18.43-.38.54-.56s0-.53-.11-.5-1.26,1.37-1.42,1.49a.23.23,0,0,1-.38,0c-.1-.07-.15-.63.66-1.77.26-.36.18-.39,0-.49s-.35.13-.56.13-.43-.08-.46-.18,0-.38,0-.56c-.21-.43-.84-.17-1.17.21S36.56,6.58,37,6.86s.81-.64,1.17-1a1.38,1.38,0,0,1,.91-.46c.36,0-.48,1.42-.2,2.46.08.21-.41.56-.59.41,0,0-.45-.71-.76-.81s-.4.63-.13,1,1,.21-.27,1.86a1.59,1.59,0,0,0-.28,1.09c0,.51.1.89.43.94s.63-.41.79-.61a4.69,4.69,0,0,0,.45-1.52,8.55,8.55,0,0,1,.08-1.38A2.67,2.67,0,0,1,39.28,7.92Zm-3.63-.55c.08-.08.1-.1.12-.18-.3-.36-.73-1.14-.93-1.07a1.72,1.72,0,0,0-.26.33c-.15.23,0,.53.46.84A2.37,2.37,0,0,0,35.65,7.37Zm-17,16.07a3,3,0,0,0-.92.18c-.33.36-.41.59-.89,1.07.1,0-.1.38,0,.58a1.41,1.41,0,0,0,.68.54c.28.07.92.25,1.14-.39.11-.32-.35-.5-.48-.55v-.18h.18c0-.05.61.2.79.2a1.61,1.61,0,0,0,.15-1.45C19.14,23.19,19,23.37,18.61,23.44Zm-1.56-.78a.76.76,0,0,0-.43-.51c-.4-.1-.94.78-.88,1s.1.44.25.39S17.08,23.09,17.05,22.66Zm3.84-.77a12.72,12.72,0,0,0-2.39-2.23c-.91-.66-1.88-1.19-2.46-.79s-.36.69-.48,1.15a1.89,1.89,0,0,1-.64.78,7.09,7.09,0,0,0-1.32,1.27c-.15.26-.58.15-.69.36a.88.88,0,0,0-.12.66c.28,1.06,2.51,3.2,2.51,3.2l1.07,1a8.67,8.67,0,0,0,1.8,1.6c.36.13.89,0,.79-.18-.38-.71-1.5-1.42-2-2.06-.64-.88-1.42-1.49-2.06-2.31-.15-.18-.33-.51-.48-.71a.76.76,0,0,1,0-.58c.12-.21.36-.46.53-.74a19.57,19.57,0,0,0,1.12-1.68,1.46,1.46,0,0,1,.48-.45c.23-.18.69-.1,1-.05a12.1,12.1,0,0,1,2.36,2c.74.71.91.66,1.17,1.55.08.33-.33.23-.36.36-.15.4-.15.76.66,1,.16,0,.49.21.61.11s.08-.28,0-.61A6.55,6.55,0,0,0,20.89,21.89Z"/><path class="cls-1" d="M74.92,43.13a3,3,0,0,1-1.35,2c-1.31,1-1.09,1.77-1.35,2.11,0,.08-.14.18-.25.15s-.33-.66-.33-1.19a4.18,4.18,0,0,1,.71-1.68,11.44,11.44,0,0,1,1.35-1.83c.89-.81,1.24,0,1.22.46m-.74,17c-.06,3.22-.07,4.78-1.37,6.78-.55.85-1.2,1.57-1.83,2.37-1.47,1.16-1.14.3-.41-.89,2.09-2.46,2.24-6,2.19-9s-.31-6.12,0-5.58A19.72,19.72,0,0,1,74.18,60.12Zm-6.27,9.73a13.42,13.42,0,0,1-3,2.36,11.17,11.17,0,0,1-3,1.17.72.72,0,0,1-.23,0c-.25-.08-.35-.39-.3-1.12a6.43,6.43,0,0,1,.3-1.75,8.37,8.37,0,0,1,.23-.82c.23-.89.54-1.7.66-2.33a20.94,20.94,0,0,1,1-4,1.87,1.87,0,0,1,.63-.76,7.66,7.66,0,0,1,.72-.33,8.2,8.2,0,0,1,2.53-.41c1,0,2,3.61,2,4.37A8.84,8.84,0,0,1,67.91,69.85ZM61,67c-.26,0-.54-.43-1.07-1.42A2.06,2.06,0,0,1,60,63a1.66,1.66,0,0,1,1.93-.4c.41.15.64.43.36,1.57-.16.74-.26,1.27-.36,1.68S61.36,67,61,67Zm-.08,3.28c-.53,1.49-.89,4.21-1.7,4.29a2.79,2.79,0,0,1-.5,0c-.85-.13-1.94-.65-2-1.33a1.86,1.86,0,0,1,.89-2.28c.46-.32.94-.62,1.38-1a14.06,14.06,0,0,1,1.16-.85c.28-.17.71-.28.89,0a.9.9,0,0,1,0,.6C61,69.9,60.91,70.08,60.87,70.26Zm-2.39-13.9a25.75,25.75,0,0,1,.66-3.14,14.31,14.31,0,0,1,.92-2.7c.3-.61.53-.25.89.08.57.46,2.66,1.81,3.12,1.72a3.09,3.09,0,0,0,.87-.17,23.07,23.07,0,0,1-.72,4.06c-.25.84-.35,2.49-.63,3.51a1.35,1.35,0,0,1-.41.78,3.66,3.66,0,0,1-2.23.13C58.86,60.33,58.28,58.27,58.48,56.36Zm4.6-11.25a9.22,9.22,0,0,1,1.86-1.83,10.14,10.14,0,0,1,1.64-1.19c1-.59,1.12.58.89,1.24s-1,3.15-1.27,4.24-.53,2.85-1,3a1.76,1.76,0,0,1-1.65-.18A2.93,2.93,0,0,1,62.29,48,3.7,3.7,0,0,1,63.08,45.11Zm-7.72,29c-.14.6-.19.68-.77.89l-.4.14c-.72.22-1.13,0-.89-.42a3.33,3.33,0,0,1,.9-1.08,1.09,1.09,0,0,1,.55-.18C55.11,73.4,55.49,73.53,55.36,74.09ZM47,74.55c-.52-.83-.09-1.85.38-3.16.14-.39.24-.81.36-1.21.51-2,.68-1.88,1-3.28s.43-2.08.89-2.31a.79.79,0,0,1,.87.11c.3.18.63.46,1,.68A2.34,2.34,0,0,1,53,67.79a11.22,11.22,0,0,0,1.29,3.44c.33,1-2,2.8-2.79,3.12C50.43,74.82,47.63,75.57,47,74.55Zm-.43-11.33c.08-.54,1.25.44,1.42.61.46.28.33.53.08,1.47-.13.57-.2,1.9-.61,2h-.1c-.44,0-.56-1.42-.64-2.16A4.59,4.59,0,0,1,46.52,63.22Zm-.46,8.41c-.38,1.42-.68,2.31-1.22,2.39-.94.21-1.24-1.24-1.42-1.86-.41-1.34-.74-1.8-1-2.51s-.54-.76-.13-1.27.46-.26,1.37.17c.75.37,1.34.75,2,1.1C46.21,69.9,46.42,70.26,46.06,71.63Zm-3.88,2.26a8.74,8.74,0,0,1-3-.15c-.51-.1-.87-.33-.61-1.1a5.18,5.18,0,0,1,.61-1.19,5,5,0,0,1,1.24-1.27.45.45,0,0,1,.33-.08c.14,0,1.31,2.81,1.53,3.26A.4.4,0,0,1,42.18,73.89ZM36.82,71.5a2.68,2.68,0,0,1-.51.31c-.94.35-1.09-.31-1.7-.66s-1.27-.33-1.2-1a30.17,30.17,0,0,1,1.07-3.45c.13-.46,1.25.43,1.63-.44.17-.48-.87-1.88-.74-2.23s.81-.38,1.45-.31c1.2.08,1.8.07,2.35,1.32a6.23,6.23,0,0,1,.64,2.82A11.23,11.23,0,0,1,36.82,71.5ZM32.9,67.62c-.15.76-.53,1.65-.81,1.57a2.83,2.83,0,0,1-.84-.3A4.2,4.2,0,0,1,29.63,67c-.21-.69-.82-1.07.23-1.32a5.73,5.73,0,0,1,1.43.08c.84.11,1.69.27,1.77.27C33.46,66.19,33.06,66.8,32.9,67.62Zm-2.64-14.1c.28-1.76.22-2.55.59-3a3,3,0,0,1,.72-.56.93.93,0,0,1,1.36.29c1,1.35,1.5,1.91,2.21,2.26a4,4,0,0,0,1.68.18c.28,0,.5,0,.45.08-.07.25-.2,1.06-.45,2s-.51,1.8-.79,2.59c-.66,1.7-1,4.34-1.52,4.42s-1.84-.64-3.06-2.45A8.09,8.09,0,0,1,30.26,53.52ZM34,46c1-1.64,3.31-2.55,5.13-2.62.61-.05,1,0,1,.21a14.58,14.58,0,0,1-1,3.63c-.2.64-.49,1.36-.75,2.16-.46,1.42.08,1.88-1.17,2a2.49,2.49,0,0,1-2.64-1.75C34.05,48.62,32.8,48.21,34,46Zm9.39,7c.11-.91.26-2.31.77-2.82l0,0a.61.61,0,0,1,.26-.16c.65-.15,2.43,1.84,3.22,2.44a9.3,9.3,0,0,0,2.27.29c.17,0,.48,0,.48.27s-.11,1-.3,2c-.06.31-.11.62-.17.93-.43,2.37-1.06,5.29-1.42,5.29a2.44,2.44,0,0,1-.9-.32A8.67,8.67,0,0,1,43.39,53Zm3.81-8.49a6.76,6.76,0,0,1,2.73-2.16c.6-.27,3.52-1.39,3.65-.27a6.13,6.13,0,0,1-.61,3c-.81,2.26-1.5,6-2,6.2a3.11,3.11,0,0,1-2.84-1C47,48.64,45.71,46.42,47.2,44.52Zm29.93-6.9a42.22,42.22,0,0,0-7.54-8.34,17.62,17.62,0,0,0-4.3-2.82,8.65,8.65,0,0,0-1.7-.55c-1.07-.23-1.09.05,0,.66.44.24.9.46,1.35.71,2.9,1.72,5.55,5.38,7.35,8.32a17.64,17.64,0,0,1,2.17,4.79,7.79,7.79,0,0,0-4.17,5c-.88,3.56-.5,18.24-.5,18.24-.06-.28-1-3.3-1.55-3.56s-2.19.33-3.3.1h-.06c-.61-.18.83-5.78,1.35-7.84.13-.46,1.14-.26,1.24-1.71,0-.48-.63-.86-.53-1.29,1.07-3.79,2.08-6.94,2.44-7,3.2-1,.05-1.62.05-1.62a4.32,4.32,0,0,0-2.16.1,15.91,15.91,0,0,0-1.57.68,5.84,5.84,0,0,0-.76-1.24,5.41,5.41,0,0,0-3.07-2,2.24,2.24,0,0,0-1.46.31c-1.06,1.12-.4,1.68.54,2s1.81.29,2.64.81a6.18,6.18,0,0,0,1.19.66c-.38.2-.78.43-1.19.66a12.14,12.14,0,0,0-3.76,3c-1.71,3-3.67,6.21-4.62,9.43-1.07,3.6-.05,8,.61,9s2.59,2.72,2.13,4.16c-.2.74-1.5,2.29-2,2.21s-1-3.81-1.35-4.87a2.77,2.77,0,0,0-.56-.67,26.42,26.42,0,0,0-3.88-2.71.78.78,0,0,1-.13-.46v-.43c.13-1.91,1.42-6,1.68-7.47.05-.25.1-.61.2-1s1.19-.08,1-1.43a9.41,9.41,0,0,1-.22-1.19c.53-1.75,1.11-3.71,1.62-5.18a.06.06,0,0,1,0,0,15.09,15.09,0,0,1,.84-2.21,3,3,0,0,1,1.7-.94c.83-.08.73-.56.28-1.07a2,2,0,0,0-.9-.33,8.14,8.14,0,0,0-4.59.21,11.68,11.68,0,0,1-3,.48c-.52.13-1.73-2.11-2.23-2.52s-1.56-.91-2.16-.34c-.45.43-.62,1.66,0,2.06a7.76,7.76,0,0,0,1.75.44c.86.28,1.16,1,1,1.42a30.64,30.64,0,0,1-2.28,3c-2.38,3.26-5.06,8.17-3.84,12.27A23.86,23.86,0,0,0,43.42,63a7.13,7.13,0,0,1,.69,2.8c0,.86-1.42.79-2,.84-.79.07-1.13,0-1.4-1.68a7.86,7.86,0,0,0-.33-1.4v0c-.58-1.45-2.34-1-3.55-1a1.81,1.81,0,0,1-.79-.1c-.26-.1.23-1.88.79-4s1.32-4.52,1.62-5.76c.08-.18.42-.12.69-.2a.64.64,0,0,0,.33-.18,4.41,4.41,0,0,0,.1-1.07c0-.2-.25-.25-.43-.3a.21.21,0,0,1-.1-.26,3.34,3.34,0,0,1,.1-.43c.42-1.3.86-2.6,1.28-3.9.34-1,.6-1.77.65-1.86,0-.25.55-.16.95-.19a.82.82,0,0,0,.43-.12.91.91,0,0,0-.19-1.44,3.86,3.86,0,0,0-1.88-.29H39.13c-.92,0-1.86,0-2.31,0-1.24-.41-.62-1.78-1.6-2.38-2-1.22-2.47.45-1.81,1.26.82,1,1.43.44,1.55,1.78.08.49-5.2,5-6,6.15s-2,5.74-1.6,7.75.53,3.35,2.26,5.15a6.16,6.16,0,0,0,1.6,1.15h0c.77.43,1.45.71,1.45.94s-.63.17-1.45.2a5.67,5.67,0,0,0-1.09.1,15.18,15.18,0,0,0-1.88.58c-.51.06-2.87-2-3.48-4.34s1.27-7.11,1.5-8.53-.53-9.88-.53-10.65.94-1.62,2.66-1.7A4.78,4.78,0,0,1,31.23,41l0,0c.18.05.28.1.39.05.48-.1.58-1.27-.39-2.54,0,0,0,0,0,0l-.36-.38c-1.32-1.42-2.59-.89-2.94-1.5s.68-.73,1.62-1.7a2.57,2.57,0,0,0,.23-3.33c-.69-1.22-3.48-1.78-3.35-1s1.12,1.4.89,2.74c-.28,1.83-1.63,2.09-3,3.41s-2.66,1.7-2.08,5.94a50.69,50.69,0,0,1,.16,12.4c-.51,3.6-1.5,5.79.07,9.24s8,10.16,8,10.16-.28.79-.56,1.48.36.83.74.83c.2,0,.52-.56.63-.76.23-.46.43-.94.43-.94a26.68,26.68,0,0,0,5.14,2.85,16.2,16.2,0,0,0,5.4,1.14c1.06.1,1.55.18,1.38.61s-.13.63-.28.91-.25.87-.25.87c.35.31.92.53,1.24.09a2.78,2.78,0,0,0,.43-1.26,2.37,2.37,0,0,1,.36-1c3.09.21,6.12.12,9.22.12h3.55a3.26,3.26,0,0,1-.23.94c-.22.48-.07.36-.07.89a1.25,1.25,0,0,0,1.15-.07c.53-.42.38-1.53.65-2.14a6.44,6.44,0,0,1,1.23-.3,20.92,20.92,0,0,0,6.87-3.23c2.43-1.69,6-5,7.48-7.5a23,23,0,0,0,2-5.35c.46-1.3.08-3.08-.66-5.31s-1.55-5.26-2-7.11-.61-3.38-.08-4.19.61-.89,1.37-.49,1,1.17.71,4.42c-.33,3.51,0,4.27,1,2.19a16.35,16.35,0,0,0,.83-5.34,11.81,11.81,0,0,1,.71-3.2C79.16,43,78.29,39.42,77.13,37.62Z"/><path class="cls-1" d="M95.36,51.38l0,.23c-.12.73-.38.73-1.07.69l-1.75-.1L90,50.32c-.46-.32-1.12-.86-1.12-1.48l.06-.12h-.23l-.18,2.41.23,0a1.84,1.84,0,0,1,0-.44c.33-.21.42-.34.82-.11a3.74,3.74,0,0,1,.37.24l2.06,1.53L89.7,53.64c-.34.17-.76.49-1,.06a.72.72,0,0,1-.07-.44v-.17h-.18l-.21,3h.18a.65.65,0,0,1,.06-.28,1.91,1.91,0,0,1,1-.89l3-1.7,1.65.1c.57.07,1,.1,1,.81v.26h.18l.2-3M93.79,61a.64.64,0,0,1-.36.5c-.12.08-.38.08-.81-.07l-5.16-1.35.26-1a1.67,1.67,0,0,1,.33-.64,1.24,1.24,0,0,1,1.17-.28l.07-.18-1.6-.35-1.5,5.51,1.56.48.07-.2a1.23,1.23,0,0,1-.66-.38.91.91,0,0,1-.26-.54A6.9,6.9,0,0,1,87.21,61l5.16,1.39c.58.15,1,.32.78,1l-.07.26.23,0L94,60.86l-.17,0Zm-2.44,7.18c-.31.63-.74.47-1.25.18l-4-2a1.73,1.73,0,0,1-.68-.48c-.14-.32.06-.6.18-.89l-.18-.08-1.35,2.67.18.08.1-.23c.37-.62.72-.5,1.27-.18l4,2c.53.25.89.52.58,1.14l-.13.26.18,0,1.38-2.67-.18,0Zm-5.84,4.35c-1,.28-2.07,1.19-3.13,1.27a.85.85,0,0,1-.6-.13c-.87-.76-.27-1.87.58-2.26a2.18,2.18,0,0,1,2,.18l.12-.13-2-1.4-.1.16a.46.46,0,0,1,.16.53,2.57,2.57,0,0,1-.36.25,2.4,2.4,0,0,0-1.3,2.32,1.75,1.75,0,0,0,2.37,1.42,11.75,11.75,0,0,0,1.37-.59,10,10,0,0,1,1.17-.53,1.24,1.24,0,0,1,1.14.1c1,.66.18,2-.64,2.49a2.06,2.06,0,0,1-.88.23,4.22,4.22,0,0,1-1.15-.36l-.1.13,2,1.4.1-.16c-.1-.1-.18-.2-.18-.27a.24.24,0,0,1,0-.21,1.79,1.79,0,0,1,.48-.43,2.7,2.7,0,0,0,1.35-2.49A1.81,1.81,0,0,0,85.51,72.57Zm-7.6,8.35-.5-.53-1.5-1.57c.58-.91,1.72-1.56,2.59-.61a1.24,1.24,0,0,1,.4,1.14A2.49,2.49,0,0,1,77.91,80.92Zm.77-.28,4,.72L84,80.06l-.15-.13a1.72,1.72,0,0,1-.84.41,3,3,0,0,1-1.24,0l-2.47-.43a1.8,1.8,0,0,0,0-2.49c-1.11-1.12-2.4-.19-3.32.74l-1.83,1.75.15.12.18-.17a.61.61,0,0,1,.56-.23c.15,0,.4.18.68.48l1.71,1.78,1.42,1.45c.59.64.62.87,0,1.47l.13.13,2.16-2.09L81,82.65c-.49.63-.89.53-1.45,0l-1.4-1.44ZM75.3,85.32a2.64,2.64,0,0,1-.23,1.75,19.8,19.8,0,0,1-1.68,1.14c-.51.3-.65.11-.94-.35L71.21,86l1.29-.83c.77-.46,1-.26,1.5.28l.13-.11-1.32-2-.18.1c.47.73.25,1-.35,1.48L71,85.65l-1.49-2.31,1.6-1a2.61,2.61,0,0,1,.63-.36.88.88,0,0,1,.51.08,2.36,2.36,0,0,1,.61.5l.18-.1-.89-1.24-4.52,2.9.1.17c.24-.13.53-.38.81-.3s.33.23.59.63l2.48,3.76c.2.3.4.57.26.94a1.54,1.54,0,0,1-.33.36l-.2.12.1.16L76,87l-.48-1.8Zm-10.8.23.08.18a.76.76,0,0,1,.42-.06c.52.06.51.46.47,1.12l-.23,4.32-3-3.3c-.6-.6-.79-.93.07-1.32l0-.18-2.72.94.05.18c.61-.23.95,0,1.35.45l4.44,4.88.18-.08.38-6.4A1.24,1.24,0,0,1,66.58,85l0-.17Zm-6.83,7.82-.86-4.44a1.27,1.27,0,0,1,0-.84.84.84,0,0,1,.56-.36l.25,0,0-.18-3,.56,0,.18c.86-.09,1-.09,1.17.83l.86,4.45c.16.62.14,1-.54,1.17l-.22,0,0,.18,2.92-.56,0-.18C57.91,94.28,57.88,94.2,57.67,93.37Zm-6.93-4.88H51a.65.65,0,0,1,.56.26,1.52,1.52,0,0,1,.1.76l-.13,4.06-4-5.41-1.87-.07v.23A1.61,1.61,0,0,1,47,89.1l-.18,4.83a1.91,1.91,0,0,1-.12.74.86.86,0,0,1-.66.25h-.26v.18l2.44.07V95h-.25a.65.65,0,0,1-.56-.25c-.13-.1-.15-.38-.13-.81l.15-4.27,4.35,5.77h.17l.23-5.87a1.3,1.3,0,0,1,.13-.76c.15-.27.59-.23.86-.23l0-.18-2.41-.12ZM42,87.71l.26.07a.85.85,0,0,1,.53.36c.08.13,0,.43-.08.84L42,91.72a4.91,4.91,0,0,1-.56,1.5,2.18,2.18,0,0,1-2.16.53c-1.47-.31-1.44-1.52-1.19-2.77L38.85,88c.1-.41.17-.61.3-.71a.72.72,0,0,1,.66-.13l.28.07,0-.17-2.92-.74-.05.18c.31.09.58.11.76.43a1.31,1.31,0,0,1,0,.81L37.2,90.4A6,6,0,0,0,37,92.13c.22,2.11,3.67,3,4.9,1.27a4.89,4.89,0,0,0,.56-1.53l.71-2.74a1.53,1.53,0,0,1,.28-.71.67.67,0,0,1,.69-.18l.28.08,0-.18L42,87.53ZM28.81,82.3l.21.15a.79.79,0,0,1,.35.33.67.67,0,0,1,.08.3,5.13,5.13,0,0,1-.28.64l-2.28,3.89c-.21.35-.36.55-.49.6a.7.7,0,0,1-.68-.07L25.51,88l-.1.17L28,89.66l.11-.18-.21-.1a1.66,1.66,0,0,1-.35-.35.45.45,0,0,1-.08-.28,1.5,1.5,0,0,1,.28-.66L30,84.23c.21-.36.36-.59.49-.64a.79.79,0,0,1,.68.1l.21.1.07-.15-2.56-1.47ZM26.4,81a.81.81,0,0,1,.64.23l.2.12.13-.12-2.31-1.91-.16.16.21.17a1.52,1.52,0,0,1,.3.38,1.35,1.35,0,0,1,0,.33,3.15,3.15,0,0,1-.38.56l-3,3.71a.72.72,0,0,1-.48.38c-.13.05-.23.05-.3,0a.42.42,0,0,1-.05-.41,1.31,1.31,0,0,0,.07-.63.45.45,0,0,0-.12-.28.67.67,0,0,0-.44-.15,1.45,1.45,0,0,0-.33.22.74.74,0,0,0-.13.61,1.12,1.12,0,0,0,.46.66,1.23,1.23,0,0,0,1,.36,1.77,1.77,0,0,0,1-.28,3.14,3.14,0,0,0,1-.89l2.13-2.62C26.07,81.18,26.25,81,26.4,81Zm-6-1,.13-.1-1.73-2.11-.15.15a1,1,0,0,1,.28.49.42.42,0,0,1,0,.35,1.51,1.51,0,0,1-.48.51l-1.55,1.32a4.64,4.64,0,0,1-.66-.36,3.67,3.67,0,0,1-.59-.51,2.59,2.59,0,0,1-.53-1.24,2.93,2.93,0,0,1,.31-1.55,4.27,4.27,0,0,1,1.11-1.47,4,4,0,0,1,2-.92,2.37,2.37,0,0,1,2.1.89,2,2,0,0,1,.56,1.6,2.87,2.87,0,0,1-.48,1.35l.1.15,1.6-1.57-.15-.16A.74.74,0,0,1,22,77a.25.25,0,0,1-.17,0,1,1,0,0,1-.18-.41c-.15-.35-.26-.63-.36-.83s-.23-.36-.4-.59A3.77,3.77,0,0,0,19.42,74a3.82,3.82,0,0,0-5,2.74,3.71,3.71,0,0,0,1,3.2,4.77,4.77,0,0,0,.91.89,6.58,6.58,0,0,0,1.09.56L19.11,80a1.73,1.73,0,0,1,.64-.43.67.67,0,0,1,.56.28Zm-3.88-9.35a.77.77,0,0,1,.53.46l.1.2.18,0L16.27,69l-.18.07c.13.27.33.56.2.87a1.77,1.77,0,0,1-.66.48L12,72.29l2.74-6.2-.86-1.68-.18.08a1.52,1.52,0,0,1,0,1.58L9.41,68.25a1.93,1.93,0,0,1-.76.25c-.33,0-.46-.41-.61-.66l-.18.1L9,70.1l.18-.1L9,69.8a1.06,1.06,0,0,1-.07-.66,2,2,0,0,1,.68-.46l3.81-2L10.5,73.38l.1.15,5.24-2.66A2.11,2.11,0,0,1,16.55,70.61ZM5.37,52.68l5.31-.38.08,1a1.55,1.55,0,0,1-.08.71.86.86,0,0,1-.43.43,1.21,1.21,0,0,1-.61.21l0,.17,1.6-.17L10.88,49,9.26,49v.2a1.86,1.86,0,0,1,.79.15,1.46,1.46,0,0,1,.38.46,2.22,2.22,0,0,1,.15.68l0,.82-5.28.38a1.28,1.28,0,0,1-.79-.08A.62.62,0,0,1,4.25,51l0-.26L4,50.8l.22,3,.18,0v-.2a.86.86,0,0,1,.13-.66A1.86,1.86,0,0,1,5.37,52.68ZM7,62.87a2.16,2.16,0,0,1-1.17-1.35,1.93,1.93,0,0,1,.28-1.65c1-1.41,5.37-2.68,6.05-.08S8.66,63.69,7,62.87Zm4-5.14A3.93,3.93,0,0,0,5.85,59a3.19,3.19,0,0,0-.35,2.59c.78,3.2,5.12,3.25,6.68.76A3.3,3.3,0,0,0,11.06,57.73Z"/><path class="cls-1" d="M50,2.06A47.94,47.94,0,1,1,2.06,50,48,48,0,0,1,50,2.06M50,0A50,50,0,1,1,0,50,50.1,50.1,0,0,1,50,0Z"/><path class="cls-1" d="M50,15.27A34.76,34.76,0,1,1,15.25,50,34.82,34.82,0,0,1,50,15.27m0-1.39A36.15,36.15,0,1,1,13.86,50,36.21,36.21,0,0,1,50,13.88Z"/></svg>