<?xml version="1.0" encoding="utf-8"?>
<!-- Generator: Adobe Illustrator 25.4.1, SVG Export Plug-In . SVG Version: 6.00 Build 0)  -->
<svg version="1.1" id="logo" xmlns="http://www.w3.org/2000/svg" xmlns:xlink="http://www.w3.org/1999/xlink" x="0px" y="0px"
	 viewBox="0 0 100 100" style="enable-background:new 0 0 100 100;" xml:space="preserve">
<style type="text/css">
	.st0{fill-rule:evenodd;clip-rule:evenodd;fill:#FFFFFF;}
	.st1{opacity:0.8;fill-rule:evenodd;clip-rule:evenodd;fill:#1B56A9;enable-background:new    ;}
</style>
<circle class="st0" cx="50" cy="50" r="50"/>
<path class="st1" d="M38.2,21.6c-0.1,0.5-0.3,0.9-0.6,1.2c-0.3,0.4-0.7,0.8-1.1,1.1l0.4,0.9c0.6-0.4,1.2-1,1.6-1.6l1.7,3.8l1.5-0.7
	l-2.3-5.2"/>
<path class="st1" d="M46.7,22.1c-0.5,0.4-1.1,0.5-1.6,0.2c-0.3-0.2-0.4-0.4-0.5-0.7c-0.1-0.3,0-0.6,0.2-0.8c0.4-0.4,1.1-0.5,1.6-0.2
	c0.3,0.2,0.5,0.5,0.5,0.8C46.9,21.6,46.8,21.9,46.7,22.1 M47.6,19.8c-1.3-0.7-2.9-0.5-4.1,0.5c-0.4,0.4-0.6,0.9-0.6,1.5
	c0.1,0.5,0.4,1,0.9,1.2c0.6,0.3,1.2,0.4,1.8,0.3c0.5-0.1,1-0.3,1.4-0.7c0.1,0.5,0,1-0.2,1.4c-0.5,0.4-1.5,0.7-1.9-0.1l-1.6,0.4
	c0.2,0.4,0.5,0.8,1,0.9c1.3,0.4,2.8,0.1,3.8-0.9c0.5-0.7,0.7-1.6,0.5-2.4C48.8,21.1,48.3,20.3,47.6,19.8L47.6,19.8z"/>
<path class="st1" d="M54,22.3c0,0.5-0.1,1-0.3,1.4c-0.3,0.5-0.9,0.6-1.4,0.3c0,0-0.1,0-0.1-0.1c-0.5-0.4-0.4-1.4-0.3-1.9
	c0-0.5,0.1-1,0.3-1.4c0.3-0.5,0.9-0.6,1.4-0.3c0,0,0.1,0,0.1,0.1C54.2,20.8,54.1,21.8,54,22.3 M51.3,19.7c-0.7,0.6-1.1,1.4-1.1,2.2
	c-0.2,0.8,0,1.7,0.5,2.4c1.1,1,2.6,1.2,3.9,0.5c0.7-0.5,1.1-1.3,1.1-2.2c0.2-0.9,0-1.8-0.6-2.4C54.1,19.2,52.6,19,51.3,19.7
	L51.3,19.7z"/>
<path class="st1" d="M58.2,20.2l-0.4,0.9l3.5,1.4c-0.9,0.3-1.8,0.8-2.5,1.4c-0.7,0.5-1.2,1.2-1.5,2l1.5,0.6c0.3-0.5,0.6-1,1-1.5
	c0.5-0.5,1.1-0.9,1.7-1.3c0.6-0.3,1.2-0.6,1.8-0.8l0.3-0.7"/>
<path class="st1" d="M83.5,24.4c-0.4-0.5-0.8-1-1.3-1.4c-0.3-0.1-0.4-0.1-0.5,0s-0.4,0.4-0.4,0.4s0.2,0.3,0.4,0.5s0.4,0.4,0.6,0.5
	s0.5,0.1,0.5,0.3c-0.1,0.3-0.4,0.5-0.7,0.5c-0.5,0-0.9-0.7-1.4-1.1c-0.2-0.1-0.4-0.1-0.6-0.2s-0.3,0-0.3,0.1s0.2,0.3,0.2,0.5
	s0.2,0.3,0.5,0.5c0.3,0.2,0.6,0.5,0.9,0.8c0.1,0.2,0.3,0.4-0.2,0.5c-0.4,0.3-1,0.3-1.5,0.2c-0.4-0.1-0.7-0.4-0.8-0.8
	c-0.1-0.3-0.3,0.1-0.4,0.3s-0.3,0.5-0.2,0.7s0.1,0.3,0.5,0.4c0.6,0.2,1.1,0.3,1.7,0.3c0.9-0.1,1.2-0.7,1.4-0.7s0.3,0.2,0.4,0.3
	s0.3,0.6,0.6,0.6s0.6-0.1,0.4-0.6c-0.1-0.3-0.3-0.3-0.6-0.8c0-0.1,0.1-0.5,0.2-0.5c0.4,0.1,0.8,0.1,1.2,0c0.1-0.2,0.2-0.4,0.2-0.7
	C84.3,24.9,83.6,24.5,83.5,24.4 M89,22.4c-0.2-0.3-1.3-0.6-1.5-0.8s0-0.4-0.1-0.5s-0.3-0.1-0.5-0.2s-0.2-0.4-0.1-0.4
	s0.1-0.2-0.1-0.4s-0.2,0-0.6,0s-0.5,0-0.5,0.2s0,0.3-0.2,0.4c-0.3,0-0.6,0.2-0.7,0.4c-0.3,0.4-0.4,0.4-0.4,0.5s0.2,0.1,0.3,0.1
	c0.3-0.1,0.6-0.2,0.9-0.4c0.2-0.1,0.7-0.3,0.8-0.2s0.2,0.3,0,0.4s-0.2,0-0.3,0c-0.4,0-0.8,0.2-1.1,0.4c-0.3,0.2-0.3,0.4-0.2,0.5
	c0.6,0.2,1.2,0.2,1.8,0.1c0.2,0,0.2-0.4,0.6-0.4c0.3,0,0.5,0.2,0.7,0.4c0.2,0.1,0.3,0.1,0.3,0.3s-0.3,0.2-0.5,0.2s-0.3,0-0.3-0.2
	s0-0.2-0.3-0.2s-0.6,0.2-0.9,0.4c-0.5,0.1-0.9,0.1-1.4,0.2c-0.2,0-1-1.2-1.2-1.4c-0.1-0.1-0.2-0.3-0.1-0.4c0.6-0.5,1.3-0.9,2-1.2
	c0.5-0.3,0.6-0.5,0.6-0.8s-0.7-0.1-1,0.1c-0.4,0.3-0.9,0.6-1.2,1c-0.2,0.2-0.5,0.5-0.6,0.4S83,20.2,82.9,20s-0.2-0.2-0.5-0.1
	s-0.5,0.4-1.2,0.8c-0.2,0.1-0.4,0.2-0.6,0.4c-0.1,0.1-0.1,0.3,0,0.4c0.2,0.2,0.6,0,0.8,0c0.2-0.1,0.4-0.1,0.6-0.2
	c0.1,0,0.6,0.5,0.9,0.8s1.3,1.5,1.6,1.6c0.5,0.4,0.9,0.8,1.2,1.3c0.1,0.1,0.1,0.2,0,0.2c0,0,0,0,0,0c-0.3,0.2-0.2,0.2-0.2,0.3
	c0.3,0.3,0.6,0.5,0.9,0.7c0.2,0,0.8,0,0.9-0.2s-0.1-0.3-0.2-0.4s-0.1-0.5-0.4-0.7c-0.5-0.5-1-1-1.3-1.5c0.3-0.1,0.6-0.2,0.9-0.1
	c0.2,0.1,0.2,0.4,0.4,0.4s0.2,0,0.4-0.1s0.2,0,1.1,0s0.9-0.2,1.1-0.4C89.2,23,89.2,22.7,89,22.4z M64.4,12.9c-0.2,0-0.3,0.4-0.5,0.6
	s0,0.5,0.1,0.8c0.1,0.5,0.3,0.9,0.7,1.2c0.2,0.1,0.4-0.2,0.7-0.6s0.3-0.5-0.1-1S64.8,12.9,64.4,12.9z M66.4,7.2
	C65.7,7.5,65,8,64.5,8.6c-0.6,0.8-0.7,1-0.9,0.9c-0.2-0.1-0.4-0.2-0.6-0.2C62.6,9.1,62.2,9,61.8,9c-0.4,0-0.7,0.2-0.9,0.5
	c-0.2,0.3,0,0.3,0.2,0.5c0.4,0.2,0.9,0.3,1.3,0.4c0.2,0,0.4,0,0.4,0.2c-0.5,0.4-1,0.9-1.5,1.2c-0.4,0.3-1.2,0.8-1.3,1
	c-0.3,0.4,0.1,0.6,0.3,0.6c0.4-0.2,0.8-0.3,1.2-0.5c0.5-0.1,1.1-0.4,1.5-0.7c0.3-0.2,1-1,1.2-1s1.5,0.9,1.8,0.9
	c0.3-0.1,0.5-0.3,0.7-0.5c0.3-0.2,0.1-0.4-0.2-0.5c-0.5-0.1-1-0.3-1.4-0.6c-0.4-0.2-0.1-0.4,0.1-0.6s1.2-1.1,1.7-1.6
	s0.6-0.8,0.5-0.9S66.8,7,66.4,7.2L66.4,7.2z M42.3,9c-0.2,0-0.4,0.1-0.6,0.4s-0.1,1.2-0.4,1.7c-0.1-0.1-0.2-0.3-0.2-0.4
	c-0.1-0.2-0.2-0.4-0.3-0.5s-0.2,0.1-0.3,0.3c-0.1,0.2-0.3,0.5-0.5,0.6c-0.4,0.2-0.3-0.6-0.5-0.9s-0.5,0.2-0.4,0.7
	c0,0.3,0.1,0.6,0.2,0.9c0,0.2,0,0.5,0.1,0.7c0.1,0.4,0.3,0.8,0.5,1.2c0.2,0.3,0.6,0.2,0.4-0.5c0-0.4-0.5-1.1-0.2-1.5
	c0.1-0.2,0.3-0.3,0.5-0.1c0,0,0.1,0,0.1,0.1c0.2,0.2,0.2,0.7,0.4,0.8s0.3-0.2,0.5-0.4c0-0.3,0.1-0.6,0.2-0.8c0-0.2,0.2-0.4,0.2-0.6
	s0.2-0.6,0.4-0.6s0.5,0.4,0.6,0.5s0.1,0.4,0.2,0.8c0.1,0.5,0.1,1.1,0,1.6c0,0.3-0.1,0.4,0,0.5s0.3,0.2,0.5-0.9
	c0.1-0.7,0.1-1.4,0-2.1C43.4,9.8,42.9,9.3,42.3,9z M45,6.8c-0.1,0-0.3,0.1-0.5,0.1C44,7,43.4,7,42.9,7c-0.2-0.1-0.3-0.1-0.3-0.2
	s0-0.3,0-0.5s-0.1-0.4-0.3-0.4s-0.4,0.2-0.6,0.4S41.5,6.5,41.5,7c0,0.2,0,0.4,0.1,0.5c0.3,0.1,0.7,0.2,1,0.2
	c0.6,0.1,1.3,0.2,1.9,0.1c0.3-0.1,0.5-0.2,0.8-0.4C45.3,7.1,45.3,6.9,45,6.8z M36.1,13.3v-1.1c0-0.2-0.6-0.9-1-2.1
	c-0.1-0.2-0.3-0.2-0.4,0c0.3,0.9,0.5,1.8,0.6,2.7c0,0.8,0.1,1.6,0.2,2.4c0.1,0.5,0.8,1.4,1,1.2s0.3-0.2,0.1-0.9S36.3,14,36.1,13.3
	L36.1,13.3z M35.4,9.2c0.3-0.4,0.3-1-0.1-1.3c-0.1-0.1-0.2-0.1-0.3-0.2c-0.2-0.1-0.1,0.4-0.1,0.9c0,0.2,0,0.5,0,0.7
	C34.8,9.5,34.8,10,35.4,9.2L35.4,9.2z M39.3,7.9c0.1,0.1,0.1,0.3,0.1,0.4c0,0.3-0.3,0.4-0.3,0.6S39,9.6,39.2,9.6
	c0.5,0.2,0.7-0.8,0.7-1.6c0-0.3,0-0.6,0-0.9c0-0.3,0.5-0.5,0.6-0.4c0.1,0.3,0.2,0.6,0.4,1c0.2,0.3,0.4,0.6,0.7,0.8
	C42.3,9,42,8.4,42,8c0-0.2-0.2-0.1-0.2-0.2s-0.3,0.1-0.5,0c-0.3-0.4-0.5-0.8-0.6-1.3c0-0.2,0.4-0.4,0.5-0.6s0-0.5-0.1-0.5
	S40,6.8,39.8,7c-0.1,0.1-0.2,0.1-0.3,0.1c0,0,0,0-0.1-0.1c-0.1-0.1-0.2-0.6,0.7-1.8c0.3-0.4,0.2-0.4,0-0.5s-0.3,0.1-0.6,0.1
	S39.1,4.8,39,4.7s0-0.4,0-0.6c-0.2-0.4-0.8-0.2-1.2,0.2S36.6,6.6,37,6.9s0.8-0.6,1.2-1c0.2-0.3,0.6-0.4,0.9-0.5
	c0.4,0-0.5,1.4-0.2,2.5c0.1,0.2-0.4,0.6-0.6,0.4c0,0-0.5-0.7-0.8-0.8s-0.4,0.6-0.1,1s1,0.2-0.3,1.9c-0.2,0.3-0.3,0.7-0.3,1.1
	c0,0.5,0.1,0.9,0.4,0.9s0.6-0.4,0.8-0.6c0.2-0.5,0.4-1,0.5-1.5c0-0.5,0-0.9,0.1-1.4C38.8,8.5,39,8.2,39.3,7.9L39.3,7.9z M35.6,7.4
	c0.1-0.1,0.1-0.1,0.1-0.2c-0.3-0.4-0.7-1.1-0.9-1.1c-0.1,0.1-0.2,0.2-0.3,0.3c-0.2,0.2,0,0.5,0.5,0.8C35.2,7.3,35.4,7.4,35.6,7.4
	L35.6,7.4z M18.6,23.4c-0.3,0-0.6,0.1-0.9,0.2c-0.3,0.4-0.4,0.6-0.9,1.1c0.1,0-0.1,0.4,0,0.6c0.2,0.2,0.4,0.4,0.7,0.5
	c0.3,0.1,0.9,0.2,1.1-0.4c0.1-0.3-0.4-0.5-0.5-0.5v-0.2h0.2c0,0,0.6,0.2,0.8,0.2c0.3-0.4,0.3-1,0.1-1.5C19.1,23.2,19,23.4,18.6,23.4
	L18.6,23.4z M17.1,22.7c-0.1-0.2-0.2-0.4-0.4-0.5c-0.4-0.1-0.9,0.8-0.9,1s0.1,0.4,0.3,0.4C16.2,23.5,17.1,23.1,17.1,22.7L17.1,22.7z
	 M20.9,21.9c-0.7-0.8-1.5-1.6-2.4-2.2c-0.9-0.7-1.9-1.2-2.5-0.8s-0.4,0.7-0.5,1.1c-0.1,0.3-0.4,0.6-0.6,0.8
	c-0.5,0.4-0.9,0.8-1.3,1.3c-0.1,0.3-0.6,0.1-0.7,0.4c-0.1,0.2-0.2,0.4-0.1,0.7c0.3,1.1,2.5,3.2,2.5,3.2l1.1,1
	c0.5,0.6,1.1,1.2,1.8,1.6c0.4,0.1,0.9,0,0.8-0.2c-0.4-0.7-1.5-1.4-2-2.1c-0.6-0.9-1.4-1.5-2.1-2.3c-0.1-0.2-0.3-0.5-0.5-0.7
	c-0.1-0.2-0.1-0.4,0-0.6c0.1-0.2,0.4-0.5,0.5-0.7c0.4-0.5,0.8-1.1,1.1-1.7c0.1-0.2,0.3-0.3,0.5-0.5c0.2-0.2,0.7-0.1,1,0
	c0.9,0.6,1.7,1.2,2.4,2c0.7,0.7,0.9,0.7,1.2,1.5c0.1,0.3-0.3,0.2-0.4,0.4c-0.1,0.4-0.1,0.8,0.7,1c0.2,0,0.5,0.2,0.6,0.1
	s0.1-0.3,0-0.6C21.8,23.6,21.5,22.7,20.9,21.9L20.9,21.9z"/>
<path class="st1" d="M74.9,43.1c-0.2,0.8-0.6,1.6-1.3,2c-1.3,1-1.1,1.8-1.3,2.1c0,0.1-0.1,0.2-0.2,0.2s-0.3-0.7-0.3-1.2
	c0.1-0.6,0.4-1.2,0.7-1.7c0.4-0.7,0.8-1.3,1.3-1.8C74.6,41.9,74.9,42.7,74.9,43.1 M74.2,60.2c-0.1,3.2-0.1,4.8-1.4,6.8
	c-0.6,0.8-1.2,1.6-1.8,2.4c-1.5,1.2-1.1,0.3-0.4-0.9c2.1-2.5,2.2-6,2.2-9s-0.3-6.1,0-5.6C73.6,55.8,74.1,58,74.2,60.2L74.2,60.2z
	 M67.9,69.9c-0.9,0.9-1.9,1.7-3,2.4c-0.9,0.5-1.9,0.9-3,1.2c-0.1,0-0.2,0-0.2,0c-0.2-0.1-0.3-0.4-0.3-1.1c0-0.6,0.1-1.2,0.3-1.8
	c0.1-0.3,0.1-0.6,0.2-0.8c0.2-0.9,0.5-1.7,0.7-2.3c0.2-1.4,0.5-2.7,1-4c0.1-0.3,0.4-0.6,0.6-0.8c0.2-0.1,0.5-0.2,0.7-0.3
	c0.8-0.3,1.7-0.4,2.5-0.4c1,0,2,3.6,2,4.4C69.2,67.6,68.7,68.8,67.9,69.9L67.9,69.9z M61,67c-0.3,0-0.5-0.4-1.1-1.4
	c-0.6-0.8-0.6-1.8,0.1-2.6c0.5-0.5,1.3-0.7,1.9-0.4c0.4,0.2,0.6,0.4,0.4,1.6c-0.2,0.7-0.3,1.3-0.4,1.7S61.4,67,61,67z M60.9,70.3
	c-0.5,1.5-0.9,4.2-1.7,4.3c-0.2,0-0.3,0-0.5,0c-0.8-0.1-1.9-0.7-2-1.3c-0.3-0.9,0.1-1.8,0.9-2.3c0.5-0.3,0.9-0.6,1.4-1
	c0.4-0.3,0.8-0.6,1.2-0.8c0.3-0.2,0.7-0.3,0.9,0c0.1,0.2,0.1,0.4,0,0.6C61,69.9,60.9,70.1,60.9,70.3L60.9,70.3z M58.5,56.4
	c0.2-1.1,0.4-2.1,0.7-3.1c0.2-0.9,0.5-1.8,0.9-2.7c0.3-0.6,0.5-0.2,0.9,0.1c0.6,0.5,2.7,1.8,3.1,1.7c0.3,0,0.6-0.1,0.9-0.2
	c-0.1,1.4-0.4,2.7-0.7,4.1c-0.2,0.8-0.3,2.5-0.6,3.5c0,0.3-0.2,0.6-0.4,0.8c-0.7,0.3-1.5,0.3-2.2,0.1C58.9,60.3,58.3,58.3,58.5,56.4
	L58.5,56.4z M63.1,45.1c0.5-0.7,1.2-1.3,1.9-1.8c0.5-0.5,1.1-0.8,1.6-1.2c1-0.6,1.1,0.6,0.9,1.2s-1,3.2-1.3,4.2s-0.5,2.8-1,3
	c-0.5,0.2-1.2,0.2-1.7-0.2c-0.8-0.5-1.3-1.4-1.3-2.4C62.1,47,62.4,45.9,63.1,45.1L63.1,45.1z M55.4,74.1c-0.1,0.6-0.2,0.7-0.8,0.9
	l-0.4,0.1c-0.7,0.2-1.1,0-0.9-0.4c0.2-0.4,0.5-0.8,0.9-1.1c0.2-0.1,0.4-0.2,0.5-0.2C55.1,73.4,55.5,73.5,55.4,74.1L55.4,74.1z
	 M47,74.6c-0.5-0.8-0.1-1.8,0.4-3.2c0.1-0.4,0.2-0.8,0.4-1.2c0.5-2,0.7-1.9,1-3.3s0.4-2.1,0.9-2.3c0.3-0.1,0.6-0.1,0.9,0.1
	c0.3,0.2,0.6,0.5,1,0.7c1,0.4,1.6,1.4,1.5,2.4c0.2,1.2,0.7,2.4,1.3,3.4c0.3,1-2,2.8-2.8,3.1C50.4,74.8,47.6,75.6,47,74.6z
	 M46.6,63.2c0.1-0.5,1.2,0.4,1.4,0.6c0.5,0.3,0.3,0.5,0.1,1.5c-0.1,0.6-0.2,1.9-0.6,2h-0.1c-0.4,0-0.6-1.4-0.6-2.2
	C46.5,64.5,46.4,63.9,46.6,63.2L46.6,63.2z M46.1,71.6c-0.4,1.4-0.7,2.3-1.2,2.4c-0.9,0.2-1.2-1.2-1.4-1.9c-0.4-1.3-0.7-1.8-1-2.5
	s-0.5-0.8-0.1-1.3s0.5-0.3,1.4,0.2c0.8,0.4,1.3,0.8,2,1.1C46.2,69.9,46.4,70.3,46.1,71.6L46.1,71.6z M42.2,73.9c-1,0.1-2,0.1-3-0.2
	c-0.5-0.1-0.9-0.3-0.6-1.1c0.2-0.4,0.4-0.8,0.6-1.2c0.3-0.5,0.8-0.9,1.2-1.3c0.1-0.1,0.2-0.1,0.3-0.1c0.1,0,1.3,2.8,1.5,3.3
	C42.4,73.5,42.4,73.8,42.2,73.9L42.2,73.9z M36.8,71.5c-0.2,0.1-0.3,0.2-0.5,0.3c-0.9,0.3-1.1-0.3-1.7-0.7s-1.3-0.3-1.2-1
	c0.3-1.2,0.6-2.3,1.1-3.4c0.1-0.5,1.2,0.4,1.6-0.4c0.2-0.5-0.9-1.9-0.7-2.2s0.8-0.4,1.5-0.3c1.2,0.1,1.8,0.1,2.3,1.3
	c0.4,0.9,0.7,1.8,0.6,2.8C39.1,69.3,38.1,70.5,36.8,71.5z M32.9,67.6c-0.2,0.8-0.5,1.7-0.8,1.6c-0.3-0.1-0.6-0.2-0.8-0.3
	c-0.7-0.5-1.3-1.1-1.6-1.9c-0.2-0.7-0.8-1.1,0.2-1.3c0.5,0,1,0,1.4,0.1c0.8,0.1,1.7,0.3,1.8,0.3C33.5,66.2,33.1,66.8,32.9,67.6z
	 M30.3,53.5c0.3-1.8,0.2-2.5,0.6-3c0.2-0.2,0.5-0.4,0.7-0.6c0.4-0.3,1-0.2,1.3,0.2c0,0,0,0.1,0.1,0.1c1,1.3,1.5,1.9,2.2,2.3
	c0.5,0.2,1.1,0.2,1.7,0.2c0.3,0,0.5,0,0.5,0.1c-0.1,0.2-0.2,1.1-0.5,2s-0.5,1.8-0.8,2.6c-0.7,1.7-1,4.3-1.5,4.4s-1.8-0.6-3.1-2.5
	C30.3,57.6,29.9,55.5,30.3,53.5z M34,46c1-1.6,3.3-2.5,5.1-2.6c0.6,0,1,0,1,0.2c-0.2,1.2-0.5,2.5-1,3.6c-0.2,0.6-0.5,1.4-0.8,2.2
	c-0.5,1.4,0.1,1.9-1.2,2c-1.2,0.1-2.3-0.6-2.6-1.8C34,48.6,32.8,48.2,34,46z M43.4,53c0.1-0.9,0.3-2.3,0.8-2.8l0,0
	c0.1-0.1,0.2-0.1,0.3-0.2c0.7-0.2,2.4,1.8,3.2,2.4c0.7,0.2,1.5,0.3,2.3,0.3c0.2,0,0.5,0,0.5,0.3s-0.1,1-0.3,2
	C50,55.3,50,55.6,49.9,56c-0.4,2.4-1.1,5.3-1.4,5.3c-0.3,0-0.6-0.2-0.9-0.3C44.8,59.3,43.2,56.2,43.4,53z M47.2,44.5
	c0.7-0.9,1.6-1.7,2.7-2.2c0.6-0.3,3.5-1.4,3.7-0.3c0.1,1-0.2,2.1-0.6,3c-0.8,2.3-1.5,6-2,6.2c-1.1,0.2-2.1-0.2-2.8-1
	C47,48.6,45.7,46.4,47.2,44.5L47.2,44.5z M77.1,37.6c-2.1-3.1-4.7-5.9-7.5-8.3c-1.3-1.1-2.7-2.1-4.3-2.8c-0.5-0.2-1.1-0.4-1.7-0.5
	c-1.1-0.2-1.1,0,0,0.7c0.4,0.2,0.9,0.5,1.4,0.7c2.9,1.7,5.6,5.4,7.3,8.3c1,1.5,1.7,3.1,2.2,4.8c-2.1,1-3.6,2.8-4.2,5
	c-0.9,3.6-0.5,18.2-0.5,18.2c-0.1-0.3-1-3.3-1.6-3.6s-2.2,0.3-3.3,0.1h-0.1c-0.6-0.2,0.8-5.8,1.3-7.8c0.1-0.5,1.1-0.3,1.2-1.7
	c0-0.5-0.6-0.9-0.5-1.3c1.1-3.8,2.1-6.9,2.4-7c3.2-1,0.1-1.6,0.1-1.6c-0.7-0.2-1.5-0.1-2.2,0.1c-0.5,0.2-1.1,0.4-1.6,0.7
	c-0.2-0.4-0.5-0.9-0.8-1.2c-0.8-1-1.8-1.7-3.1-2c-0.5-0.1-1,0-1.5,0.3c-1.1,1.1-0.4,1.7,0.5,2s1.8,0.3,2.6,0.8
	c0.4,0.3,0.8,0.5,1.2,0.7c-0.4,0.2-0.8,0.4-1.2,0.7c-1.4,0.7-2.7,1.8-3.8,3c-1.7,3-3.7,6.2-4.6,9.4c-1.1,3.6,0,8,0.6,9
	s2.6,2.7,2.1,4.2c-0.2,0.7-1.5,2.3-2,2.2s-1-3.8-1.3-4.9c-0.2-0.3-0.3-0.5-0.6-0.7c-1.2-1-2.5-1.9-3.9-2.7c-0.1-0.1-0.1-0.3-0.1-0.5
	v-0.4c0.1-1.9,1.4-6,1.7-7.5c0-0.2,0.1-0.6,0.2-1s1.2-0.1,1-1.4c-0.1-0.4-0.2-0.8-0.2-1.2c0.5-1.8,1.1-3.7,1.6-5.2l0,0
	c0.2-0.8,0.5-1.5,0.8-2.2c0.4-0.5,1-0.8,1.7-0.9c0.8-0.1,0.7-0.6,0.3-1.1c-0.3-0.2-0.6-0.3-0.9-0.3c-1.5-0.4-3.1-0.3-4.6,0.2
	c-1,0.3-2,0.5-3,0.5c-0.5,0.1-1.7-2.1-2.2-2.5s-1.6-0.9-2.2-0.3c-0.5,0.4-0.6,1.7,0,2.1c0.6,0.2,1.2,0.4,1.8,0.4
	c0.9,0.3,1.2,1,1,1.4c-0.7,1-1.5,2-2.3,3c-2.4,3.3-5.1,8.2-3.8,12.3c0.6,1.9,1.5,3.8,2.5,5.5c0.4,0.9,0.7,1.8,0.7,2.8
	c0,0.9-1.4,0.8-2,0.8c-0.8,0.1-1.1,0-1.4-1.7c-0.1-0.5-0.2-0.9-0.3-1.4l0,0c-0.6-1.5-2.3-1-3.5-1c-0.3,0-0.5,0-0.8-0.1
	c-0.3-0.1,0.2-1.9,0.8-4s1.3-4.5,1.6-5.8c0.1-0.2,0.4-0.1,0.7-0.2c0.1,0,0.2-0.1,0.3-0.2c0.1-0.4,0.1-0.7,0.1-1.1
	c0-0.2-0.2-0.2-0.4-0.3c-0.1,0-0.1-0.2-0.1-0.3c0-0.1,0.1-0.3,0.1-0.4c0.4-1.3,0.9-2.6,1.3-3.9c0.3-1,0.6-1.8,0.7-1.9
	c0-0.2,0.5-0.2,1-0.2c0.2,0,0.3,0,0.4-0.1c0.4-0.4,0.4-0.9,0-1.3c-0.1-0.1-0.1-0.1-0.2-0.2c-0.6-0.3-1.2-0.4-1.9-0.3h-1.2
	c-0.9,0-1.9,0-2.3,0c-1.2-0.4-0.6-1.8-1.6-2.4c-2-1.2-2.5,0.5-1.8,1.3c0.8,1,1.4,0.4,1.5,1.8c0.1,0.5-5.2,5-6,6.2S27,55,27.4,57
	s0.5,3.3,2.3,5.2c0.5,0.5,1,0.9,1.6,1.2l0,0c0.8,0.4,1.4,0.7,1.4,0.9s-0.6,0.2-1.5,0.2c-0.4,0-0.7,0-1.1,0.1
	c-0.6,0.2-1.3,0.3-1.9,0.6c-0.5,0.1-2.9-2-3.5-4.3s1.3-7.1,1.5-8.5s-0.5-9.9-0.5-10.6s0.9-1.6,2.7-1.7c1,0,2,0.4,2.8,1.1l0,0
	c0.2,0,0.3,0.1,0.4,0c0.5-0.1,0.6-1.3-0.4-2.5l0,0l-0.4-0.4c-1.3-1.4-2.6-0.9-2.9-1.5s0.7-0.7,1.6-1.7c0.9-0.9,1-2.3,0.2-3.3
	c-0.7-1.2-3.5-1.8-3.4-1s1.1,1.4,0.9,2.7c-0.3,1.8-1.6,2.1-3,3.4s-2.7,1.7-2.1,5.9c0.6,4.1,0.6,8.3,0.2,12.4
	c-0.5,3.6-1.5,5.8,0.1,9.2s8,10.2,8,10.2s-0.3,0.8-0.6,1.5s0.4,0.8,0.7,0.8c0.2,0,0.5-0.6,0.6-0.8c0.2-0.5,0.4-0.9,0.4-0.9
	c1.6,1.1,3.3,2.1,5.1,2.8c1.7,0.7,3.5,1.1,5.4,1.1c1.1,0.1,1.5,0.2,1.4,0.6s-0.1,0.6-0.3,0.9s-0.2,0.9-0.2,0.9
	c0.3,0.3,0.9,0.5,1.2,0.1c0.2-0.4,0.4-0.8,0.4-1.3c0-0.4,0.2-0.7,0.4-1c3.1,0.2,6.1,0.1,9.2,0.1h3.5c0,0.3-0.1,0.6-0.2,0.9
	c-0.2,0.5-0.1,0.4-0.1,0.9c0.4,0.2,0.8,0.1,1.2-0.1c0.5-0.4,0.4-1.5,0.7-2.1c0.4-0.1,0.8-0.2,1.2-0.3c2.5-0.6,4.8-1.7,6.9-3.2
	c2.4-1.7,6-5,7.5-7.5c0.9-1.7,1.6-3.5,2-5.3c0.5-1.3,0.1-3.1-0.7-5.3s-1.6-5.3-2-7.1s-0.6-3.4-0.1-4.2s0.6-0.9,1.4-0.5
	s1,1.2,0.7,4.4c-0.3,3.5,0,4.3,1,2.2c0.6-1.7,0.9-3.5,0.8-5.3c0.1-1.1,0.3-2.2,0.7-3.2C79.2,43,78.3,39.4,77.1,37.6L77.1,37.6z"/>
<path class="st1" d="M95.4,51.4v0.2c-0.1,0.7-0.4,0.7-1.1,0.7l-1.8-0.1L90,50.3c-0.5-0.3-1.1-0.9-1.1-1.5l0.1-0.1h-0.2l-0.2,2.4h0.2
	c0-0.1,0-0.3,0-0.4c0.3-0.2,0.4-0.3,0.8-0.1c0.1,0.1,0.3,0.2,0.4,0.2l2.1,1.5l-2.3,1.3c-0.3,0.2-0.8,0.5-1,0.1
	c-0.1-0.1-0.1-0.3-0.1-0.4v-0.2h-0.2l-0.2,3h0.2c0-0.1,0-0.2,0.1-0.3c0.2-0.4,0.6-0.7,1-0.9l3-1.7l1.7,0.1c0.6,0.1,1,0.1,1,0.8v0.3
	h0.2l0.2-3 M93.8,61c0,0.2-0.2,0.4-0.4,0.5c-0.1,0.1-0.4,0.1-0.8-0.1l-5.2-1.3l0.3-1c0.1-0.2,0.2-0.5,0.3-0.6
	c0.3-0.3,0.8-0.4,1.2-0.3l0.1-0.2l-1.6-0.3l-1.5,5.5l1.6,0.5l0.1-0.2c-0.3-0.1-0.5-0.2-0.7-0.4c-0.1-0.1-0.2-0.3-0.3-0.5
	c0-0.5,0.2-1,0.3-1.5l5.2,1.4c0.6,0.2,1,0.3,0.8,1l-0.1,0.3h0.2l0.7-2.8h-0.2L93.8,61z M91.3,68.2c-0.3,0.6-0.7,0.5-1.2,0.2l-4-2
	c-0.3-0.1-0.5-0.3-0.7-0.5c-0.1-0.3,0.1-0.6,0.2-0.9l-0.2-0.1l-1.3,2.7l0.2,0.1l0.1-0.2c0.4-0.6,0.7-0.5,1.3-0.2l4,2
	c0.5,0.2,0.9,0.5,0.6,1.1l-0.1,0.3h0.2l1.4-2.7h-0.2L91.3,68.2z M85.5,72.5c-1,0.3-2.1,1.2-3.1,1.3c-0.2,0-0.4,0-0.6-0.1
	c-0.9-0.8-0.3-1.9,0.6-2.3c0.7-0.3,1.4-0.2,2,0.2l0.1-0.1l-2-1.4l-0.1,0.2c0.2,0.1,0.2,0.3,0.2,0.5c-0.1,0.1-0.2,0.2-0.4,0.2
	c-0.9,0.4-1.4,1.4-1.3,2.3c0.1,1,1,1.6,1.9,1.5c0.1,0,0.3-0.1,0.4-0.1c0.5-0.2,0.9-0.4,1.4-0.6c0.4-0.2,0.8-0.4,1.2-0.5
	c0.4-0.2,0.8-0.1,1.1,0.1c1,0.7,0.2,2-0.6,2.5c-0.3,0.1-0.6,0.2-0.9,0.2c-0.4-0.1-0.8-0.2-1.2-0.4l-0.1,0.1l2,1.4l0.1-0.2
	c-0.1-0.1-0.2-0.2-0.2-0.3c0-0.1,0-0.1,0-0.2c0.1-0.2,0.3-0.3,0.5-0.4c0.9-0.5,1.4-1.5,1.3-2.5c-0.1-1-1-1.7-2-1.6
	C85.8,72.5,85.6,72.5,85.5,72.5L85.5,72.5z M77.9,80.9l-0.5-0.5l-1.5-1.6c0.6-0.9,1.7-1.6,2.6-0.6c0.3,0.3,0.5,0.7,0.4,1.1
	C78.8,80,78.4,80.5,77.9,80.9L77.9,80.9z M78.7,80.6l4,0.7l1.3-1.3l-0.2-0.1c-0.2,0.2-0.5,0.4-0.8,0.4c-0.4,0.1-0.8,0.1-1.2,0
	l-2.5-0.4c0.7-0.7,0.7-1.8,0-2.5c-1.1-1.1-2.4-0.2-3.3,0.7l-1.8,1.8l0.2,0.1l0.2-0.2c0.1-0.2,0.3-0.3,0.6-0.2c0.2,0,0.4,0.2,0.7,0.5
	l1.7,1.8l1.4,1.4c0.6,0.6,0.6,0.9,0,1.5l0.1,0.1l2.2-2.1L81,82.7c-0.5,0.6-0.9,0.5-1.4,0l-1.4-1.4L78.7,80.6z M75.3,85.3
	c0.1,0.6,0,1.2-0.2,1.8c-0.5,0.4-1.1,0.8-1.7,1.1c-0.5,0.3-0.7,0.1-0.9-0.3L71.2,86l1.3-0.8c0.8-0.5,1-0.3,1.5,0.3l0.1-0.1l-1.3-2
	l-0.2,0.1c0.5,0.7,0.2,1-0.3,1.5L71,85.7l-1.5-2.3l1.6-1c0.2-0.1,0.4-0.3,0.6-0.4c0.2,0,0.4,0,0.5,0.1c0.2,0.1,0.4,0.3,0.6,0.5
	l0.2-0.1l-0.9-1.2l-4.5,2.9l0.1,0.2c0.2-0.1,0.5-0.4,0.8-0.3s0.3,0.2,0.6,0.6l2.5,3.8c0.2,0.3,0.4,0.6,0.3,0.9
	c-0.1,0.1-0.2,0.3-0.3,0.4l-0.2,0.1l0.1,0.2l4.6-3l-0.5-1.8L75.3,85.3z M64.5,85.6l0.1,0.2c0.1-0.1,0.3-0.1,0.4-0.1
	c0.5,0.1,0.5,0.5,0.5,1.1l-0.2,4.3l-3-3.3c-0.6-0.6-0.8-0.9,0.1-1.3v-0.2l-2.7,0.9l0,0.2c0.6-0.2,1,0,1.3,0.4l4.4,4.9l0.2-0.1
	l0.4-6.4c-0.1-0.5,0.1-1,0.6-1.3v-0.2L64.5,85.6z M57.7,93.4l-0.9-4.4c-0.1-0.3-0.1-0.6,0-0.8c0.1-0.2,0.3-0.3,0.6-0.4h0.2v-0.2
	l-3,0.6v0.2c0.9-0.1,1-0.1,1.2,0.8l0.9,4.4c0.2,0.6,0.1,1-0.5,1.2h-0.2v0.2l2.9-0.6v-0.2C57.9,94.3,57.9,94.2,57.7,93.4z M50.7,88.5
	H51c0.2,0,0.4,0.1,0.6,0.3c0.1,0.2,0.1,0.5,0.1,0.8l-0.1,4.1l-4-5.4l-1.9-0.1v0.2c0.6,0,1.1,0.3,1.3,0.8l-0.2,4.8
	c0,0.3,0,0.5-0.1,0.7c-0.2,0.2-0.4,0.3-0.7,0.2h-0.3v0.2l2.4,0.1V95H48c-0.2,0-0.4-0.1-0.6-0.2c-0.1-0.1-0.2-0.4-0.1-0.8l0.2-4.3
	l4.3,5.8h0.2l0.2-5.9c0-0.3,0-0.5,0.1-0.8c0.2-0.3,0.6-0.2,0.9-0.2v-0.2l-2.4-0.1L50.7,88.5z M42,87.7l0.3,0.1
	c0.2,0,0.4,0.2,0.5,0.4c0.1,0.1,0,0.4-0.1,0.8L42,91.7c-0.1,0.5-0.3,1-0.6,1.5c-0.6,0.6-1.4,0.8-2.2,0.5c-1.5-0.3-1.4-1.5-1.2-2.8
	l0.8-3c0.1-0.4,0.2-0.6,0.3-0.7c0.2-0.1,0.4-0.2,0.7-0.1l0.3,0.1v-0.2l-2.9-0.7l0,0.2c0.3,0.1,0.6,0.1,0.8,0.4
	c0.1,0.3,0.1,0.5,0,0.8l-0.7,2.7C37,91,37,91.5,37,92.1c0.2,2.1,3.7,3,4.9,1.3c0.3-0.5,0.5-1,0.6-1.5l0.7-2.7c0-0.3,0.1-0.5,0.3-0.7
	c0.2-0.2,0.4-0.3,0.7-0.2l0.3,0.1v-0.2L42,87.5V87.7z M28.8,82.3l0.2,0.2c0.1,0.1,0.3,0.2,0.4,0.3c0,0.1,0.1,0.2,0.1,0.3
	c-0.1,0.2-0.2,0.4-0.3,0.6l-2.3,3.9c-0.2,0.3-0.4,0.6-0.5,0.6c-0.2,0.1-0.5,0.1-0.7-0.1L25.5,88l-0.1,0.2l2.6,1.5l0.1-0.2l-0.2-0.1
	c-0.1-0.1-0.3-0.2-0.4-0.3c-0.1-0.1-0.1-0.2-0.1-0.3c0-0.2,0.1-0.5,0.3-0.7l2.2-3.9c0.2-0.4,0.4-0.6,0.5-0.6c0.2-0.1,0.5,0,0.7,0.1
	l0.2,0.1l0.1-0.2l-2.6-1.5L28.8,82.3z M26.4,81c0.2,0,0.5,0.1,0.6,0.2l0.2,0.1l0.1-0.1l-2.3-1.9l-0.2,0.2l0.2,0.2
	c0.1,0.1,0.2,0.2,0.3,0.4c0,0.1,0,0.2,0,0.3c-0.1,0.2-0.2,0.4-0.4,0.6l-3,3.7c-0.1,0.2-0.3,0.3-0.5,0.4c-0.1,0.1-0.2,0.1-0.3,0
	c-0.1-0.1-0.1-0.3,0-0.4c0.1-0.2,0.1-0.4,0.1-0.6c0-0.1,0-0.2-0.1-0.3c-0.1-0.1-0.3-0.2-0.4-0.2c-0.1,0.1-0.2,0.1-0.3,0.2
	c-0.1,0.2-0.2,0.4-0.1,0.6c0.1,0.3,0.2,0.5,0.5,0.7c0.3,0.3,0.6,0.4,1,0.4c0.4,0,0.7-0.1,1-0.3c0.4-0.2,0.7-0.5,1-0.9l2.1-2.6
	C26.1,81.2,26.2,81,26.4,81z M20.4,80l0.1-0.1l-1.7-2.1l-0.1,0.2c0.1,0.1,0.2,0.3,0.3,0.5c0.1,0.1,0.1,0.2,0,0.3
	c-0.1,0.2-0.3,0.4-0.5,0.5l-1.5,1.3c-0.2-0.1-0.5-0.2-0.7-0.4c-0.2-0.1-0.4-0.3-0.6-0.5c-0.3-0.4-0.5-0.8-0.5-1.2
	c0-0.5,0.1-1.1,0.3-1.6c0.3-0.6,0.6-1.1,1.1-1.5c0.6-0.5,1.3-0.8,2-0.9c0.8-0.1,1.6,0.3,2.1,0.9c0.4,0.4,0.6,1,0.6,1.6
	c0,0.5-0.2,0.9-0.5,1.3l0.1,0.2l1.6-1.6l-0.1-0.2C22.2,76.9,22.1,77,22,77c-0.1,0-0.1,0-0.2,0c-0.1-0.1-0.2-0.3-0.2-0.4
	c-0.1-0.3-0.3-0.6-0.4-0.8s-0.2-0.4-0.4-0.6c-0.4-0.5-0.9-0.9-1.5-1.2c-2-0.7-4.2,0.3-4.9,2.3c0,0.1-0.1,0.3-0.1,0.4
	c-0.2,1.2,0.2,2.4,1,3.2c0.3,0.3,0.6,0.6,0.9,0.9c0.3,0.2,0.7,0.4,1.1,0.6l1.7-1.4c0.2-0.2,0.4-0.3,0.6-0.4c0.2,0,0.4,0.1,0.6,0.3
	L20.4,80z M16.5,70.7c0.2,0.1,0.4,0.2,0.5,0.5l0.1,0.2h0.2L16.3,69l-0.2,0.1c0.1,0.3,0.3,0.6,0.2,0.9c-0.2,0.2-0.4,0.4-0.7,0.5
	L12,72.3l2.7-6.2l-0.9-1.7l-0.2,0.1c0.3,0.5,0.3,1.1,0,1.6l-4.3,2.2c-0.2,0.1-0.5,0.2-0.8,0.2c-0.3,0-0.5-0.4-0.6-0.7l-0.2,0.1
	L9,70.1L9.2,70L9,69.8c-0.1-0.2-0.1-0.4-0.1-0.7c0.2-0.2,0.4-0.4,0.7-0.5l3.8-2l-2.9,6.7l0.1,0.2l5.2-2.7
	C16.1,70.7,16.3,70.7,16.5,70.7L16.5,70.7z M5.4,52.7l5.3-0.4l0.1,1c0,0.2,0,0.5-0.1,0.7c-0.1,0.2-0.2,0.3-0.4,0.4
	c-0.2,0.1-0.4,0.2-0.6,0.2v0.2l1.6-0.2L10.9,49H9.3v0.2c0.3,0,0.5,0,0.8,0.2c0.2,0.1,0.3,0.3,0.4,0.5c0.1,0.2,0.1,0.4,0.1,0.7v0.8
	l-5.3,0.4c-0.3,0.1-0.5,0-0.8-0.1c-0.2-0.1-0.3-0.4-0.3-0.6v-0.3L4,50.8l0.2,3h0.2v-0.2c0-0.2,0-0.5,0.1-0.7
	C4.8,52.8,5.1,52.7,5.4,52.7z M7,62.9c-0.6-0.3-1-0.8-1.2-1.3c-0.2-0.6-0.1-1.2,0.3-1.7c1-1.4,5.4-2.7,6-0.1S8.7,63.7,7,62.9z
	 M11,57.7c-1.8-1-4-0.4-5.2,1.3c-0.5,0.8-0.6,1.7-0.3,2.6c0.8,3.2,5.1,3.2,6.7,0.8c1-1.5,0.5-3.6-1-4.6C11.1,57.8,11.1,57.8,11,57.7
	L11,57.7z"/>
<path class="st1" d="M50,2.1c26.5,0,47.9,21.5,47.9,47.9S76.5,97.9,50,97.9S2.1,76.5,2.1,50C2.1,23.5,23.5,2.1,50,2.1 M50,0
	c27.6,0,50,22.4,50,50s-22.4,50-50,50S0,77.6,0,50C0.1,22.4,22.4,0.1,50,0z"/>
<path class="st1" d="M50,15.3c19.2,0,34.8,15.6,34.8,34.8S69.2,84.8,50,84.8S15.3,69.2,15.2,50c0,0,0,0,0,0
	C15.3,30.8,30.8,15.3,50,15.3 M50,13.9c20,0,36.2,16.2,36.2,36.1S70,86.2,50,86.2S13.9,70,13.9,50c0,0,0,0,0,0
	C13.9,30.1,30.1,13.9,50,13.9z"/>
</svg>
